<?xml version="1.0" encoding="utf-8"?>
<!-- Generator: Adobe Illustrator 27.5.0, SVG Export Plug-In . SVG Version: 6.00 Build 0)  -->
<svg version="1.1"
	 id="レイヤー_1" xmlns:shaper="http://www.shapertools.com/namespaces/shaper" shaper:fusionaddin="version:1.6.10"
	 xmlns="http://www.w3.org/2000/svg" xmlns:xlink="http://www.w3.org/1999/xlink" x="0px" y="0px" viewBox="0 0 283.5 104.9"
	 style="enable-background:new 0 0 283.5 104.9;" xml:space="preserve">
<style type="text/css">
	.st0{fill:none;stroke:#000000;stroke-miterlimit:10;}
</style>
<path shaper:cutDepth="0.002" class="st0" d="M28.4,5.7c0-3.1,2.5-5.7,5.7-5.7h80.8c3.1,0,5.6,2.5,5.7,5.6v8.6H163l0-8.6
	c0-3.1,2.6-5.6,5.7-5.6h80.8c3.1,0,5.7,2.5,5.7,5.7v8.5h22.7c3.1,0,5.7,2.5,5.7,5.7c0,0,0,0,0,0v79.4c0,3.1-2.5,5.7-5.7,5.7l0,0H5.7
	c-3.1,0-5.7-2.5-5.7-5.6c0,0,0,0,0,0V19.8c0-3.1,2.6-5.7,5.7-5.7h22.7V5.7z"/>
</svg>
