%TF.GenerationSoftware,KiCad,Pcbnew,7.0.2*%
%TF.CreationDate,2023-09-30T04:37:45+09:00*%
%TF.ProjectId,VFD_NTP_CLOCK_V2.0,5646445f-4e54-4505-9f43-4c4f434b5f56,rev?*%
%TF.SameCoordinates,PX5e78920PY6f7ffe8*%
%TF.FileFunction,Legend,Bot*%
%TF.FilePolarity,Positive*%
%FSLAX46Y46*%
G04 Gerber Fmt 4.6, Leading zero omitted, Abs format (unit mm)*
G04 Created by KiCad (PCBNEW 7.0.2) date 2023-09-30 04:37:45*
%MOMM*%
%LPD*%
G01*
G04 APERTURE LIST*
%ADD10C,0.300000*%
G04 APERTURE END LIST*
D10*
X31010713Y59815772D02*
X30510713Y58315772D01*
X30510713Y58315772D02*
X30010713Y59815772D01*
X29010714Y59101486D02*
X29510714Y59101486D01*
X29510714Y58315772D02*
X29510714Y59815772D01*
X29510714Y59815772D02*
X28796428Y59815772D01*
X28225000Y58315772D02*
X28225000Y59815772D01*
X28225000Y59815772D02*
X27867857Y59815772D01*
X27867857Y59815772D02*
X27653571Y59744343D01*
X27653571Y59744343D02*
X27510714Y59601486D01*
X27510714Y59601486D02*
X27439285Y59458629D01*
X27439285Y59458629D02*
X27367857Y59172915D01*
X27367857Y59172915D02*
X27367857Y58958629D01*
X27367857Y58958629D02*
X27439285Y58672915D01*
X27439285Y58672915D02*
X27510714Y58530058D01*
X27510714Y58530058D02*
X27653571Y58387200D01*
X27653571Y58387200D02*
X27867857Y58315772D01*
X27867857Y58315772D02*
X28225000Y58315772D01*
X25582143Y58315772D02*
X25582143Y59815772D01*
X25582143Y59815772D02*
X24725000Y58315772D01*
X24725000Y58315772D02*
X24725000Y59815772D01*
X24224999Y59815772D02*
X23367857Y59815772D01*
X23796428Y58315772D02*
X23796428Y59815772D01*
X22867857Y58315772D02*
X22867857Y59815772D01*
X22867857Y59815772D02*
X22296428Y59815772D01*
X22296428Y59815772D02*
X22153571Y59744343D01*
X22153571Y59744343D02*
X22082142Y59672915D01*
X22082142Y59672915D02*
X22010714Y59530058D01*
X22010714Y59530058D02*
X22010714Y59315772D01*
X22010714Y59315772D02*
X22082142Y59172915D01*
X22082142Y59172915D02*
X22153571Y59101486D01*
X22153571Y59101486D02*
X22296428Y59030058D01*
X22296428Y59030058D02*
X22867857Y59030058D01*
X19367857Y58458629D02*
X19439285Y58387200D01*
X19439285Y58387200D02*
X19653571Y58315772D01*
X19653571Y58315772D02*
X19796428Y58315772D01*
X19796428Y58315772D02*
X20010714Y58387200D01*
X20010714Y58387200D02*
X20153571Y58530058D01*
X20153571Y58530058D02*
X20225000Y58672915D01*
X20225000Y58672915D02*
X20296428Y58958629D01*
X20296428Y58958629D02*
X20296428Y59172915D01*
X20296428Y59172915D02*
X20225000Y59458629D01*
X20225000Y59458629D02*
X20153571Y59601486D01*
X20153571Y59601486D02*
X20010714Y59744343D01*
X20010714Y59744343D02*
X19796428Y59815772D01*
X19796428Y59815772D02*
X19653571Y59815772D01*
X19653571Y59815772D02*
X19439285Y59744343D01*
X19439285Y59744343D02*
X19367857Y59672915D01*
X18010714Y58315772D02*
X18725000Y58315772D01*
X18725000Y58315772D02*
X18725000Y59815772D01*
X17224999Y59815772D02*
X16939285Y59815772D01*
X16939285Y59815772D02*
X16796428Y59744343D01*
X16796428Y59744343D02*
X16653571Y59601486D01*
X16653571Y59601486D02*
X16582142Y59315772D01*
X16582142Y59315772D02*
X16582142Y58815772D01*
X16582142Y58815772D02*
X16653571Y58530058D01*
X16653571Y58530058D02*
X16796428Y58387200D01*
X16796428Y58387200D02*
X16939285Y58315772D01*
X16939285Y58315772D02*
X17224999Y58315772D01*
X17224999Y58315772D02*
X17367857Y58387200D01*
X17367857Y58387200D02*
X17510714Y58530058D01*
X17510714Y58530058D02*
X17582142Y58815772D01*
X17582142Y58815772D02*
X17582142Y59315772D01*
X17582142Y59315772D02*
X17510714Y59601486D01*
X17510714Y59601486D02*
X17367857Y59744343D01*
X17367857Y59744343D02*
X17224999Y59815772D01*
X15082142Y58458629D02*
X15153570Y58387200D01*
X15153570Y58387200D02*
X15367856Y58315772D01*
X15367856Y58315772D02*
X15510713Y58315772D01*
X15510713Y58315772D02*
X15724999Y58387200D01*
X15724999Y58387200D02*
X15867856Y58530058D01*
X15867856Y58530058D02*
X15939285Y58672915D01*
X15939285Y58672915D02*
X16010713Y58958629D01*
X16010713Y58958629D02*
X16010713Y59172915D01*
X16010713Y59172915D02*
X15939285Y59458629D01*
X15939285Y59458629D02*
X15867856Y59601486D01*
X15867856Y59601486D02*
X15724999Y59744343D01*
X15724999Y59744343D02*
X15510713Y59815772D01*
X15510713Y59815772D02*
X15367856Y59815772D01*
X15367856Y59815772D02*
X15153570Y59744343D01*
X15153570Y59744343D02*
X15082142Y59672915D01*
X14439285Y58315772D02*
X14439285Y59815772D01*
X13582142Y58315772D02*
X14224999Y59172915D01*
X13582142Y59815772D02*
X14439285Y58958629D01*
X29582140Y57385772D02*
X29082140Y55885772D01*
X29082140Y55885772D02*
X28582140Y57385772D01*
X28153569Y57242915D02*
X28082141Y57314343D01*
X28082141Y57314343D02*
X27939284Y57385772D01*
X27939284Y57385772D02*
X27582141Y57385772D01*
X27582141Y57385772D02*
X27439284Y57314343D01*
X27439284Y57314343D02*
X27367855Y57242915D01*
X27367855Y57242915D02*
X27296426Y57100058D01*
X27296426Y57100058D02*
X27296426Y56957200D01*
X27296426Y56957200D02*
X27367855Y56742915D01*
X27367855Y56742915D02*
X28224998Y55885772D01*
X28224998Y55885772D02*
X27296426Y55885772D01*
X26653570Y56028629D02*
X26582141Y55957200D01*
X26582141Y55957200D02*
X26653570Y55885772D01*
X26653570Y55885772D02*
X26724998Y55957200D01*
X26724998Y55957200D02*
X26653570Y56028629D01*
X26653570Y56028629D02*
X26653570Y55885772D01*
X25653569Y57385772D02*
X25510712Y57385772D01*
X25510712Y57385772D02*
X25367855Y57314343D01*
X25367855Y57314343D02*
X25296427Y57242915D01*
X25296427Y57242915D02*
X25224998Y57100058D01*
X25224998Y57100058D02*
X25153569Y56814343D01*
X25153569Y56814343D02*
X25153569Y56457200D01*
X25153569Y56457200D02*
X25224998Y56171486D01*
X25224998Y56171486D02*
X25296427Y56028629D01*
X25296427Y56028629D02*
X25367855Y55957200D01*
X25367855Y55957200D02*
X25510712Y55885772D01*
X25510712Y55885772D02*
X25653569Y55885772D01*
X25653569Y55885772D02*
X25796427Y55957200D01*
X25796427Y55957200D02*
X25867855Y56028629D01*
X25867855Y56028629D02*
X25939284Y56171486D01*
X25939284Y56171486D02*
X26010712Y56457200D01*
X26010712Y56457200D02*
X26010712Y56814343D01*
X26010712Y56814343D02*
X25939284Y57100058D01*
X25939284Y57100058D02*
X25867855Y57242915D01*
X25867855Y57242915D02*
X25796427Y57314343D01*
X25796427Y57314343D02*
X25653569Y57385772D01*
X22296427Y57242915D02*
X22224999Y57314343D01*
X22224999Y57314343D02*
X22082142Y57385772D01*
X22082142Y57385772D02*
X21724999Y57385772D01*
X21724999Y57385772D02*
X21582142Y57314343D01*
X21582142Y57314343D02*
X21510713Y57242915D01*
X21510713Y57242915D02*
X21439284Y57100058D01*
X21439284Y57100058D02*
X21439284Y56957200D01*
X21439284Y56957200D02*
X21510713Y56742915D01*
X21510713Y56742915D02*
X22367856Y55885772D01*
X22367856Y55885772D02*
X21439284Y55885772D01*
X20510713Y57385772D02*
X20367856Y57385772D01*
X20367856Y57385772D02*
X20224999Y57314343D01*
X20224999Y57314343D02*
X20153571Y57242915D01*
X20153571Y57242915D02*
X20082142Y57100058D01*
X20082142Y57100058D02*
X20010713Y56814343D01*
X20010713Y56814343D02*
X20010713Y56457200D01*
X20010713Y56457200D02*
X20082142Y56171486D01*
X20082142Y56171486D02*
X20153571Y56028629D01*
X20153571Y56028629D02*
X20224999Y55957200D01*
X20224999Y55957200D02*
X20367856Y55885772D01*
X20367856Y55885772D02*
X20510713Y55885772D01*
X20510713Y55885772D02*
X20653571Y55957200D01*
X20653571Y55957200D02*
X20724999Y56028629D01*
X20724999Y56028629D02*
X20796428Y56171486D01*
X20796428Y56171486D02*
X20867856Y56457200D01*
X20867856Y56457200D02*
X20867856Y56814343D01*
X20867856Y56814343D02*
X20796428Y57100058D01*
X20796428Y57100058D02*
X20724999Y57242915D01*
X20724999Y57242915D02*
X20653571Y57314343D01*
X20653571Y57314343D02*
X20510713Y57385772D01*
X19439285Y57242915D02*
X19367857Y57314343D01*
X19367857Y57314343D02*
X19225000Y57385772D01*
X19225000Y57385772D02*
X18867857Y57385772D01*
X18867857Y57385772D02*
X18725000Y57314343D01*
X18725000Y57314343D02*
X18653571Y57242915D01*
X18653571Y57242915D02*
X18582142Y57100058D01*
X18582142Y57100058D02*
X18582142Y56957200D01*
X18582142Y56957200D02*
X18653571Y56742915D01*
X18653571Y56742915D02*
X19510714Y55885772D01*
X19510714Y55885772D02*
X18582142Y55885772D01*
X18082143Y57385772D02*
X17153571Y57385772D01*
X17153571Y57385772D02*
X17653571Y56814343D01*
X17653571Y56814343D02*
X17439286Y56814343D01*
X17439286Y56814343D02*
X17296429Y56742915D01*
X17296429Y56742915D02*
X17225000Y56671486D01*
X17225000Y56671486D02*
X17153571Y56528629D01*
X17153571Y56528629D02*
X17153571Y56171486D01*
X17153571Y56171486D02*
X17225000Y56028629D01*
X17225000Y56028629D02*
X17296429Y55957200D01*
X17296429Y55957200D02*
X17439286Y55885772D01*
X17439286Y55885772D02*
X17867857Y55885772D01*
X17867857Y55885772D02*
X18010714Y55957200D01*
X18010714Y55957200D02*
X18082143Y56028629D01*
X16510715Y56028629D02*
X16439286Y55957200D01*
X16439286Y55957200D02*
X16510715Y55885772D01*
X16510715Y55885772D02*
X16582143Y55957200D01*
X16582143Y55957200D02*
X16510715Y56028629D01*
X16510715Y56028629D02*
X16510715Y55885772D01*
X15725000Y55885772D02*
X15439286Y55885772D01*
X15439286Y55885772D02*
X15296429Y55957200D01*
X15296429Y55957200D02*
X15225000Y56028629D01*
X15225000Y56028629D02*
X15082143Y56242915D01*
X15082143Y56242915D02*
X15010714Y56528629D01*
X15010714Y56528629D02*
X15010714Y57100058D01*
X15010714Y57100058D02*
X15082143Y57242915D01*
X15082143Y57242915D02*
X15153572Y57314343D01*
X15153572Y57314343D02*
X15296429Y57385772D01*
X15296429Y57385772D02*
X15582143Y57385772D01*
X15582143Y57385772D02*
X15725000Y57314343D01*
X15725000Y57314343D02*
X15796429Y57242915D01*
X15796429Y57242915D02*
X15867857Y57100058D01*
X15867857Y57100058D02*
X15867857Y56742915D01*
X15867857Y56742915D02*
X15796429Y56600058D01*
X15796429Y56600058D02*
X15725000Y56528629D01*
X15725000Y56528629D02*
X15582143Y56457200D01*
X15582143Y56457200D02*
X15296429Y56457200D01*
X15296429Y56457200D02*
X15153572Y56528629D01*
X15153572Y56528629D02*
X15082143Y56600058D01*
X15082143Y56600058D02*
X15010714Y56742915D01*
%TO.C,G\u002A\u002A\u002A*%
G36*
X28230945Y53431094D02*
G01*
X28278990Y53341287D01*
X28297581Y53256474D01*
X28366778Y53125263D01*
X28389497Y53093784D01*
X28445991Y52960539D01*
X28399999Y52855309D01*
X28244630Y52757335D01*
X28135004Y52697895D01*
X28067217Y52622676D01*
X28070169Y52524181D01*
X28078358Y52450105D01*
X28030976Y52394348D01*
X27904639Y52413226D01*
X27693515Y52506465D01*
X27654211Y52526802D01*
X27493039Y52624049D01*
X27441094Y52695724D01*
X27497174Y52752586D01*
X27660075Y52805394D01*
X27813452Y52849015D01*
X27905599Y52900413D01*
X27900673Y52965920D01*
X27808926Y53063292D01*
X27712615Y53178670D01*
X27711656Y53283713D01*
X27823558Y53372960D01*
X27927210Y53417962D01*
X28106194Y53457173D01*
X28230945Y53431094D01*
G37*
G36*
X17681890Y51085510D02*
G01*
X17629139Y50989191D01*
X17485186Y50789570D01*
X17336714Y50650003D01*
X17327773Y50644015D01*
X17155287Y50551341D01*
X16997610Y50529494D01*
X16820968Y50581145D01*
X16591587Y50708969D01*
X16553090Y50733299D01*
X16354001Y50875038D01*
X16198185Y51027303D01*
X16056844Y51222856D01*
X15901179Y51494463D01*
X15900390Y51496130D01*
X16513535Y51496130D01*
X16520337Y51457355D01*
X16583484Y51325736D01*
X16688070Y51178175D01*
X16803475Y51060660D01*
X16873049Y51016007D01*
X16993977Y50995426D01*
X17073753Y51052535D01*
X17102093Y51162699D01*
X17068714Y51301280D01*
X16963334Y51443643D01*
X16943686Y51460775D01*
X16811948Y51534956D01*
X16671253Y51568503D01*
X16559237Y51557025D01*
X16513535Y51496130D01*
X15900390Y51496130D01*
X15811690Y51683479D01*
X15776769Y51848685D01*
X15824264Y51960936D01*
X15956019Y52038519D01*
X16098840Y52064592D01*
X16349409Y52037156D01*
X16635357Y51944619D01*
X16928665Y51796770D01*
X17201313Y51603400D01*
X17233960Y51577015D01*
X17366217Y51489260D01*
X17461315Y51453845D01*
X17524801Y51467256D01*
X17635258Y51549990D01*
X17684041Y51664816D01*
X17647819Y51733678D01*
X17543528Y51872152D01*
X17385072Y52063527D01*
X17186395Y52292061D01*
X16961440Y52542015D01*
X16724150Y52797648D01*
X16488470Y53043220D01*
X16268341Y53262989D01*
X15858956Y53660384D01*
X16082529Y53844672D01*
X16160487Y53905958D01*
X16290355Y53994260D01*
X16369186Y54028960D01*
X16390495Y54024437D01*
X16495414Y53971302D01*
X16633846Y53877580D01*
X16694070Y53834094D01*
X16819065Y53767774D01*
X16956389Y53746941D01*
X17157313Y53760086D01*
X17282750Y53774835D01*
X17478117Y53803612D01*
X17610885Y53830504D01*
X17679648Y53842734D01*
X17735969Y53817629D01*
X17719723Y53746339D01*
X17643967Y53644780D01*
X17521757Y53528869D01*
X17366149Y53414523D01*
X17190200Y53317658D01*
X17087753Y53255138D01*
X17040263Y53190986D01*
X17059514Y53134175D01*
X17148978Y52994608D01*
X17298470Y52802692D01*
X17493686Y52575564D01*
X17720322Y52330363D01*
X17964073Y52084226D01*
X17983684Y52065180D01*
X18201193Y51861608D01*
X18357401Y51734445D01*
X18467165Y51673018D01*
X18545341Y51666653D01*
X18644211Y51663895D01*
X18759915Y51562909D01*
X18772286Y51544686D01*
X18846473Y51359042D01*
X18813784Y51175986D01*
X18671523Y50977668D01*
X18488498Y50781738D01*
X18217952Y51088550D01*
X18211793Y51095517D01*
X18069926Y51246340D01*
X17954106Y51352681D01*
X17888880Y51391908D01*
X17849756Y51361441D01*
X17771605Y51250002D01*
X17723989Y51162699D01*
X17681890Y51085510D01*
G37*
G36*
X15143567Y53032210D02*
G01*
X15198096Y52950679D01*
X15326329Y52828380D01*
X15429801Y52740707D01*
X15591913Y52650117D01*
X15766221Y52624631D01*
X15886424Y52617946D01*
X15977271Y52576629D01*
X16021489Y52477278D01*
X16033566Y52410715D01*
X16006671Y52260886D01*
X15892493Y52180630D01*
X15698163Y52172806D01*
X15430816Y52240279D01*
X15387629Y52254492D01*
X15231489Y52286344D01*
X15143070Y52270615D01*
X15141884Y52269434D01*
X15112225Y52163454D01*
X15134995Y51981654D01*
X15200705Y51746973D01*
X15299864Y51482350D01*
X15422983Y51210723D01*
X15560570Y50955030D01*
X15703136Y50738211D01*
X15841190Y50583203D01*
X15964069Y50459096D01*
X15988758Y50386542D01*
X15910312Y50369155D01*
X15728439Y50406478D01*
X15521935Y50491412D01*
X15250604Y50707058D01*
X15013390Y51032583D01*
X14809703Y51468859D01*
X14638954Y52016756D01*
X14624300Y52072310D01*
X14559847Y52283905D01*
X14497853Y52443283D01*
X14449965Y52519463D01*
X14443948Y52522992D01*
X14331545Y52549408D01*
X14172521Y52551838D01*
X13967682Y52536564D01*
X13967682Y51541633D01*
X13971976Y51147111D01*
X13987202Y50743572D01*
X14012380Y50419023D01*
X14046407Y50192365D01*
X14075404Y50053169D01*
X14095727Y49886313D01*
X14080904Y49754379D01*
X14029543Y49609253D01*
X14011184Y49567229D01*
X13922932Y49397457D01*
X13839329Y49275918D01*
X13727358Y49195428D01*
X13590961Y49177652D01*
X13488302Y49244513D01*
X13487501Y49245979D01*
X13475138Y49328532D01*
X13464022Y49511287D01*
X13454599Y49778382D01*
X13447316Y50113959D01*
X13442619Y50502157D01*
X13440954Y50927117D01*
X13440954Y52536564D01*
X12914226Y52536564D01*
X12680389Y52537979D01*
X12517272Y52546145D01*
X12426517Y52566624D01*
X12384849Y52604973D01*
X12368992Y52666750D01*
X12367335Y52698823D01*
X12425568Y52829889D01*
X12576074Y52936230D01*
X12799169Y53007614D01*
X13075170Y53033810D01*
X13411691Y53034029D01*
X13411691Y53207735D01*
X13938154Y53207735D01*
X13956555Y53077522D01*
X14011576Y53007748D01*
X14016536Y53006227D01*
X14235227Y52959900D01*
X14431153Y52953465D01*
X14581280Y52982536D01*
X14662575Y53042730D01*
X14652007Y53129662D01*
X14578269Y53204832D01*
X14436659Y53303339D01*
X14272061Y53393597D01*
X14123184Y53454724D01*
X14028740Y53465843D01*
X14003704Y53449077D01*
X13954496Y53348287D01*
X13938154Y53207735D01*
X13411691Y53207735D01*
X13411691Y53225846D01*
X13437110Y53394672D01*
X13502870Y53547838D01*
X13543454Y53613841D01*
X13559846Y53711170D01*
X13488970Y53795248D01*
X13318315Y53889221D01*
X13216815Y53943917D01*
X13139456Y54026175D01*
X13130594Y54139520D01*
X13138616Y54194573D01*
X13165121Y54250000D01*
X13231609Y54278411D01*
X13363764Y54288127D01*
X13587267Y54287468D01*
X13837730Y54282310D01*
X14093807Y54272887D01*
X14289571Y54261402D01*
X14331785Y54258770D01*
X14574329Y54262051D01*
X14801668Y54288369D01*
X14868303Y54299522D01*
X14998653Y54306980D01*
X15048591Y54285173D01*
X15044945Y54270680D01*
X14974668Y54187260D01*
X14839440Y54079519D01*
X14671463Y53969090D01*
X14502938Y53877603D01*
X14366068Y53826691D01*
X14327962Y53817771D01*
X14229975Y53773754D01*
X14221321Y53707206D01*
X14305987Y53606081D01*
X14487957Y53458338D01*
X14505733Y53444964D01*
X14678976Y53325616D01*
X14802161Y53279151D01*
X14909840Y53301066D01*
X15036565Y53386860D01*
X15142179Y53452514D01*
X15232959Y53456014D01*
X15255707Y53373136D01*
X15199628Y53215240D01*
X15150181Y53111322D01*
X15144447Y53042730D01*
X15143567Y53032210D01*
G37*
G36*
X23240914Y50565480D02*
G01*
X23430660Y50524091D01*
X23731478Y50457912D01*
X24037780Y50380619D01*
X24374717Y50283338D01*
X24556908Y50242428D01*
X24730747Y50224813D01*
X24765580Y50223915D01*
X24860580Y50196953D01*
X24847587Y50134524D01*
X24728600Y50039385D01*
X24505620Y49914295D01*
X24235917Y49803547D01*
X23921771Y49748204D01*
X23578479Y49770863D01*
X23176117Y49870539D01*
X23099758Y49892382D01*
X22829766Y49952736D01*
X22515532Y50005536D01*
X22210449Y50041340D01*
X21920590Y50060915D01*
X21653062Y50060633D01*
X21392577Y50033542D01*
X21081845Y49976342D01*
X20977998Y49953575D01*
X20691592Y49879542D01*
X20427885Y49797156D01*
X20233228Y49720396D01*
X20160253Y49689153D01*
X19937977Y49626115D01*
X19712390Y49598287D01*
X19520826Y49608412D01*
X19400619Y49659233D01*
X19389520Y49675116D01*
X19389910Y49784055D01*
X19451877Y49943511D01*
X19558629Y50127284D01*
X19693371Y50309176D01*
X19839309Y50462987D01*
X19979648Y50562520D01*
X20008271Y50573177D01*
X20169717Y50603879D01*
X20436391Y50631469D01*
X20799412Y50655169D01*
X21249900Y50674197D01*
X21593023Y50688094D01*
X21908275Y50706183D01*
X22152402Y50726265D01*
X22310102Y50747066D01*
X22366069Y50767308D01*
X22351050Y50800613D01*
X22280126Y50907120D01*
X22171056Y51054940D01*
X22046278Y51214830D01*
X21928228Y51357546D01*
X21839341Y51453845D01*
X21801621Y51494933D01*
X21703155Y51612216D01*
X21576827Y51768088D01*
X21448297Y51930391D01*
X21403647Y51988430D01*
X21644540Y51988430D01*
X21688325Y51906347D01*
X21792025Y51758346D01*
X21942741Y51562115D01*
X22127575Y51335339D01*
X22137437Y51323556D01*
X22400654Y51013117D01*
X22597312Y50790502D01*
X22732045Y50650899D01*
X22809488Y50589498D01*
X22834272Y50601485D01*
X22822354Y50636389D01*
X22766931Y50759042D01*
X22676608Y50945182D01*
X22562822Y51170823D01*
X22516323Y51262252D01*
X22410342Y51482268D01*
X22355048Y51625235D01*
X22344465Y51709456D01*
X22372615Y51753234D01*
X22435691Y51777550D01*
X22571394Y51778752D01*
X22648108Y51771849D01*
X22768970Y51800809D01*
X22781318Y51809795D01*
X22801303Y51865728D01*
X22761902Y51966564D01*
X22655438Y52134894D01*
X22642479Y52153889D01*
X22476626Y52387353D01*
X22317495Y52595770D01*
X22179909Y52761238D01*
X22078696Y52865857D01*
X22028679Y52891723D01*
X22027679Y52890302D01*
X22036878Y52819403D01*
X22082003Y52672697D01*
X22153997Y52479944D01*
X22157074Y52472246D01*
X22232994Y52273340D01*
X22286988Y52115303D01*
X22307544Y52031739D01*
X22296032Y52010112D01*
X22196823Y51991124D01*
X21991277Y52006601D01*
X21863069Y52018258D01*
X21714872Y52017662D01*
X21644814Y51997258D01*
X21644540Y51988430D01*
X21403647Y51988430D01*
X21343229Y52066965D01*
X21287283Y52145654D01*
X21279183Y52175578D01*
X21320617Y52198216D01*
X21440611Y52199744D01*
X21657755Y52181986D01*
X21872556Y52167697D01*
X22019397Y52172117D01*
X22073442Y52194728D01*
X22073238Y52201284D01*
X22046437Y52321619D01*
X21986309Y52498801D01*
X21909631Y52690603D01*
X21833180Y52854794D01*
X21773733Y52949144D01*
X21728565Y52976346D01*
X21580921Y53030939D01*
X21365475Y53091884D01*
X21111283Y53150358D01*
X20941190Y53186326D01*
X20723020Y53235777D01*
X20568171Y53275085D01*
X20502402Y53298004D01*
X20496033Y53364310D01*
X20548328Y53481912D01*
X20640896Y53609306D01*
X20750856Y53708674D01*
X20776607Y53726004D01*
X20815983Y53750670D01*
X20860528Y53767783D01*
X20924126Y53776545D01*
X21020656Y53776157D01*
X21163999Y53765820D01*
X21368036Y53744736D01*
X21646648Y53712106D01*
X22013715Y53667132D01*
X22483120Y53609015D01*
X22673451Y53590266D01*
X22998415Y53569960D01*
X23355570Y53557549D01*
X23696097Y53555200D01*
X23939101Y53556523D01*
X24167748Y53552404D01*
X24307201Y53540132D01*
X24373222Y53518085D01*
X24381574Y53484641D01*
X24331546Y53420146D01*
X24170301Y53319901D01*
X23918454Y53218459D01*
X23591434Y53121707D01*
X23204670Y53035534D01*
X22976967Y52991458D01*
X22712596Y52937990D01*
X22535996Y52897634D01*
X22430538Y52865927D01*
X22379597Y52838408D01*
X22366545Y52810615D01*
X22389697Y52765986D01*
X22470409Y52643617D01*
X22595335Y52465862D01*
X22750155Y52253520D01*
X22878613Y52074315D01*
X23005054Y51883089D01*
X23086952Y51740637D01*
X23110788Y51668876D01*
X23107775Y51662414D01*
X23027054Y51624130D01*
X22873380Y51619893D01*
X22775267Y51622579D01*
X22657274Y51587828D01*
X22619138Y51493017D01*
X22659004Y51328017D01*
X22775018Y51082696D01*
X22833235Y50973104D01*
X22935780Y50789458D01*
X23020134Y50675449D01*
X23112959Y50608361D01*
X23133477Y50601485D01*
X23240914Y50565480D01*
G37*
G36*
X31320666Y52924034D02*
G01*
X31291543Y52632254D01*
X31199149Y52427406D01*
X31099531Y52329347D01*
X30945305Y52273589D01*
X30798840Y52323112D01*
X30674084Y52471451D01*
X30584983Y52712140D01*
X30512403Y52900527D01*
X30402330Y53039461D01*
X30280538Y53092555D01*
X30234478Y53075086D01*
X30217348Y52996484D01*
X30234467Y52830536D01*
X30241770Y52761924D01*
X30229710Y52543006D01*
X30172884Y52348578D01*
X30083227Y52209379D01*
X29972669Y52156149D01*
X29896013Y52187756D01*
X29765894Y52288409D01*
X29621090Y52434144D01*
X29608866Y52447936D01*
X29478531Y52589724D01*
X29399791Y52654343D01*
X29350586Y52653407D01*
X29308858Y52598529D01*
X29225067Y52479997D01*
X29108406Y52344427D01*
X29063428Y52294506D01*
X29012127Y52199540D01*
X29042415Y52121517D01*
X29093389Y52079355D01*
X29223607Y52039098D01*
X29224537Y52039097D01*
X29414815Y51993535D01*
X29610541Y51878967D01*
X29757788Y51726908D01*
X29782591Y51686211D01*
X29819370Y51575905D01*
X29774678Y51540042D01*
X29657146Y51590334D01*
X29562820Y51641881D01*
X29410221Y51700416D01*
X29363609Y51709821D01*
X29231609Y51696749D01*
X29224241Y51687946D01*
X29172187Y51625755D01*
X29184552Y51523086D01*
X29267910Y51414988D01*
X29421470Y51327705D01*
X29452223Y51316060D01*
X29573905Y51257004D01*
X29623212Y51209823D01*
X29645310Y51178325D01*
X29714301Y51200920D01*
X29796234Y51269815D01*
X29855721Y51361869D01*
X29871941Y51393296D01*
X29961752Y51498965D01*
X30093033Y51613797D01*
X30234731Y51714802D01*
X30355792Y51778994D01*
X30425161Y51783386D01*
X30431725Y51772605D01*
X30433796Y51669362D01*
X30400414Y51494829D01*
X30339632Y51278590D01*
X30259508Y51050229D01*
X30250820Y51030184D01*
X30168095Y50839329D01*
X30106756Y50721093D01*
X29922685Y50447947D01*
X29723179Y50276109D01*
X29496011Y50193835D01*
X29454276Y50185855D01*
X29300995Y50140134D01*
X29211451Y50087485D01*
X29200371Y50073772D01*
X29118391Y49971769D01*
X29010258Y49836758D01*
X28926208Y49744753D01*
X28706894Y49586951D01*
X28411020Y49466504D01*
X28019134Y49374336D01*
X27930722Y49360099D01*
X27648148Y49327799D01*
X27323936Y49304221D01*
X27012095Y49293689D01*
X26823371Y49293086D01*
X26603415Y49299255D01*
X26455509Y49317898D01*
X26352166Y49353290D01*
X26265897Y49409706D01*
X26180399Y49494299D01*
X26119772Y49634562D01*
X26132015Y49813139D01*
X26219131Y50046088D01*
X26383123Y50349463D01*
X26399497Y50377168D01*
X26554617Y50634138D01*
X26662238Y50792738D01*
X26731145Y50856487D01*
X26770119Y50828902D01*
X26787945Y50713502D01*
X26793404Y50513805D01*
X26803841Y50278181D01*
X26837016Y50103683D01*
X26898037Y49994851D01*
X26928579Y49966542D01*
X27104364Y49882592D01*
X27350783Y49835664D01*
X27635970Y49825411D01*
X27928056Y49851488D01*
X28195172Y49913548D01*
X28405453Y50011243D01*
X28471837Y50058160D01*
X28596370Y50176769D01*
X28609673Y50268743D01*
X28509874Y50340665D01*
X28295099Y50399118D01*
X28244875Y50409298D01*
X27926949Y50492799D01*
X27698018Y50599045D01*
X27533435Y50743071D01*
X27512967Y50775333D01*
X29282641Y50775333D01*
X29284228Y50757608D01*
X29322784Y50593484D01*
X29399793Y50529027D01*
X29492725Y50550449D01*
X29579750Y50675641D01*
X29650201Y50912485D01*
X29669182Y51030184D01*
X29644889Y51090028D01*
X29554705Y51101797D01*
X29531216Y51101345D01*
X29369993Y51066657D01*
X29292192Y50964055D01*
X29282641Y50775333D01*
X27512967Y50775333D01*
X27408558Y50939908D01*
X27340080Y51089278D01*
X27244527Y51401978D01*
X27245973Y51651160D01*
X27277481Y51711046D01*
X27853130Y51711046D01*
X27864167Y51545382D01*
X27916606Y51345163D01*
X27998671Y51144512D01*
X28098587Y50977557D01*
X28204578Y50878422D01*
X28258867Y50853231D01*
X28420404Y50799957D01*
X28565490Y50776473D01*
X28648855Y50791623D01*
X28685045Y50871085D01*
X28643769Y51003513D01*
X28506699Y51186701D01*
X28433496Y51276830D01*
X28370754Y51405979D01*
X28407665Y51498357D01*
X28546178Y51573057D01*
X28638446Y51623302D01*
X28686806Y51687946D01*
X28646715Y51750024D01*
X28522148Y51808237D01*
X28347957Y51847438D01*
X28160017Y51862582D01*
X27994201Y51848624D01*
X27886384Y51800519D01*
X27853130Y51711046D01*
X27277481Y51711046D01*
X27344327Y51838095D01*
X27344885Y51838689D01*
X27572021Y52022351D01*
X27851609Y52134425D01*
X28210291Y52185601D01*
X28390390Y52200558D01*
X28545983Y52222617D01*
X28619969Y52245382D01*
X28627285Y52259683D01*
X28641328Y52368488D01*
X28644780Y52551766D01*
X28639209Y52778111D01*
X28626183Y53016118D01*
X28620827Y53077923D01*
X29176002Y53077923D01*
X29176122Y52985698D01*
X29190296Y52852340D01*
X29218059Y52799928D01*
X29238937Y52812204D01*
X29234699Y52887716D01*
X29231708Y52938215D01*
X29292606Y52972734D01*
X29403698Y52955212D01*
X29531979Y52885855D01*
X29538922Y52880610D01*
X29629297Y52820835D01*
X29702061Y52814447D01*
X29790766Y52871146D01*
X29928965Y53000631D01*
X30135623Y53201335D01*
X29968741Y53270460D01*
X29899824Y53292800D01*
X29707102Y53329600D01*
X29493066Y53347751D01*
X29184272Y53355919D01*
X29176002Y53077923D01*
X28620827Y53077923D01*
X28607269Y53234380D01*
X28584035Y53401494D01*
X28558047Y53486052D01*
X28547969Y53497802D01*
X28513200Y53526621D01*
X28455323Y53551116D01*
X28355754Y53575224D01*
X28195905Y53602884D01*
X27957191Y53638035D01*
X27621025Y53684615D01*
X27382499Y53714161D01*
X27202350Y53725702D01*
X27090155Y53714290D01*
X27021140Y53679722D01*
X26986595Y53649622D01*
X26939676Y53579739D01*
X26976584Y53510972D01*
X27106622Y53414444D01*
X27125469Y53401593D01*
X27253419Y53283082D01*
X27267618Y53182341D01*
X27168995Y53094614D01*
X26954672Y53039616D01*
X26651120Y53058883D01*
X26263482Y53153644D01*
X26182091Y53178982D01*
X26014435Y53236435D01*
X25932312Y53282412D01*
X25915712Y53332522D01*
X25944623Y53402376D01*
X25989451Y53475923D01*
X26197849Y53697512D01*
X26482891Y53883912D01*
X26813995Y54013622D01*
X26837955Y54018660D01*
X26995261Y54028959D01*
X27230058Y54025786D01*
X27511718Y54011430D01*
X27809613Y53988182D01*
X28093113Y53958331D01*
X28331591Y53924168D01*
X28494418Y53887983D01*
X28573689Y53886471D01*
X28677807Y53977772D01*
X28719323Y54064683D01*
X28702619Y54134554D01*
X28603908Y54192746D01*
X28406723Y54256170D01*
X28252847Y54302028D01*
X27941335Y54415623D01*
X27740715Y54528376D01*
X27646710Y54644585D01*
X27655043Y54768547D01*
X27761437Y54904560D01*
X27790366Y54928961D01*
X27995121Y55012066D01*
X28270724Y55004685D01*
X28614278Y54906811D01*
X28717284Y54872366D01*
X29068829Y54803875D01*
X29450537Y54787065D01*
X29817326Y54821892D01*
X30124109Y54908311D01*
X30228116Y54950519D01*
X30361803Y54995773D01*
X30423881Y55003560D01*
X30426730Y54997250D01*
X30389193Y54930300D01*
X30281917Y54815821D01*
X30125555Y54671456D01*
X29940760Y54514846D01*
X29748184Y54363635D01*
X29568481Y54235464D01*
X29422302Y54147975D01*
X29288632Y54050179D01*
X29242797Y53917042D01*
X29253407Y53841060D01*
X29303296Y53787154D01*
X29417927Y53744469D01*
X29622753Y53698356D01*
X29812331Y53657029D01*
X30024725Y53604785D01*
X30172845Y53561542D01*
X30340666Y53521247D01*
X30537973Y53502232D01*
X30612098Y53505195D01*
X30718378Y53542779D01*
X30768318Y53643094D01*
X30775371Y53755296D01*
X30733869Y53914384D01*
X30695793Y53995572D01*
X30717716Y54025775D01*
X30831312Y54005128D01*
X30861325Y53997206D01*
X31041313Y53899562D01*
X31169449Y53718956D01*
X31257216Y53440153D01*
X31285831Y53290764D01*
X31294326Y53201335D01*
X31320666Y52924034D01*
G37*
%TD*%
M02*
