M48
; DRILL file {KiCad 7.0.2} date Sat Sep 30 04:37:59 2023
; FORMAT={-:-/ absolute / metric / decimal}
; #@! TF.CreationDate,2023-09-30T04:37:59+09:00
; #@! TF.GenerationSoftware,Kicad,Pcbnew,7.0.2
; #@! TF.FileFunction,Plated,1,2,PTH
FMAT,2
METRIC
; #@! TA.AperFunction,Plated,PTH,ViaDrill
T1C0.400
; #@! TA.AperFunction,Plated,PTH,ComponentDrill
T2C0.800
; #@! TA.AperFunction,Plated,PTH,ComponentDrill
T3C0.990
; #@! TA.AperFunction,Plated,PTH,ComponentDrill
T4C1.000
; #@! TA.AperFunction,Plated,PTH,ComponentDrill
T5C1.200
; #@! TA.AperFunction,Plated,PTH,ComponentDrill
T6C1.300
%
G90
G05
T1
X2.921Y11.506
X3.175Y48.336
X8.509Y46.304
X8.763Y33.731
X8.763Y28.651
X8.763Y23.571
X8.763Y18.491
X11.176Y32.207
X19.685Y2.108
X22.225Y47.955
X22.225Y41.097
X22.225Y34.874
X32.405Y35.89
X33.147Y14.681
X33.147Y12.268
X33.147Y9.601
X33.147Y7.061
X33.147Y4.521
X33.147Y2.108
X33.274Y29.921
X36.83Y44.145
X36.83Y41.097
X36.957Y14.554
X36.957Y12.141
X36.957Y9.601
X36.957Y7.061
X37.211Y33.731
X37.211Y31.191
X37.211Y28.651
X37.338Y57.988
X37.338Y48.971
X37.592Y38.811
X38.354Y36.525
X38.354Y30.937
X42.926Y16.967
X43.324Y41.885
X43.434Y24.206
X43.561Y14.3
X43.561Y9.855
X44.958Y4.267
X45.847Y9.855
X47.117Y38.938
X48.387Y48.209
X48.387Y24.206
X49.022Y26.238
X49.022Y6.299
X49.784Y28.016
X50.546Y29.921
X50.673Y3.251
X50.927Y6.045
X51.054Y8.585
X53.34Y47.574
X55.118Y28.905
X55.245Y36.906
X55.88Y46.812
X56.134Y34.366
X57.023Y31.953
X58.166Y46.05
X58.801Y16.459
X59.055Y38.176
X60.833Y51.765
X60.833Y33.35
X60.833Y16.459
X61.214Y8.712
X64.389Y21.92
X65.024Y3.378
X66.294Y19.126
X66.548Y12.014
X66.675Y6.68
X68.453Y0.965
X68.834Y46.05
X68.834Y9.855
X68.834Y5.41
X70.485Y38.176
X70.993Y45.288
X72.009Y32.461
X73.533Y44.526
X74.93Y44.399
X74.93Y41.859
X74.93Y30.048
X76.454Y28.397
X76.454Y9.728
X76.581Y31.572
X77.47Y44.399
X77.47Y41.859
X78.105Y30.048
X78.74Y44.526
X78.867Y1.473
X79.883Y23.19
X80.772Y20.523
X81.153Y43.764
X82.423Y38.049
X82.55Y44.399
X82.55Y41.899
X83.82Y43.764
X85.09Y44.399
X85.09Y41.859
X85.725Y38.684
X86.233Y41.605
X86.614Y43.764
X89.662Y12.649
X92.075Y51.892
X92.837Y37.414
X95.885Y21.285
X95.885Y1.092
X97.917Y3.251
X98.044Y57.734
X98.044Y42.367
X98.044Y27.889
X98.044Y17.348
T2
X2.54Y62.306
X5.08Y58.496
X5.08Y48.336
X5.08Y45.161
X5.08Y40.161
X5.08Y36.271
X5.08Y26.111
X5.08Y22.936
X5.08Y12.776
X8.89Y67.486
X9.525Y47.701
X9.525Y45.161
X9.525Y42.621
X9.525Y40.081
X9.525Y37.541
X9.525Y35.001
X9.525Y32.461
X9.525Y29.921
X9.525Y27.381
X9.525Y24.841
X9.525Y22.301
X9.525Y19.761
X9.525Y17.221
X9.525Y14.681
X9.525Y12.141
X9.525Y9.601
X9.525Y7.061
X9.525Y4.521
X9.525Y1.981
X12.7Y62.306
X13.97Y67.486
X16.51Y67.486
X19.05Y67.486
X21.59Y67.486
X24.13Y67.486
X26.67Y67.486
X29.21Y67.486
X31.75Y67.486
X34.921Y4.524
X34.921Y1.984
X34.925Y47.701
X34.925Y45.161
X34.925Y42.621
X34.925Y40.081
X34.925Y37.541
X34.925Y35.001
X34.925Y32.461
X34.925Y29.921
X34.925Y27.381
X34.925Y24.841
X34.925Y22.301
X34.925Y19.761
X34.925Y17.221
X34.925Y14.681
X34.925Y12.141
X34.925Y9.601
X34.925Y7.061
X36.83Y67.486
X38.608Y13.411
X39.37Y67.486
X39.37Y57.861
X39.37Y50.241
X41.91Y57.861
X41.91Y50.241
X44.45Y57.861
X44.45Y50.241
X45.466Y40.462
X45.466Y37.922
X45.466Y35.382
X45.466Y32.842
X45.466Y30.302
X45.466Y27.762
X45.466Y25.222
X45.466Y22.682
X45.486Y19.126
X46.99Y57.861
X46.99Y50.241
X47.986Y19.126
X48.768Y13.411
X49.53Y57.861
X49.53Y50.241
X52.07Y57.861
X52.07Y50.241
X53.086Y40.462
X53.086Y37.922
X53.086Y35.382
X53.086Y32.842
X53.086Y30.302
X53.086Y27.762
X53.086Y25.222
X53.086Y22.682
X53.086Y17.983
X53.086Y15.443
X53.086Y12.903
X54.61Y57.861
X54.61Y50.241
X57.15Y57.861
X57.15Y50.241
X59.69Y67.486
X59.69Y57.861
X59.69Y50.241
X59.817Y35.509
X62.23Y67.486
X63.5Y55.448
X63.5Y52.948
X65.405Y30.342
X65.405Y27.842
X67.31Y67.486
X69.85Y67.486
X69.85Y57.861
X69.85Y50.241
X69.977Y35.509
X70.993Y19.253
X70.993Y14.253
X72.39Y67.486
X72.39Y57.861
X72.39Y50.241
X74.295Y24.333
X74.295Y21.793
X74.295Y19.253
X74.295Y16.713
X74.295Y12.903
X74.93Y67.486
X74.93Y57.861
X74.93Y50.241
X75.946Y6.406
X75.946Y3.906
X77.47Y67.486
X77.47Y57.861
X77.47Y50.241
X80.01Y67.486
X80.01Y57.861
X80.01Y50.241
X80.645Y3.886
X81.915Y24.333
X81.915Y21.793
X81.915Y19.253
X81.915Y16.713
X82.55Y67.486
X82.55Y57.861
X82.55Y50.241
X83.185Y3.886
X84.455Y12.903
X85.09Y67.486
X85.09Y57.861
X85.09Y50.241
X85.09Y29.032
X85.09Y24.333
X85.217Y19.253
X85.725Y3.886
X87.63Y57.861
X87.63Y50.241
X87.717Y19.253
X88.265Y3.886
X90.17Y67.486
X90.17Y57.861
X90.17Y50.241
X90.17Y15.443
X90.17Y10.363
X90.48Y43.383
X92.71Y12.903
X93.98Y55.448
X93.98Y52.948
X93.98Y43.383
X95.25Y29.032
X95.25Y24.333
T3
X41.855Y5.156
X46.355Y5.156
X53.92Y5.156
X58.42Y5.156
X65.985Y5.156
X70.485Y5.156
T4
X62.865Y20.443
X62.865Y15.443
T5
X83.82Y34.747
X93.98Y34.747
T6
X40.595Y7.646
X47.605Y7.646
X52.66Y7.646
X59.67Y7.646
X64.725Y7.646
X71.735Y7.646
X73.994Y32.461
X78.994Y32.461
T0
M30
