%TF.GenerationSoftware,KiCad,Pcbnew,7.0.2*%
%TF.CreationDate,2023-09-30T04:37:45+09:00*%
%TF.ProjectId,VFD_NTP_CLOCK_V2.0,5646445f-4e54-4505-9f43-4c4f434b5f56,rev?*%
%TF.SameCoordinates,PX5e78920PY6f7ffe8*%
%TF.FileFunction,Legend,Top*%
%TF.FilePolarity,Positive*%
%FSLAX46Y46*%
G04 Gerber Fmt 4.6, Leading zero omitted, Abs format (unit mm)*
G04 Created by KiCad (PCBNEW 7.0.2) date 2023-09-30 04:37:45*
%MOMM*%
%LPD*%
G01*
G04 APERTURE LIST*
%ADD10C,0.150000*%
%ADD11C,0.100000*%
%ADD12C,0.120000*%
G04 APERTURE END LIST*
D10*
%TO.C,R9*%
X64603333Y37332581D02*
X64270000Y37808772D01*
X64031905Y37332581D02*
X64031905Y38332581D01*
X64031905Y38332581D02*
X64412857Y38332581D01*
X64412857Y38332581D02*
X64508095Y38284962D01*
X64508095Y38284962D02*
X64555714Y38237343D01*
X64555714Y38237343D02*
X64603333Y38142105D01*
X64603333Y38142105D02*
X64603333Y37999248D01*
X64603333Y37999248D02*
X64555714Y37904010D01*
X64555714Y37904010D02*
X64508095Y37856391D01*
X64508095Y37856391D02*
X64412857Y37808772D01*
X64412857Y37808772D02*
X64031905Y37808772D01*
X65079524Y37332581D02*
X65270000Y37332581D01*
X65270000Y37332581D02*
X65365238Y37380200D01*
X65365238Y37380200D02*
X65412857Y37427820D01*
X65412857Y37427820D02*
X65508095Y37570677D01*
X65508095Y37570677D02*
X65555714Y37761153D01*
X65555714Y37761153D02*
X65555714Y38142105D01*
X65555714Y38142105D02*
X65508095Y38237343D01*
X65508095Y38237343D02*
X65460476Y38284962D01*
X65460476Y38284962D02*
X65365238Y38332581D01*
X65365238Y38332581D02*
X65174762Y38332581D01*
X65174762Y38332581D02*
X65079524Y38284962D01*
X65079524Y38284962D02*
X65031905Y38237343D01*
X65031905Y38237343D02*
X64984286Y38142105D01*
X64984286Y38142105D02*
X64984286Y37904010D01*
X64984286Y37904010D02*
X65031905Y37808772D01*
X65031905Y37808772D02*
X65079524Y37761153D01*
X65079524Y37761153D02*
X65174762Y37713534D01*
X65174762Y37713534D02*
X65365238Y37713534D01*
X65365238Y37713534D02*
X65460476Y37761153D01*
X65460476Y37761153D02*
X65508095Y37808772D01*
X65508095Y37808772D02*
X65555714Y37904010D01*
%TO.C,R2*%
X42505333Y10662581D02*
X42172000Y11138772D01*
X41933905Y10662581D02*
X41933905Y11662581D01*
X41933905Y11662581D02*
X42314857Y11662581D01*
X42314857Y11662581D02*
X42410095Y11614962D01*
X42410095Y11614962D02*
X42457714Y11567343D01*
X42457714Y11567343D02*
X42505333Y11472105D01*
X42505333Y11472105D02*
X42505333Y11329248D01*
X42505333Y11329248D02*
X42457714Y11234010D01*
X42457714Y11234010D02*
X42410095Y11186391D01*
X42410095Y11186391D02*
X42314857Y11138772D01*
X42314857Y11138772D02*
X41933905Y11138772D01*
X42886286Y11567343D02*
X42933905Y11614962D01*
X42933905Y11614962D02*
X43029143Y11662581D01*
X43029143Y11662581D02*
X43267238Y11662581D01*
X43267238Y11662581D02*
X43362476Y11614962D01*
X43362476Y11614962D02*
X43410095Y11567343D01*
X43410095Y11567343D02*
X43457714Y11472105D01*
X43457714Y11472105D02*
X43457714Y11376867D01*
X43457714Y11376867D02*
X43410095Y11234010D01*
X43410095Y11234010D02*
X42838667Y10662581D01*
X42838667Y10662581D02*
X43457714Y10662581D01*
%TO.C,C8*%
X93813333Y57493820D02*
X93765714Y57446200D01*
X93765714Y57446200D02*
X93622857Y57398581D01*
X93622857Y57398581D02*
X93527619Y57398581D01*
X93527619Y57398581D02*
X93384762Y57446200D01*
X93384762Y57446200D02*
X93289524Y57541439D01*
X93289524Y57541439D02*
X93241905Y57636677D01*
X93241905Y57636677D02*
X93194286Y57827153D01*
X93194286Y57827153D02*
X93194286Y57970010D01*
X93194286Y57970010D02*
X93241905Y58160486D01*
X93241905Y58160486D02*
X93289524Y58255724D01*
X93289524Y58255724D02*
X93384762Y58350962D01*
X93384762Y58350962D02*
X93527619Y58398581D01*
X93527619Y58398581D02*
X93622857Y58398581D01*
X93622857Y58398581D02*
X93765714Y58350962D01*
X93765714Y58350962D02*
X93813333Y58303343D01*
X94384762Y57970010D02*
X94289524Y58017629D01*
X94289524Y58017629D02*
X94241905Y58065248D01*
X94241905Y58065248D02*
X94194286Y58160486D01*
X94194286Y58160486D02*
X94194286Y58208105D01*
X94194286Y58208105D02*
X94241905Y58303343D01*
X94241905Y58303343D02*
X94289524Y58350962D01*
X94289524Y58350962D02*
X94384762Y58398581D01*
X94384762Y58398581D02*
X94575238Y58398581D01*
X94575238Y58398581D02*
X94670476Y58350962D01*
X94670476Y58350962D02*
X94718095Y58303343D01*
X94718095Y58303343D02*
X94765714Y58208105D01*
X94765714Y58208105D02*
X94765714Y58160486D01*
X94765714Y58160486D02*
X94718095Y58065248D01*
X94718095Y58065248D02*
X94670476Y58017629D01*
X94670476Y58017629D02*
X94575238Y57970010D01*
X94575238Y57970010D02*
X94384762Y57970010D01*
X94384762Y57970010D02*
X94289524Y57922391D01*
X94289524Y57922391D02*
X94241905Y57874772D01*
X94241905Y57874772D02*
X94194286Y57779534D01*
X94194286Y57779534D02*
X94194286Y57589058D01*
X94194286Y57589058D02*
X94241905Y57493820D01*
X94241905Y57493820D02*
X94289524Y57446200D01*
X94289524Y57446200D02*
X94384762Y57398581D01*
X94384762Y57398581D02*
X94575238Y57398581D01*
X94575238Y57398581D02*
X94670476Y57446200D01*
X94670476Y57446200D02*
X94718095Y57493820D01*
X94718095Y57493820D02*
X94765714Y57589058D01*
X94765714Y57589058D02*
X94765714Y57779534D01*
X94765714Y57779534D02*
X94718095Y57874772D01*
X94718095Y57874772D02*
X94670476Y57922391D01*
X94670476Y57922391D02*
X94575238Y57970010D01*
%TO.C,RV1*%
X91987761Y7868581D02*
X91654428Y8344772D01*
X91416333Y7868581D02*
X91416333Y8868581D01*
X91416333Y8868581D02*
X91797285Y8868581D01*
X91797285Y8868581D02*
X91892523Y8820962D01*
X91892523Y8820962D02*
X91940142Y8773343D01*
X91940142Y8773343D02*
X91987761Y8678105D01*
X91987761Y8678105D02*
X91987761Y8535248D01*
X91987761Y8535248D02*
X91940142Y8440010D01*
X91940142Y8440010D02*
X91892523Y8392391D01*
X91892523Y8392391D02*
X91797285Y8344772D01*
X91797285Y8344772D02*
X91416333Y8344772D01*
X92273476Y8868581D02*
X92606809Y7868581D01*
X92606809Y7868581D02*
X92940142Y8868581D01*
X93797285Y7868581D02*
X93225857Y7868581D01*
X93511571Y7868581D02*
X93511571Y8868581D01*
X93511571Y8868581D02*
X93416333Y8725724D01*
X93416333Y8725724D02*
X93321095Y8630486D01*
X93321095Y8630486D02*
X93225857Y8582867D01*
%TO.C,C9*%
X95845333Y46825820D02*
X95797714Y46778200D01*
X95797714Y46778200D02*
X95654857Y46730581D01*
X95654857Y46730581D02*
X95559619Y46730581D01*
X95559619Y46730581D02*
X95416762Y46778200D01*
X95416762Y46778200D02*
X95321524Y46873439D01*
X95321524Y46873439D02*
X95273905Y46968677D01*
X95273905Y46968677D02*
X95226286Y47159153D01*
X95226286Y47159153D02*
X95226286Y47302010D01*
X95226286Y47302010D02*
X95273905Y47492486D01*
X95273905Y47492486D02*
X95321524Y47587724D01*
X95321524Y47587724D02*
X95416762Y47682962D01*
X95416762Y47682962D02*
X95559619Y47730581D01*
X95559619Y47730581D02*
X95654857Y47730581D01*
X95654857Y47730581D02*
X95797714Y47682962D01*
X95797714Y47682962D02*
X95845333Y47635343D01*
X96321524Y46730581D02*
X96512000Y46730581D01*
X96512000Y46730581D02*
X96607238Y46778200D01*
X96607238Y46778200D02*
X96654857Y46825820D01*
X96654857Y46825820D02*
X96750095Y46968677D01*
X96750095Y46968677D02*
X96797714Y47159153D01*
X96797714Y47159153D02*
X96797714Y47540105D01*
X96797714Y47540105D02*
X96750095Y47635343D01*
X96750095Y47635343D02*
X96702476Y47682962D01*
X96702476Y47682962D02*
X96607238Y47730581D01*
X96607238Y47730581D02*
X96416762Y47730581D01*
X96416762Y47730581D02*
X96321524Y47682962D01*
X96321524Y47682962D02*
X96273905Y47635343D01*
X96273905Y47635343D02*
X96226286Y47540105D01*
X96226286Y47540105D02*
X96226286Y47302010D01*
X96226286Y47302010D02*
X96273905Y47206772D01*
X96273905Y47206772D02*
X96321524Y47159153D01*
X96321524Y47159153D02*
X96416762Y47111534D01*
X96416762Y47111534D02*
X96607238Y47111534D01*
X96607238Y47111534D02*
X96702476Y47159153D01*
X96702476Y47159153D02*
X96750095Y47206772D01*
X96750095Y47206772D02*
X96797714Y47302010D01*
D11*
%TO.C,U5*%
X48768095Y64213581D02*
X48768095Y63404058D01*
X48768095Y63404058D02*
X48815714Y63308820D01*
X48815714Y63308820D02*
X48863333Y63261200D01*
X48863333Y63261200D02*
X48958571Y63213581D01*
X48958571Y63213581D02*
X49149047Y63213581D01*
X49149047Y63213581D02*
X49244285Y63261200D01*
X49244285Y63261200D02*
X49291904Y63308820D01*
X49291904Y63308820D02*
X49339523Y63404058D01*
X49339523Y63404058D02*
X49339523Y64213581D01*
X50291904Y64213581D02*
X49815714Y64213581D01*
X49815714Y64213581D02*
X49768095Y63737391D01*
X49768095Y63737391D02*
X49815714Y63785010D01*
X49815714Y63785010D02*
X49910952Y63832629D01*
X49910952Y63832629D02*
X50149047Y63832629D01*
X50149047Y63832629D02*
X50244285Y63785010D01*
X50244285Y63785010D02*
X50291904Y63737391D01*
X50291904Y63737391D02*
X50339523Y63642153D01*
X50339523Y63642153D02*
X50339523Y63404058D01*
X50339523Y63404058D02*
X50291904Y63308820D01*
X50291904Y63308820D02*
X50244285Y63261200D01*
X50244285Y63261200D02*
X50149047Y63213581D01*
X50149047Y63213581D02*
X49910952Y63213581D01*
X49910952Y63213581D02*
X49815714Y63261200D01*
X49815714Y63261200D02*
X49768095Y63308820D01*
D10*
X47482381Y66812391D02*
X47149048Y66812391D01*
X47149048Y66288581D02*
X47149048Y67288581D01*
X47149048Y67288581D02*
X47625238Y67288581D01*
X48006191Y66288581D02*
X48006191Y67288581D01*
X48482381Y66288581D02*
X48482381Y67288581D01*
X48482381Y67288581D02*
X48863333Y67288581D01*
X48863333Y67288581D02*
X48958571Y67240962D01*
X48958571Y67240962D02*
X49006190Y67193343D01*
X49006190Y67193343D02*
X49053809Y67098105D01*
X49053809Y67098105D02*
X49053809Y66955248D01*
X49053809Y66955248D02*
X49006190Y66860010D01*
X49006190Y66860010D02*
X48958571Y66812391D01*
X48958571Y66812391D02*
X48863333Y66764772D01*
X48863333Y66764772D02*
X48482381Y66764772D01*
X49530000Y66288581D02*
X49720476Y66288581D01*
X49720476Y66288581D02*
X49815714Y66336200D01*
X49815714Y66336200D02*
X49863333Y66383820D01*
X49863333Y66383820D02*
X49958571Y66526677D01*
X49958571Y66526677D02*
X50006190Y66717153D01*
X50006190Y66717153D02*
X50006190Y67098105D01*
X50006190Y67098105D02*
X49958571Y67193343D01*
X49958571Y67193343D02*
X49910952Y67240962D01*
X49910952Y67240962D02*
X49815714Y67288581D01*
X49815714Y67288581D02*
X49625238Y67288581D01*
X49625238Y67288581D02*
X49530000Y67240962D01*
X49530000Y67240962D02*
X49482381Y67193343D01*
X49482381Y67193343D02*
X49434762Y67098105D01*
X49434762Y67098105D02*
X49434762Y66860010D01*
X49434762Y66860010D02*
X49482381Y66764772D01*
X49482381Y66764772D02*
X49530000Y66717153D01*
X49530000Y66717153D02*
X49625238Y66669534D01*
X49625238Y66669534D02*
X49815714Y66669534D01*
X49815714Y66669534D02*
X49910952Y66717153D01*
X49910952Y66717153D02*
X49958571Y66764772D01*
X49958571Y66764772D02*
X50006190Y66860010D01*
X50768095Y66812391D02*
X50910952Y66764772D01*
X50910952Y66764772D02*
X50958571Y66717153D01*
X50958571Y66717153D02*
X51006190Y66621915D01*
X51006190Y66621915D02*
X51006190Y66479058D01*
X51006190Y66479058D02*
X50958571Y66383820D01*
X50958571Y66383820D02*
X50910952Y66336200D01*
X50910952Y66336200D02*
X50815714Y66288581D01*
X50815714Y66288581D02*
X50434762Y66288581D01*
X50434762Y66288581D02*
X50434762Y67288581D01*
X50434762Y67288581D02*
X50768095Y67288581D01*
X50768095Y67288581D02*
X50863333Y67240962D01*
X50863333Y67240962D02*
X50910952Y67193343D01*
X50910952Y67193343D02*
X50958571Y67098105D01*
X50958571Y67098105D02*
X50958571Y67002867D01*
X50958571Y67002867D02*
X50910952Y66907629D01*
X50910952Y66907629D02*
X50863333Y66860010D01*
X50863333Y66860010D02*
X50768095Y66812391D01*
X50768095Y66812391D02*
X50434762Y66812391D01*
X51577619Y66860010D02*
X51482381Y66907629D01*
X51482381Y66907629D02*
X51434762Y66955248D01*
X51434762Y66955248D02*
X51387143Y67050486D01*
X51387143Y67050486D02*
X51387143Y67098105D01*
X51387143Y67098105D02*
X51434762Y67193343D01*
X51434762Y67193343D02*
X51482381Y67240962D01*
X51482381Y67240962D02*
X51577619Y67288581D01*
X51577619Y67288581D02*
X51768095Y67288581D01*
X51768095Y67288581D02*
X51863333Y67240962D01*
X51863333Y67240962D02*
X51910952Y67193343D01*
X51910952Y67193343D02*
X51958571Y67098105D01*
X51958571Y67098105D02*
X51958571Y67050486D01*
X51958571Y67050486D02*
X51910952Y66955248D01*
X51910952Y66955248D02*
X51863333Y66907629D01*
X51863333Y66907629D02*
X51768095Y66860010D01*
X51768095Y66860010D02*
X51577619Y66860010D01*
X51577619Y66860010D02*
X51482381Y66812391D01*
X51482381Y66812391D02*
X51434762Y66764772D01*
X51434762Y66764772D02*
X51387143Y66669534D01*
X51387143Y66669534D02*
X51387143Y66479058D01*
X51387143Y66479058D02*
X51434762Y66383820D01*
X51434762Y66383820D02*
X51482381Y66336200D01*
X51482381Y66336200D02*
X51577619Y66288581D01*
X51577619Y66288581D02*
X51768095Y66288581D01*
X51768095Y66288581D02*
X51863333Y66336200D01*
X51863333Y66336200D02*
X51910952Y66383820D01*
X51910952Y66383820D02*
X51958571Y66479058D01*
X51958571Y66479058D02*
X51958571Y66669534D01*
X51958571Y66669534D02*
X51910952Y66764772D01*
X51910952Y66764772D02*
X51863333Y66812391D01*
X51863333Y66812391D02*
X51768095Y66860010D01*
%TO.C,U4*%
X36502619Y53289296D02*
X37312142Y53289296D01*
X37312142Y53289296D02*
X37407380Y53336915D01*
X37407380Y53336915D02*
X37455000Y53384534D01*
X37455000Y53384534D02*
X37502619Y53479772D01*
X37502619Y53479772D02*
X37502619Y53670248D01*
X37502619Y53670248D02*
X37455000Y53765486D01*
X37455000Y53765486D02*
X37407380Y53813105D01*
X37407380Y53813105D02*
X37312142Y53860724D01*
X37312142Y53860724D02*
X36502619Y53860724D01*
X36835952Y54765486D02*
X37502619Y54765486D01*
X36455000Y54527391D02*
X37169285Y54289296D01*
X37169285Y54289296D02*
X37169285Y54908343D01*
%TO.C,R4*%
X79208333Y10154581D02*
X78875000Y10630772D01*
X78636905Y10154581D02*
X78636905Y11154581D01*
X78636905Y11154581D02*
X79017857Y11154581D01*
X79017857Y11154581D02*
X79113095Y11106962D01*
X79113095Y11106962D02*
X79160714Y11059343D01*
X79160714Y11059343D02*
X79208333Y10964105D01*
X79208333Y10964105D02*
X79208333Y10821248D01*
X79208333Y10821248D02*
X79160714Y10726010D01*
X79160714Y10726010D02*
X79113095Y10678391D01*
X79113095Y10678391D02*
X79017857Y10630772D01*
X79017857Y10630772D02*
X78636905Y10630772D01*
X80065476Y10821248D02*
X80065476Y10154581D01*
X79827381Y11202200D02*
X79589286Y10487915D01*
X79589286Y10487915D02*
X80208333Y10487915D01*
%TO.C,C7*%
X63333333Y49873820D02*
X63285714Y49826200D01*
X63285714Y49826200D02*
X63142857Y49778581D01*
X63142857Y49778581D02*
X63047619Y49778581D01*
X63047619Y49778581D02*
X62904762Y49826200D01*
X62904762Y49826200D02*
X62809524Y49921439D01*
X62809524Y49921439D02*
X62761905Y50016677D01*
X62761905Y50016677D02*
X62714286Y50207153D01*
X62714286Y50207153D02*
X62714286Y50350010D01*
X62714286Y50350010D02*
X62761905Y50540486D01*
X62761905Y50540486D02*
X62809524Y50635724D01*
X62809524Y50635724D02*
X62904762Y50730962D01*
X62904762Y50730962D02*
X63047619Y50778581D01*
X63047619Y50778581D02*
X63142857Y50778581D01*
X63142857Y50778581D02*
X63285714Y50730962D01*
X63285714Y50730962D02*
X63333333Y50683343D01*
X63666667Y50778581D02*
X64333333Y50778581D01*
X64333333Y50778581D02*
X63904762Y49778581D01*
%TO.C,R5*%
X7834333Y59303581D02*
X7501000Y59779772D01*
X7262905Y59303581D02*
X7262905Y60303581D01*
X7262905Y60303581D02*
X7643857Y60303581D01*
X7643857Y60303581D02*
X7739095Y60255962D01*
X7739095Y60255962D02*
X7786714Y60208343D01*
X7786714Y60208343D02*
X7834333Y60113105D01*
X7834333Y60113105D02*
X7834333Y59970248D01*
X7834333Y59970248D02*
X7786714Y59875010D01*
X7786714Y59875010D02*
X7739095Y59827391D01*
X7739095Y59827391D02*
X7643857Y59779772D01*
X7643857Y59779772D02*
X7262905Y59779772D01*
X8739095Y60303581D02*
X8262905Y60303581D01*
X8262905Y60303581D02*
X8215286Y59827391D01*
X8215286Y59827391D02*
X8262905Y59875010D01*
X8262905Y59875010D02*
X8358143Y59922629D01*
X8358143Y59922629D02*
X8596238Y59922629D01*
X8596238Y59922629D02*
X8691476Y59875010D01*
X8691476Y59875010D02*
X8739095Y59827391D01*
X8739095Y59827391D02*
X8786714Y59732153D01*
X8786714Y59732153D02*
X8786714Y59494058D01*
X8786714Y59494058D02*
X8739095Y59398820D01*
X8739095Y59398820D02*
X8691476Y59351200D01*
X8691476Y59351200D02*
X8596238Y59303581D01*
X8596238Y59303581D02*
X8358143Y59303581D01*
X8358143Y59303581D02*
X8262905Y59351200D01*
X8262905Y59351200D02*
X8215286Y59398820D01*
%TO.C,L1*%
X81494333Y36316581D02*
X81018143Y36316581D01*
X81018143Y36316581D02*
X81018143Y37316581D01*
X82351476Y36316581D02*
X81780048Y36316581D01*
X82065762Y36316581D02*
X82065762Y37316581D01*
X82065762Y37316581D02*
X81970524Y37173724D01*
X81970524Y37173724D02*
X81875286Y37078486D01*
X81875286Y37078486D02*
X81780048Y37030867D01*
%TO.C,U6*%
X66982619Y53289296D02*
X67792142Y53289296D01*
X67792142Y53289296D02*
X67887380Y53336915D01*
X67887380Y53336915D02*
X67935000Y53384534D01*
X67935000Y53384534D02*
X67982619Y53479772D01*
X67982619Y53479772D02*
X67982619Y53670248D01*
X67982619Y53670248D02*
X67935000Y53765486D01*
X67935000Y53765486D02*
X67887380Y53813105D01*
X67887380Y53813105D02*
X67792142Y53860724D01*
X67792142Y53860724D02*
X66982619Y53860724D01*
X66982619Y54765486D02*
X66982619Y54575010D01*
X66982619Y54575010D02*
X67030238Y54479772D01*
X67030238Y54479772D02*
X67077857Y54432153D01*
X67077857Y54432153D02*
X67220714Y54336915D01*
X67220714Y54336915D02*
X67411190Y54289296D01*
X67411190Y54289296D02*
X67792142Y54289296D01*
X67792142Y54289296D02*
X67887380Y54336915D01*
X67887380Y54336915D02*
X67935000Y54384534D01*
X67935000Y54384534D02*
X67982619Y54479772D01*
X67982619Y54479772D02*
X67982619Y54670248D01*
X67982619Y54670248D02*
X67935000Y54765486D01*
X67935000Y54765486D02*
X67887380Y54813105D01*
X67887380Y54813105D02*
X67792142Y54860724D01*
X67792142Y54860724D02*
X67554047Y54860724D01*
X67554047Y54860724D02*
X67458809Y54813105D01*
X67458809Y54813105D02*
X67411190Y54765486D01*
X67411190Y54765486D02*
X67363571Y54670248D01*
X67363571Y54670248D02*
X67363571Y54479772D01*
X67363571Y54479772D02*
X67411190Y54384534D01*
X67411190Y54384534D02*
X67458809Y54336915D01*
X67458809Y54336915D02*
X67554047Y54289296D01*
%TO.C,SW3*%
X66865667Y7916200D02*
X67008524Y7868581D01*
X67008524Y7868581D02*
X67246619Y7868581D01*
X67246619Y7868581D02*
X67341857Y7916200D01*
X67341857Y7916200D02*
X67389476Y7963820D01*
X67389476Y7963820D02*
X67437095Y8059058D01*
X67437095Y8059058D02*
X67437095Y8154296D01*
X67437095Y8154296D02*
X67389476Y8249534D01*
X67389476Y8249534D02*
X67341857Y8297153D01*
X67341857Y8297153D02*
X67246619Y8344772D01*
X67246619Y8344772D02*
X67056143Y8392391D01*
X67056143Y8392391D02*
X66960905Y8440010D01*
X66960905Y8440010D02*
X66913286Y8487629D01*
X66913286Y8487629D02*
X66865667Y8582867D01*
X66865667Y8582867D02*
X66865667Y8678105D01*
X66865667Y8678105D02*
X66913286Y8773343D01*
X66913286Y8773343D02*
X66960905Y8820962D01*
X66960905Y8820962D02*
X67056143Y8868581D01*
X67056143Y8868581D02*
X67294238Y8868581D01*
X67294238Y8868581D02*
X67437095Y8820962D01*
X67770429Y8868581D02*
X68008524Y7868581D01*
X68008524Y7868581D02*
X68199000Y8582867D01*
X68199000Y8582867D02*
X68389476Y7868581D01*
X68389476Y7868581D02*
X68627572Y8868581D01*
X68913286Y8868581D02*
X69532333Y8868581D01*
X69532333Y8868581D02*
X69199000Y8487629D01*
X69199000Y8487629D02*
X69341857Y8487629D01*
X69341857Y8487629D02*
X69437095Y8440010D01*
X69437095Y8440010D02*
X69484714Y8392391D01*
X69484714Y8392391D02*
X69532333Y8297153D01*
X69532333Y8297153D02*
X69532333Y8059058D01*
X69532333Y8059058D02*
X69484714Y7963820D01*
X69484714Y7963820D02*
X69437095Y7916200D01*
X69437095Y7916200D02*
X69341857Y7868581D01*
X69341857Y7868581D02*
X69056143Y7868581D01*
X69056143Y7868581D02*
X68960905Y7916200D01*
X68960905Y7916200D02*
X68913286Y7963820D01*
%TO.C,SW1*%
X42771667Y7916200D02*
X42914524Y7868581D01*
X42914524Y7868581D02*
X43152619Y7868581D01*
X43152619Y7868581D02*
X43247857Y7916200D01*
X43247857Y7916200D02*
X43295476Y7963820D01*
X43295476Y7963820D02*
X43343095Y8059058D01*
X43343095Y8059058D02*
X43343095Y8154296D01*
X43343095Y8154296D02*
X43295476Y8249534D01*
X43295476Y8249534D02*
X43247857Y8297153D01*
X43247857Y8297153D02*
X43152619Y8344772D01*
X43152619Y8344772D02*
X42962143Y8392391D01*
X42962143Y8392391D02*
X42866905Y8440010D01*
X42866905Y8440010D02*
X42819286Y8487629D01*
X42819286Y8487629D02*
X42771667Y8582867D01*
X42771667Y8582867D02*
X42771667Y8678105D01*
X42771667Y8678105D02*
X42819286Y8773343D01*
X42819286Y8773343D02*
X42866905Y8820962D01*
X42866905Y8820962D02*
X42962143Y8868581D01*
X42962143Y8868581D02*
X43200238Y8868581D01*
X43200238Y8868581D02*
X43343095Y8820962D01*
X43676429Y8868581D02*
X43914524Y7868581D01*
X43914524Y7868581D02*
X44105000Y8582867D01*
X44105000Y8582867D02*
X44295476Y7868581D01*
X44295476Y7868581D02*
X44533572Y8868581D01*
X45438333Y7868581D02*
X44866905Y7868581D01*
X45152619Y7868581D02*
X45152619Y8868581D01*
X45152619Y8868581D02*
X45057381Y8725724D01*
X45057381Y8725724D02*
X44962143Y8630486D01*
X44962143Y8630486D02*
X44866905Y8582867D01*
%TO.C,R7*%
X3172619Y31024534D02*
X2696428Y30691201D01*
X3172619Y30453106D02*
X2172619Y30453106D01*
X2172619Y30453106D02*
X2172619Y30834058D01*
X2172619Y30834058D02*
X2220238Y30929296D01*
X2220238Y30929296D02*
X2267857Y30976915D01*
X2267857Y30976915D02*
X2363095Y31024534D01*
X2363095Y31024534D02*
X2505952Y31024534D01*
X2505952Y31024534D02*
X2601190Y30976915D01*
X2601190Y30976915D02*
X2648809Y30929296D01*
X2648809Y30929296D02*
X2696428Y30834058D01*
X2696428Y30834058D02*
X2696428Y30453106D01*
X2172619Y31357868D02*
X2172619Y32024534D01*
X2172619Y32024534D02*
X3172619Y31595963D01*
%TO.C,C1*%
X68794333Y25489820D02*
X68746714Y25442200D01*
X68746714Y25442200D02*
X68603857Y25394581D01*
X68603857Y25394581D02*
X68508619Y25394581D01*
X68508619Y25394581D02*
X68365762Y25442200D01*
X68365762Y25442200D02*
X68270524Y25537439D01*
X68270524Y25537439D02*
X68222905Y25632677D01*
X68222905Y25632677D02*
X68175286Y25823153D01*
X68175286Y25823153D02*
X68175286Y25966010D01*
X68175286Y25966010D02*
X68222905Y26156486D01*
X68222905Y26156486D02*
X68270524Y26251724D01*
X68270524Y26251724D02*
X68365762Y26346962D01*
X68365762Y26346962D02*
X68508619Y26394581D01*
X68508619Y26394581D02*
X68603857Y26394581D01*
X68603857Y26394581D02*
X68746714Y26346962D01*
X68746714Y26346962D02*
X68794333Y26299343D01*
X69746714Y25394581D02*
X69175286Y25394581D01*
X69461000Y25394581D02*
X69461000Y26394581D01*
X69461000Y26394581D02*
X69365762Y26251724D01*
X69365762Y26251724D02*
X69270524Y26156486D01*
X69270524Y26156486D02*
X69175286Y26108867D01*
%TO.C,C5*%
X75779333Y998820D02*
X75731714Y951200D01*
X75731714Y951200D02*
X75588857Y903581D01*
X75588857Y903581D02*
X75493619Y903581D01*
X75493619Y903581D02*
X75350762Y951200D01*
X75350762Y951200D02*
X75255524Y1046439D01*
X75255524Y1046439D02*
X75207905Y1141677D01*
X75207905Y1141677D02*
X75160286Y1332153D01*
X75160286Y1332153D02*
X75160286Y1475010D01*
X75160286Y1475010D02*
X75207905Y1665486D01*
X75207905Y1665486D02*
X75255524Y1760724D01*
X75255524Y1760724D02*
X75350762Y1855962D01*
X75350762Y1855962D02*
X75493619Y1903581D01*
X75493619Y1903581D02*
X75588857Y1903581D01*
X75588857Y1903581D02*
X75731714Y1855962D01*
X75731714Y1855962D02*
X75779333Y1808343D01*
X76684095Y1903581D02*
X76207905Y1903581D01*
X76207905Y1903581D02*
X76160286Y1427391D01*
X76160286Y1427391D02*
X76207905Y1475010D01*
X76207905Y1475010D02*
X76303143Y1522629D01*
X76303143Y1522629D02*
X76541238Y1522629D01*
X76541238Y1522629D02*
X76636476Y1475010D01*
X76636476Y1475010D02*
X76684095Y1427391D01*
X76684095Y1427391D02*
X76731714Y1332153D01*
X76731714Y1332153D02*
X76731714Y1094058D01*
X76731714Y1094058D02*
X76684095Y998820D01*
X76684095Y998820D02*
X76636476Y951200D01*
X76636476Y951200D02*
X76541238Y903581D01*
X76541238Y903581D02*
X76303143Y903581D01*
X76303143Y903581D02*
X76207905Y951200D01*
X76207905Y951200D02*
X76160286Y998820D01*
%TO.C,U1*%
X77343095Y27156581D02*
X77343095Y26347058D01*
X77343095Y26347058D02*
X77390714Y26251820D01*
X77390714Y26251820D02*
X77438333Y26204200D01*
X77438333Y26204200D02*
X77533571Y26156581D01*
X77533571Y26156581D02*
X77724047Y26156581D01*
X77724047Y26156581D02*
X77819285Y26204200D01*
X77819285Y26204200D02*
X77866904Y26251820D01*
X77866904Y26251820D02*
X77914523Y26347058D01*
X77914523Y26347058D02*
X77914523Y27156581D01*
X78914523Y26156581D02*
X78343095Y26156581D01*
X78628809Y26156581D02*
X78628809Y27156581D01*
X78628809Y27156581D02*
X78533571Y27013724D01*
X78533571Y27013724D02*
X78438333Y26918486D01*
X78438333Y26918486D02*
X78343095Y26870867D01*
%TO.C,C4*%
X90257333Y18885820D02*
X90209714Y18838200D01*
X90209714Y18838200D02*
X90066857Y18790581D01*
X90066857Y18790581D02*
X89971619Y18790581D01*
X89971619Y18790581D02*
X89828762Y18838200D01*
X89828762Y18838200D02*
X89733524Y18933439D01*
X89733524Y18933439D02*
X89685905Y19028677D01*
X89685905Y19028677D02*
X89638286Y19219153D01*
X89638286Y19219153D02*
X89638286Y19362010D01*
X89638286Y19362010D02*
X89685905Y19552486D01*
X89685905Y19552486D02*
X89733524Y19647724D01*
X89733524Y19647724D02*
X89828762Y19742962D01*
X89828762Y19742962D02*
X89971619Y19790581D01*
X89971619Y19790581D02*
X90066857Y19790581D01*
X90066857Y19790581D02*
X90209714Y19742962D01*
X90209714Y19742962D02*
X90257333Y19695343D01*
X91114476Y19457248D02*
X91114476Y18790581D01*
X90876381Y19838200D02*
X90638286Y19123915D01*
X90638286Y19123915D02*
X91257333Y19123915D01*
%TO.C,U3*%
X54864095Y23219581D02*
X54864095Y22410058D01*
X54864095Y22410058D02*
X54911714Y22314820D01*
X54911714Y22314820D02*
X54959333Y22267200D01*
X54959333Y22267200D02*
X55054571Y22219581D01*
X55054571Y22219581D02*
X55245047Y22219581D01*
X55245047Y22219581D02*
X55340285Y22267200D01*
X55340285Y22267200D02*
X55387904Y22314820D01*
X55387904Y22314820D02*
X55435523Y22410058D01*
X55435523Y22410058D02*
X55435523Y23219581D01*
X55816476Y23219581D02*
X56435523Y23219581D01*
X56435523Y23219581D02*
X56102190Y22838629D01*
X56102190Y22838629D02*
X56245047Y22838629D01*
X56245047Y22838629D02*
X56340285Y22791010D01*
X56340285Y22791010D02*
X56387904Y22743391D01*
X56387904Y22743391D02*
X56435523Y22648153D01*
X56435523Y22648153D02*
X56435523Y22410058D01*
X56435523Y22410058D02*
X56387904Y22314820D01*
X56387904Y22314820D02*
X56340285Y22267200D01*
X56340285Y22267200D02*
X56245047Y22219581D01*
X56245047Y22219581D02*
X55959333Y22219581D01*
X55959333Y22219581D02*
X55864095Y22267200D01*
X55864095Y22267200D02*
X55816476Y22314820D01*
%TO.C,R6*%
X3172619Y53249534D02*
X2696428Y52916201D01*
X3172619Y52678106D02*
X2172619Y52678106D01*
X2172619Y52678106D02*
X2172619Y53059058D01*
X2172619Y53059058D02*
X2220238Y53154296D01*
X2220238Y53154296D02*
X2267857Y53201915D01*
X2267857Y53201915D02*
X2363095Y53249534D01*
X2363095Y53249534D02*
X2505952Y53249534D01*
X2505952Y53249534D02*
X2601190Y53201915D01*
X2601190Y53201915D02*
X2648809Y53154296D01*
X2648809Y53154296D02*
X2696428Y53059058D01*
X2696428Y53059058D02*
X2696428Y52678106D01*
X2172619Y54106677D02*
X2172619Y53916201D01*
X2172619Y53916201D02*
X2220238Y53820963D01*
X2220238Y53820963D02*
X2267857Y53773344D01*
X2267857Y53773344D02*
X2410714Y53678106D01*
X2410714Y53678106D02*
X2601190Y53630487D01*
X2601190Y53630487D02*
X2982142Y53630487D01*
X2982142Y53630487D02*
X3077380Y53678106D01*
X3077380Y53678106D02*
X3125000Y53725725D01*
X3125000Y53725725D02*
X3172619Y53820963D01*
X3172619Y53820963D02*
X3172619Y54011439D01*
X3172619Y54011439D02*
X3125000Y54106677D01*
X3125000Y54106677D02*
X3077380Y54154296D01*
X3077380Y54154296D02*
X2982142Y54201915D01*
X2982142Y54201915D02*
X2744047Y54201915D01*
X2744047Y54201915D02*
X2648809Y54154296D01*
X2648809Y54154296D02*
X2601190Y54106677D01*
X2601190Y54106677D02*
X2553571Y54011439D01*
X2553571Y54011439D02*
X2553571Y53820963D01*
X2553571Y53820963D02*
X2601190Y53725725D01*
X2601190Y53725725D02*
X2648809Y53678106D01*
X2648809Y53678106D02*
X2744047Y53630487D01*
%TO.C,Q1*%
X50069761Y15393343D02*
X49974523Y15440962D01*
X49974523Y15440962D02*
X49879285Y15536200D01*
X49879285Y15536200D02*
X49736428Y15679058D01*
X49736428Y15679058D02*
X49641190Y15726677D01*
X49641190Y15726677D02*
X49545952Y15726677D01*
X49593571Y15488581D02*
X49498333Y15536200D01*
X49498333Y15536200D02*
X49403095Y15631439D01*
X49403095Y15631439D02*
X49355476Y15821915D01*
X49355476Y15821915D02*
X49355476Y16155248D01*
X49355476Y16155248D02*
X49403095Y16345724D01*
X49403095Y16345724D02*
X49498333Y16440962D01*
X49498333Y16440962D02*
X49593571Y16488581D01*
X49593571Y16488581D02*
X49784047Y16488581D01*
X49784047Y16488581D02*
X49879285Y16440962D01*
X49879285Y16440962D02*
X49974523Y16345724D01*
X49974523Y16345724D02*
X50022142Y16155248D01*
X50022142Y16155248D02*
X50022142Y15821915D01*
X50022142Y15821915D02*
X49974523Y15631439D01*
X49974523Y15631439D02*
X49879285Y15536200D01*
X49879285Y15536200D02*
X49784047Y15488581D01*
X49784047Y15488581D02*
X49593571Y15488581D01*
X50974523Y15488581D02*
X50403095Y15488581D01*
X50688809Y15488581D02*
X50688809Y16488581D01*
X50688809Y16488581D02*
X50593571Y16345724D01*
X50593571Y16345724D02*
X50498333Y16250486D01*
X50498333Y16250486D02*
X50403095Y16202867D01*
%TO.C,C6*%
X70826333Y20790820D02*
X70778714Y20743200D01*
X70778714Y20743200D02*
X70635857Y20695581D01*
X70635857Y20695581D02*
X70540619Y20695581D01*
X70540619Y20695581D02*
X70397762Y20743200D01*
X70397762Y20743200D02*
X70302524Y20838439D01*
X70302524Y20838439D02*
X70254905Y20933677D01*
X70254905Y20933677D02*
X70207286Y21124153D01*
X70207286Y21124153D02*
X70207286Y21267010D01*
X70207286Y21267010D02*
X70254905Y21457486D01*
X70254905Y21457486D02*
X70302524Y21552724D01*
X70302524Y21552724D02*
X70397762Y21647962D01*
X70397762Y21647962D02*
X70540619Y21695581D01*
X70540619Y21695581D02*
X70635857Y21695581D01*
X70635857Y21695581D02*
X70778714Y21647962D01*
X70778714Y21647962D02*
X70826333Y21600343D01*
X71683476Y21695581D02*
X71493000Y21695581D01*
X71493000Y21695581D02*
X71397762Y21647962D01*
X71397762Y21647962D02*
X71350143Y21600343D01*
X71350143Y21600343D02*
X71254905Y21457486D01*
X71254905Y21457486D02*
X71207286Y21267010D01*
X71207286Y21267010D02*
X71207286Y20886058D01*
X71207286Y20886058D02*
X71254905Y20790820D01*
X71254905Y20790820D02*
X71302524Y20743200D01*
X71302524Y20743200D02*
X71397762Y20695581D01*
X71397762Y20695581D02*
X71588238Y20695581D01*
X71588238Y20695581D02*
X71683476Y20743200D01*
X71683476Y20743200D02*
X71731095Y20790820D01*
X71731095Y20790820D02*
X71778714Y20886058D01*
X71778714Y20886058D02*
X71778714Y21124153D01*
X71778714Y21124153D02*
X71731095Y21219391D01*
X71731095Y21219391D02*
X71683476Y21267010D01*
X71683476Y21267010D02*
X71588238Y21314629D01*
X71588238Y21314629D02*
X71397762Y21314629D01*
X71397762Y21314629D02*
X71302524Y21267010D01*
X71302524Y21267010D02*
X71254905Y21219391D01*
X71254905Y21219391D02*
X71207286Y21124153D01*
%TO.C,D1*%
X88034905Y37205581D02*
X88034905Y38205581D01*
X88034905Y38205581D02*
X88273000Y38205581D01*
X88273000Y38205581D02*
X88415857Y38157962D01*
X88415857Y38157962D02*
X88511095Y38062724D01*
X88511095Y38062724D02*
X88558714Y37967486D01*
X88558714Y37967486D02*
X88606333Y37777010D01*
X88606333Y37777010D02*
X88606333Y37634153D01*
X88606333Y37634153D02*
X88558714Y37443677D01*
X88558714Y37443677D02*
X88511095Y37348439D01*
X88511095Y37348439D02*
X88415857Y37253200D01*
X88415857Y37253200D02*
X88273000Y37205581D01*
X88273000Y37205581D02*
X88034905Y37205581D01*
X89558714Y37205581D02*
X88987286Y37205581D01*
X89273000Y37205581D02*
X89273000Y38205581D01*
X89273000Y38205581D02*
X89177762Y38062724D01*
X89177762Y38062724D02*
X89082524Y37967486D01*
X89082524Y37967486D02*
X88987286Y37919867D01*
X93718095Y32084581D02*
X93718095Y33084581D01*
X94289523Y32084581D02*
X93860952Y32656010D01*
X94289523Y33084581D02*
X93718095Y32513153D01*
%TO.C,U2*%
X21463095Y50338581D02*
X21463095Y49529058D01*
X21463095Y49529058D02*
X21510714Y49433820D01*
X21510714Y49433820D02*
X21558333Y49386200D01*
X21558333Y49386200D02*
X21653571Y49338581D01*
X21653571Y49338581D02*
X21844047Y49338581D01*
X21844047Y49338581D02*
X21939285Y49386200D01*
X21939285Y49386200D02*
X21986904Y49433820D01*
X21986904Y49433820D02*
X22034523Y49529058D01*
X22034523Y49529058D02*
X22034523Y50338581D01*
X22463095Y50243343D02*
X22510714Y50290962D01*
X22510714Y50290962D02*
X22605952Y50338581D01*
X22605952Y50338581D02*
X22844047Y50338581D01*
X22844047Y50338581D02*
X22939285Y50290962D01*
X22939285Y50290962D02*
X22986904Y50243343D01*
X22986904Y50243343D02*
X23034523Y50148105D01*
X23034523Y50148105D02*
X23034523Y50052867D01*
X23034523Y50052867D02*
X22986904Y49910010D01*
X22986904Y49910010D02*
X22415476Y49338581D01*
X22415476Y49338581D02*
X23034523Y49338581D01*
X22036809Y21531963D02*
X22036809Y21865296D01*
X22560619Y22008153D02*
X22560619Y21531963D01*
X22560619Y21531963D02*
X21560619Y21531963D01*
X21560619Y21531963D02*
X21560619Y22008153D01*
X22513000Y22389106D02*
X22560619Y22531963D01*
X22560619Y22531963D02*
X22560619Y22770058D01*
X22560619Y22770058D02*
X22513000Y22865296D01*
X22513000Y22865296D02*
X22465380Y22912915D01*
X22465380Y22912915D02*
X22370142Y22960534D01*
X22370142Y22960534D02*
X22274904Y22960534D01*
X22274904Y22960534D02*
X22179666Y22912915D01*
X22179666Y22912915D02*
X22132047Y22865296D01*
X22132047Y22865296D02*
X22084428Y22770058D01*
X22084428Y22770058D02*
X22036809Y22579582D01*
X22036809Y22579582D02*
X21989190Y22484344D01*
X21989190Y22484344D02*
X21941571Y22436725D01*
X21941571Y22436725D02*
X21846333Y22389106D01*
X21846333Y22389106D02*
X21751095Y22389106D01*
X21751095Y22389106D02*
X21655857Y22436725D01*
X21655857Y22436725D02*
X21608238Y22484344D01*
X21608238Y22484344D02*
X21560619Y22579582D01*
X21560619Y22579582D02*
X21560619Y22817677D01*
X21560619Y22817677D02*
X21608238Y22960534D01*
X22560619Y23389106D02*
X21560619Y23389106D01*
X21560619Y23389106D02*
X21560619Y23770058D01*
X21560619Y23770058D02*
X21608238Y23865296D01*
X21608238Y23865296D02*
X21655857Y23912915D01*
X21655857Y23912915D02*
X21751095Y23960534D01*
X21751095Y23960534D02*
X21893952Y23960534D01*
X21893952Y23960534D02*
X21989190Y23912915D01*
X21989190Y23912915D02*
X22036809Y23865296D01*
X22036809Y23865296D02*
X22084428Y23770058D01*
X22084428Y23770058D02*
X22084428Y23389106D01*
X21560619Y24293868D02*
X21560619Y24912915D01*
X21560619Y24912915D02*
X21941571Y24579582D01*
X21941571Y24579582D02*
X21941571Y24722439D01*
X21941571Y24722439D02*
X21989190Y24817677D01*
X21989190Y24817677D02*
X22036809Y24865296D01*
X22036809Y24865296D02*
X22132047Y24912915D01*
X22132047Y24912915D02*
X22370142Y24912915D01*
X22370142Y24912915D02*
X22465380Y24865296D01*
X22465380Y24865296D02*
X22513000Y24817677D01*
X22513000Y24817677D02*
X22560619Y24722439D01*
X22560619Y24722439D02*
X22560619Y24436725D01*
X22560619Y24436725D02*
X22513000Y24341487D01*
X22513000Y24341487D02*
X22465380Y24293868D01*
X21655857Y25293868D02*
X21608238Y25341487D01*
X21608238Y25341487D02*
X21560619Y25436725D01*
X21560619Y25436725D02*
X21560619Y25674820D01*
X21560619Y25674820D02*
X21608238Y25770058D01*
X21608238Y25770058D02*
X21655857Y25817677D01*
X21655857Y25817677D02*
X21751095Y25865296D01*
X21751095Y25865296D02*
X21846333Y25865296D01*
X21846333Y25865296D02*
X21989190Y25817677D01*
X21989190Y25817677D02*
X22560619Y25246249D01*
X22560619Y25246249D02*
X22560619Y25865296D01*
X22179666Y26293868D02*
X22179666Y27055772D01*
X22560619Y27531963D02*
X21560619Y27531963D01*
X21560619Y27531963D02*
X21560619Y27770058D01*
X21560619Y27770058D02*
X21608238Y27912915D01*
X21608238Y27912915D02*
X21703476Y28008153D01*
X21703476Y28008153D02*
X21798714Y28055772D01*
X21798714Y28055772D02*
X21989190Y28103391D01*
X21989190Y28103391D02*
X22132047Y28103391D01*
X22132047Y28103391D02*
X22322523Y28055772D01*
X22322523Y28055772D02*
X22417761Y28008153D01*
X22417761Y28008153D02*
X22513000Y27912915D01*
X22513000Y27912915D02*
X22560619Y27770058D01*
X22560619Y27770058D02*
X22560619Y27531963D01*
X22513000Y28912915D02*
X22560619Y28817677D01*
X22560619Y28817677D02*
X22560619Y28627201D01*
X22560619Y28627201D02*
X22513000Y28531963D01*
X22513000Y28531963D02*
X22417761Y28484344D01*
X22417761Y28484344D02*
X22036809Y28484344D01*
X22036809Y28484344D02*
X21941571Y28531963D01*
X21941571Y28531963D02*
X21893952Y28627201D01*
X21893952Y28627201D02*
X21893952Y28817677D01*
X21893952Y28817677D02*
X21941571Y28912915D01*
X21941571Y28912915D02*
X22036809Y28960534D01*
X22036809Y28960534D02*
X22132047Y28960534D01*
X22132047Y28960534D02*
X22227285Y28484344D01*
X21893952Y29293868D02*
X22560619Y29531963D01*
X22560619Y29531963D02*
X21893952Y29770058D01*
X22560619Y30151011D02*
X21560619Y30151011D01*
X22560619Y30722439D02*
X21989190Y30293868D01*
X21560619Y30722439D02*
X22132047Y30151011D01*
X22560619Y31151011D02*
X21893952Y31151011D01*
X21560619Y31151011D02*
X21608238Y31103392D01*
X21608238Y31103392D02*
X21655857Y31151011D01*
X21655857Y31151011D02*
X21608238Y31198630D01*
X21608238Y31198630D02*
X21560619Y31151011D01*
X21560619Y31151011D02*
X21655857Y31151011D01*
X21893952Y31484344D02*
X21893952Y31865296D01*
X21560619Y31627201D02*
X22417761Y31627201D01*
X22417761Y31627201D02*
X22513000Y31674820D01*
X22513000Y31674820D02*
X22560619Y31770058D01*
X22560619Y31770058D02*
X22560619Y31865296D01*
X22465380Y32770058D02*
X22513000Y32722439D01*
X22513000Y32722439D02*
X22560619Y32579582D01*
X22560619Y32579582D02*
X22560619Y32484344D01*
X22560619Y32484344D02*
X22513000Y32341487D01*
X22513000Y32341487D02*
X22417761Y32246249D01*
X22417761Y32246249D02*
X22322523Y32198630D01*
X22322523Y32198630D02*
X22132047Y32151011D01*
X22132047Y32151011D02*
X21989190Y32151011D01*
X21989190Y32151011D02*
X21798714Y32198630D01*
X21798714Y32198630D02*
X21703476Y32246249D01*
X21703476Y32246249D02*
X21608238Y32341487D01*
X21608238Y32341487D02*
X21560619Y32484344D01*
X21560619Y32484344D02*
X21560619Y32579582D01*
X21560619Y32579582D02*
X21608238Y32722439D01*
X21608238Y32722439D02*
X21655857Y32770058D01*
X11937904Y38030962D02*
X11842666Y38078581D01*
X11842666Y38078581D02*
X11699809Y38078581D01*
X11699809Y38078581D02*
X11556952Y38030962D01*
X11556952Y38030962D02*
X11461714Y37935724D01*
X11461714Y37935724D02*
X11414095Y37840486D01*
X11414095Y37840486D02*
X11366476Y37650010D01*
X11366476Y37650010D02*
X11366476Y37507153D01*
X11366476Y37507153D02*
X11414095Y37316677D01*
X11414095Y37316677D02*
X11461714Y37221439D01*
X11461714Y37221439D02*
X11556952Y37126200D01*
X11556952Y37126200D02*
X11699809Y37078581D01*
X11699809Y37078581D02*
X11795047Y37078581D01*
X11795047Y37078581D02*
X11937904Y37126200D01*
X11937904Y37126200D02*
X11985523Y37173820D01*
X11985523Y37173820D02*
X11985523Y37507153D01*
X11985523Y37507153D02*
X11795047Y37507153D01*
X12414095Y37078581D02*
X12414095Y38078581D01*
X12414095Y38078581D02*
X12795047Y38078581D01*
X12795047Y38078581D02*
X12890285Y38030962D01*
X12890285Y38030962D02*
X12937904Y37983343D01*
X12937904Y37983343D02*
X12985523Y37888105D01*
X12985523Y37888105D02*
X12985523Y37745248D01*
X12985523Y37745248D02*
X12937904Y37650010D01*
X12937904Y37650010D02*
X12890285Y37602391D01*
X12890285Y37602391D02*
X12795047Y37554772D01*
X12795047Y37554772D02*
X12414095Y37554772D01*
X13414095Y37078581D02*
X13414095Y38078581D01*
X14080761Y38078581D02*
X14271237Y38078581D01*
X14271237Y38078581D02*
X14366475Y38030962D01*
X14366475Y38030962D02*
X14461713Y37935724D01*
X14461713Y37935724D02*
X14509332Y37745248D01*
X14509332Y37745248D02*
X14509332Y37411915D01*
X14509332Y37411915D02*
X14461713Y37221439D01*
X14461713Y37221439D02*
X14366475Y37126200D01*
X14366475Y37126200D02*
X14271237Y37078581D01*
X14271237Y37078581D02*
X14080761Y37078581D01*
X14080761Y37078581D02*
X13985523Y37126200D01*
X13985523Y37126200D02*
X13890285Y37221439D01*
X13890285Y37221439D02*
X13842666Y37411915D01*
X13842666Y37411915D02*
X13842666Y37745248D01*
X13842666Y37745248D02*
X13890285Y37935724D01*
X13890285Y37935724D02*
X13985523Y38030962D01*
X13985523Y38030962D02*
X14080761Y38078581D01*
X14842666Y38078581D02*
X15461713Y38078581D01*
X15461713Y38078581D02*
X15128380Y37697629D01*
X15128380Y37697629D02*
X15271237Y37697629D01*
X15271237Y37697629D02*
X15366475Y37650010D01*
X15366475Y37650010D02*
X15414094Y37602391D01*
X15414094Y37602391D02*
X15461713Y37507153D01*
X15461713Y37507153D02*
X15461713Y37269058D01*
X15461713Y37269058D02*
X15414094Y37173820D01*
X15414094Y37173820D02*
X15366475Y37126200D01*
X15366475Y37126200D02*
X15271237Y37078581D01*
X15271237Y37078581D02*
X14985523Y37078581D01*
X14985523Y37078581D02*
X14890285Y37126200D01*
X14890285Y37126200D02*
X14842666Y37173820D01*
X16318856Y37745248D02*
X16318856Y37078581D01*
X16080761Y38126200D02*
X15842666Y37411915D01*
X15842666Y37411915D02*
X16461713Y37411915D01*
X28607333Y27870962D02*
X28512095Y27918581D01*
X28512095Y27918581D02*
X28369238Y27918581D01*
X28369238Y27918581D02*
X28226381Y27870962D01*
X28226381Y27870962D02*
X28131143Y27775724D01*
X28131143Y27775724D02*
X28083524Y27680486D01*
X28083524Y27680486D02*
X28035905Y27490010D01*
X28035905Y27490010D02*
X28035905Y27347153D01*
X28035905Y27347153D02*
X28083524Y27156677D01*
X28083524Y27156677D02*
X28131143Y27061439D01*
X28131143Y27061439D02*
X28226381Y26966200D01*
X28226381Y26966200D02*
X28369238Y26918581D01*
X28369238Y26918581D02*
X28464476Y26918581D01*
X28464476Y26918581D02*
X28607333Y26966200D01*
X28607333Y26966200D02*
X28654952Y27013820D01*
X28654952Y27013820D02*
X28654952Y27347153D01*
X28654952Y27347153D02*
X28464476Y27347153D01*
X29083524Y26918581D02*
X29083524Y27918581D01*
X29083524Y27918581D02*
X29464476Y27918581D01*
X29464476Y27918581D02*
X29559714Y27870962D01*
X29559714Y27870962D02*
X29607333Y27823343D01*
X29607333Y27823343D02*
X29654952Y27728105D01*
X29654952Y27728105D02*
X29654952Y27585248D01*
X29654952Y27585248D02*
X29607333Y27490010D01*
X29607333Y27490010D02*
X29559714Y27442391D01*
X29559714Y27442391D02*
X29464476Y27394772D01*
X29464476Y27394772D02*
X29083524Y27394772D01*
X30083524Y26918581D02*
X30083524Y27918581D01*
X30750190Y27918581D02*
X30940666Y27918581D01*
X30940666Y27918581D02*
X31035904Y27870962D01*
X31035904Y27870962D02*
X31131142Y27775724D01*
X31131142Y27775724D02*
X31178761Y27585248D01*
X31178761Y27585248D02*
X31178761Y27251915D01*
X31178761Y27251915D02*
X31131142Y27061439D01*
X31131142Y27061439D02*
X31035904Y26966200D01*
X31035904Y26966200D02*
X30940666Y26918581D01*
X30940666Y26918581D02*
X30750190Y26918581D01*
X30750190Y26918581D02*
X30654952Y26966200D01*
X30654952Y26966200D02*
X30559714Y27061439D01*
X30559714Y27061439D02*
X30512095Y27251915D01*
X30512095Y27251915D02*
X30512095Y27585248D01*
X30512095Y27585248D02*
X30559714Y27775724D01*
X30559714Y27775724D02*
X30654952Y27870962D01*
X30654952Y27870962D02*
X30750190Y27918581D01*
X32131142Y26918581D02*
X31559714Y26918581D01*
X31845428Y26918581D02*
X31845428Y27918581D01*
X31845428Y27918581D02*
X31750190Y27775724D01*
X31750190Y27775724D02*
X31654952Y27680486D01*
X31654952Y27680486D02*
X31559714Y27632867D01*
X32702571Y27490010D02*
X32607333Y27537629D01*
X32607333Y27537629D02*
X32559714Y27585248D01*
X32559714Y27585248D02*
X32512095Y27680486D01*
X32512095Y27680486D02*
X32512095Y27728105D01*
X32512095Y27728105D02*
X32559714Y27823343D01*
X32559714Y27823343D02*
X32607333Y27870962D01*
X32607333Y27870962D02*
X32702571Y27918581D01*
X32702571Y27918581D02*
X32893047Y27918581D01*
X32893047Y27918581D02*
X32988285Y27870962D01*
X32988285Y27870962D02*
X33035904Y27823343D01*
X33035904Y27823343D02*
X33083523Y27728105D01*
X33083523Y27728105D02*
X33083523Y27680486D01*
X33083523Y27680486D02*
X33035904Y27585248D01*
X33035904Y27585248D02*
X32988285Y27537629D01*
X32988285Y27537629D02*
X32893047Y27490010D01*
X32893047Y27490010D02*
X32702571Y27490010D01*
X32702571Y27490010D02*
X32607333Y27442391D01*
X32607333Y27442391D02*
X32559714Y27394772D01*
X32559714Y27394772D02*
X32512095Y27299534D01*
X32512095Y27299534D02*
X32512095Y27109058D01*
X32512095Y27109058D02*
X32559714Y27013820D01*
X32559714Y27013820D02*
X32607333Y26966200D01*
X32607333Y26966200D02*
X32702571Y26918581D01*
X32702571Y26918581D02*
X32893047Y26918581D01*
X32893047Y26918581D02*
X32988285Y26966200D01*
X32988285Y26966200D02*
X33035904Y27013820D01*
X33035904Y27013820D02*
X33083523Y27109058D01*
X33083523Y27109058D02*
X33083523Y27299534D01*
X33083523Y27299534D02*
X33035904Y27394772D01*
X33035904Y27394772D02*
X32988285Y27442391D01*
X32988285Y27442391D02*
X32893047Y27490010D01*
X11937904Y22790962D02*
X11842666Y22838581D01*
X11842666Y22838581D02*
X11699809Y22838581D01*
X11699809Y22838581D02*
X11556952Y22790962D01*
X11556952Y22790962D02*
X11461714Y22695724D01*
X11461714Y22695724D02*
X11414095Y22600486D01*
X11414095Y22600486D02*
X11366476Y22410010D01*
X11366476Y22410010D02*
X11366476Y22267153D01*
X11366476Y22267153D02*
X11414095Y22076677D01*
X11414095Y22076677D02*
X11461714Y21981439D01*
X11461714Y21981439D02*
X11556952Y21886200D01*
X11556952Y21886200D02*
X11699809Y21838581D01*
X11699809Y21838581D02*
X11795047Y21838581D01*
X11795047Y21838581D02*
X11937904Y21886200D01*
X11937904Y21886200D02*
X11985523Y21933820D01*
X11985523Y21933820D02*
X11985523Y22267153D01*
X11985523Y22267153D02*
X11795047Y22267153D01*
X12414095Y21838581D02*
X12414095Y22838581D01*
X12414095Y22838581D02*
X12795047Y22838581D01*
X12795047Y22838581D02*
X12890285Y22790962D01*
X12890285Y22790962D02*
X12937904Y22743343D01*
X12937904Y22743343D02*
X12985523Y22648105D01*
X12985523Y22648105D02*
X12985523Y22505248D01*
X12985523Y22505248D02*
X12937904Y22410010D01*
X12937904Y22410010D02*
X12890285Y22362391D01*
X12890285Y22362391D02*
X12795047Y22314772D01*
X12795047Y22314772D02*
X12414095Y22314772D01*
X13414095Y21838581D02*
X13414095Y22838581D01*
X14080761Y22838581D02*
X14271237Y22838581D01*
X14271237Y22838581D02*
X14366475Y22790962D01*
X14366475Y22790962D02*
X14461713Y22695724D01*
X14461713Y22695724D02*
X14509332Y22505248D01*
X14509332Y22505248D02*
X14509332Y22171915D01*
X14509332Y22171915D02*
X14461713Y21981439D01*
X14461713Y21981439D02*
X14366475Y21886200D01*
X14366475Y21886200D02*
X14271237Y21838581D01*
X14271237Y21838581D02*
X14080761Y21838581D01*
X14080761Y21838581D02*
X13985523Y21886200D01*
X13985523Y21886200D02*
X13890285Y21981439D01*
X13890285Y21981439D02*
X13842666Y22171915D01*
X13842666Y22171915D02*
X13842666Y22505248D01*
X13842666Y22505248D02*
X13890285Y22695724D01*
X13890285Y22695724D02*
X13985523Y22790962D01*
X13985523Y22790962D02*
X14080761Y22838581D01*
X14890285Y22743343D02*
X14937904Y22790962D01*
X14937904Y22790962D02*
X15033142Y22838581D01*
X15033142Y22838581D02*
X15271237Y22838581D01*
X15271237Y22838581D02*
X15366475Y22790962D01*
X15366475Y22790962D02*
X15414094Y22743343D01*
X15414094Y22743343D02*
X15461713Y22648105D01*
X15461713Y22648105D02*
X15461713Y22552867D01*
X15461713Y22552867D02*
X15414094Y22410010D01*
X15414094Y22410010D02*
X14842666Y21838581D01*
X14842666Y21838581D02*
X15461713Y21838581D01*
X15795047Y22838581D02*
X16461713Y22838581D01*
X16461713Y22838581D02*
X16033142Y21838581D01*
X11414095Y9138581D02*
X11414095Y10138581D01*
X11414095Y10138581D02*
X11652190Y10138581D01*
X11652190Y10138581D02*
X11795047Y10090962D01*
X11795047Y10090962D02*
X11890285Y9995724D01*
X11890285Y9995724D02*
X11937904Y9900486D01*
X11937904Y9900486D02*
X11985523Y9710010D01*
X11985523Y9710010D02*
X11985523Y9567153D01*
X11985523Y9567153D02*
X11937904Y9376677D01*
X11937904Y9376677D02*
X11890285Y9281439D01*
X11890285Y9281439D02*
X11795047Y9186200D01*
X11795047Y9186200D02*
X11652190Y9138581D01*
X11652190Y9138581D02*
X11414095Y9138581D01*
X12366476Y10043343D02*
X12414095Y10090962D01*
X12414095Y10090962D02*
X12509333Y10138581D01*
X12509333Y10138581D02*
X12747428Y10138581D01*
X12747428Y10138581D02*
X12842666Y10090962D01*
X12842666Y10090962D02*
X12890285Y10043343D01*
X12890285Y10043343D02*
X12937904Y9948105D01*
X12937904Y9948105D02*
X12937904Y9852867D01*
X12937904Y9852867D02*
X12890285Y9710010D01*
X12890285Y9710010D02*
X12318857Y9138581D01*
X12318857Y9138581D02*
X12937904Y9138581D01*
X11318857Y48238581D02*
X11937904Y48238581D01*
X11937904Y48238581D02*
X11604571Y47857629D01*
X11604571Y47857629D02*
X11747428Y47857629D01*
X11747428Y47857629D02*
X11842666Y47810010D01*
X11842666Y47810010D02*
X11890285Y47762391D01*
X11890285Y47762391D02*
X11937904Y47667153D01*
X11937904Y47667153D02*
X11937904Y47429058D01*
X11937904Y47429058D02*
X11890285Y47333820D01*
X11890285Y47333820D02*
X11842666Y47286200D01*
X11842666Y47286200D02*
X11747428Y47238581D01*
X11747428Y47238581D02*
X11461714Y47238581D01*
X11461714Y47238581D02*
X11366476Y47286200D01*
X11366476Y47286200D02*
X11318857Y47333820D01*
X12223619Y48238581D02*
X12556952Y47238581D01*
X12556952Y47238581D02*
X12890285Y48238581D01*
X13128381Y48238581D02*
X13747428Y48238581D01*
X13747428Y48238581D02*
X13414095Y47857629D01*
X13414095Y47857629D02*
X13556952Y47857629D01*
X13556952Y47857629D02*
X13652190Y47810010D01*
X13652190Y47810010D02*
X13699809Y47762391D01*
X13699809Y47762391D02*
X13747428Y47667153D01*
X13747428Y47667153D02*
X13747428Y47429058D01*
X13747428Y47429058D02*
X13699809Y47333820D01*
X13699809Y47333820D02*
X13652190Y47286200D01*
X13652190Y47286200D02*
X13556952Y47238581D01*
X13556952Y47238581D02*
X13271238Y47238581D01*
X13271238Y47238581D02*
X13176000Y47286200D01*
X13176000Y47286200D02*
X13128381Y47333820D01*
X29559714Y17710962D02*
X29464476Y17758581D01*
X29464476Y17758581D02*
X29321619Y17758581D01*
X29321619Y17758581D02*
X29178762Y17710962D01*
X29178762Y17710962D02*
X29083524Y17615724D01*
X29083524Y17615724D02*
X29035905Y17520486D01*
X29035905Y17520486D02*
X28988286Y17330010D01*
X28988286Y17330010D02*
X28988286Y17187153D01*
X28988286Y17187153D02*
X29035905Y16996677D01*
X29035905Y16996677D02*
X29083524Y16901439D01*
X29083524Y16901439D02*
X29178762Y16806200D01*
X29178762Y16806200D02*
X29321619Y16758581D01*
X29321619Y16758581D02*
X29416857Y16758581D01*
X29416857Y16758581D02*
X29559714Y16806200D01*
X29559714Y16806200D02*
X29607333Y16853820D01*
X29607333Y16853820D02*
X29607333Y17187153D01*
X29607333Y17187153D02*
X29416857Y17187153D01*
X30035905Y16758581D02*
X30035905Y17758581D01*
X30035905Y17758581D02*
X30416857Y17758581D01*
X30416857Y17758581D02*
X30512095Y17710962D01*
X30512095Y17710962D02*
X30559714Y17663343D01*
X30559714Y17663343D02*
X30607333Y17568105D01*
X30607333Y17568105D02*
X30607333Y17425248D01*
X30607333Y17425248D02*
X30559714Y17330010D01*
X30559714Y17330010D02*
X30512095Y17282391D01*
X30512095Y17282391D02*
X30416857Y17234772D01*
X30416857Y17234772D02*
X30035905Y17234772D01*
X31035905Y16758581D02*
X31035905Y17758581D01*
X31702571Y17758581D02*
X31893047Y17758581D01*
X31893047Y17758581D02*
X31988285Y17710962D01*
X31988285Y17710962D02*
X32083523Y17615724D01*
X32083523Y17615724D02*
X32131142Y17425248D01*
X32131142Y17425248D02*
X32131142Y17091915D01*
X32131142Y17091915D02*
X32083523Y16901439D01*
X32083523Y16901439D02*
X31988285Y16806200D01*
X31988285Y16806200D02*
X31893047Y16758581D01*
X31893047Y16758581D02*
X31702571Y16758581D01*
X31702571Y16758581D02*
X31607333Y16806200D01*
X31607333Y16806200D02*
X31512095Y16901439D01*
X31512095Y16901439D02*
X31464476Y17091915D01*
X31464476Y17091915D02*
X31464476Y17425248D01*
X31464476Y17425248D02*
X31512095Y17615724D01*
X31512095Y17615724D02*
X31607333Y17710962D01*
X31607333Y17710962D02*
X31702571Y17758581D01*
X32988285Y17425248D02*
X32988285Y16758581D01*
X32750190Y17806200D02*
X32512095Y17091915D01*
X32512095Y17091915D02*
X33131142Y17091915D01*
X11937904Y35490962D02*
X11842666Y35538581D01*
X11842666Y35538581D02*
X11699809Y35538581D01*
X11699809Y35538581D02*
X11556952Y35490962D01*
X11556952Y35490962D02*
X11461714Y35395724D01*
X11461714Y35395724D02*
X11414095Y35300486D01*
X11414095Y35300486D02*
X11366476Y35110010D01*
X11366476Y35110010D02*
X11366476Y34967153D01*
X11366476Y34967153D02*
X11414095Y34776677D01*
X11414095Y34776677D02*
X11461714Y34681439D01*
X11461714Y34681439D02*
X11556952Y34586200D01*
X11556952Y34586200D02*
X11699809Y34538581D01*
X11699809Y34538581D02*
X11795047Y34538581D01*
X11795047Y34538581D02*
X11937904Y34586200D01*
X11937904Y34586200D02*
X11985523Y34633820D01*
X11985523Y34633820D02*
X11985523Y34967153D01*
X11985523Y34967153D02*
X11795047Y34967153D01*
X12414095Y34538581D02*
X12414095Y35538581D01*
X12414095Y35538581D02*
X12795047Y35538581D01*
X12795047Y35538581D02*
X12890285Y35490962D01*
X12890285Y35490962D02*
X12937904Y35443343D01*
X12937904Y35443343D02*
X12985523Y35348105D01*
X12985523Y35348105D02*
X12985523Y35205248D01*
X12985523Y35205248D02*
X12937904Y35110010D01*
X12937904Y35110010D02*
X12890285Y35062391D01*
X12890285Y35062391D02*
X12795047Y35014772D01*
X12795047Y35014772D02*
X12414095Y35014772D01*
X13414095Y34538581D02*
X13414095Y35538581D01*
X14080761Y35538581D02*
X14271237Y35538581D01*
X14271237Y35538581D02*
X14366475Y35490962D01*
X14366475Y35490962D02*
X14461713Y35395724D01*
X14461713Y35395724D02*
X14509332Y35205248D01*
X14509332Y35205248D02*
X14509332Y34871915D01*
X14509332Y34871915D02*
X14461713Y34681439D01*
X14461713Y34681439D02*
X14366475Y34586200D01*
X14366475Y34586200D02*
X14271237Y34538581D01*
X14271237Y34538581D02*
X14080761Y34538581D01*
X14080761Y34538581D02*
X13985523Y34586200D01*
X13985523Y34586200D02*
X13890285Y34681439D01*
X13890285Y34681439D02*
X13842666Y34871915D01*
X13842666Y34871915D02*
X13842666Y35205248D01*
X13842666Y35205248D02*
X13890285Y35395724D01*
X13890285Y35395724D02*
X13985523Y35490962D01*
X13985523Y35490962D02*
X14080761Y35538581D01*
X14842666Y35538581D02*
X15461713Y35538581D01*
X15461713Y35538581D02*
X15128380Y35157629D01*
X15128380Y35157629D02*
X15271237Y35157629D01*
X15271237Y35157629D02*
X15366475Y35110010D01*
X15366475Y35110010D02*
X15414094Y35062391D01*
X15414094Y35062391D02*
X15461713Y34967153D01*
X15461713Y34967153D02*
X15461713Y34729058D01*
X15461713Y34729058D02*
X15414094Y34633820D01*
X15414094Y34633820D02*
X15366475Y34586200D01*
X15366475Y34586200D02*
X15271237Y34538581D01*
X15271237Y34538581D02*
X14985523Y34538581D01*
X14985523Y34538581D02*
X14890285Y34586200D01*
X14890285Y34586200D02*
X14842666Y34633820D01*
X16366475Y35538581D02*
X15890285Y35538581D01*
X15890285Y35538581D02*
X15842666Y35062391D01*
X15842666Y35062391D02*
X15890285Y35110010D01*
X15890285Y35110010D02*
X15985523Y35157629D01*
X15985523Y35157629D02*
X16223618Y35157629D01*
X16223618Y35157629D02*
X16318856Y35110010D01*
X16318856Y35110010D02*
X16366475Y35062391D01*
X16366475Y35062391D02*
X16414094Y34967153D01*
X16414094Y34967153D02*
X16414094Y34729058D01*
X16414094Y34729058D02*
X16366475Y34633820D01*
X16366475Y34633820D02*
X16318856Y34586200D01*
X16318856Y34586200D02*
X16223618Y34538581D01*
X16223618Y34538581D02*
X15985523Y34538581D01*
X15985523Y34538581D02*
X15890285Y34586200D01*
X15890285Y34586200D02*
X15842666Y34633820D01*
X11937904Y25330962D02*
X11842666Y25378581D01*
X11842666Y25378581D02*
X11699809Y25378581D01*
X11699809Y25378581D02*
X11556952Y25330962D01*
X11556952Y25330962D02*
X11461714Y25235724D01*
X11461714Y25235724D02*
X11414095Y25140486D01*
X11414095Y25140486D02*
X11366476Y24950010D01*
X11366476Y24950010D02*
X11366476Y24807153D01*
X11366476Y24807153D02*
X11414095Y24616677D01*
X11414095Y24616677D02*
X11461714Y24521439D01*
X11461714Y24521439D02*
X11556952Y24426200D01*
X11556952Y24426200D02*
X11699809Y24378581D01*
X11699809Y24378581D02*
X11795047Y24378581D01*
X11795047Y24378581D02*
X11937904Y24426200D01*
X11937904Y24426200D02*
X11985523Y24473820D01*
X11985523Y24473820D02*
X11985523Y24807153D01*
X11985523Y24807153D02*
X11795047Y24807153D01*
X12414095Y24378581D02*
X12414095Y25378581D01*
X12414095Y25378581D02*
X12795047Y25378581D01*
X12795047Y25378581D02*
X12890285Y25330962D01*
X12890285Y25330962D02*
X12937904Y25283343D01*
X12937904Y25283343D02*
X12985523Y25188105D01*
X12985523Y25188105D02*
X12985523Y25045248D01*
X12985523Y25045248D02*
X12937904Y24950010D01*
X12937904Y24950010D02*
X12890285Y24902391D01*
X12890285Y24902391D02*
X12795047Y24854772D01*
X12795047Y24854772D02*
X12414095Y24854772D01*
X13414095Y24378581D02*
X13414095Y25378581D01*
X14080761Y25378581D02*
X14271237Y25378581D01*
X14271237Y25378581D02*
X14366475Y25330962D01*
X14366475Y25330962D02*
X14461713Y25235724D01*
X14461713Y25235724D02*
X14509332Y25045248D01*
X14509332Y25045248D02*
X14509332Y24711915D01*
X14509332Y24711915D02*
X14461713Y24521439D01*
X14461713Y24521439D02*
X14366475Y24426200D01*
X14366475Y24426200D02*
X14271237Y24378581D01*
X14271237Y24378581D02*
X14080761Y24378581D01*
X14080761Y24378581D02*
X13985523Y24426200D01*
X13985523Y24426200D02*
X13890285Y24521439D01*
X13890285Y24521439D02*
X13842666Y24711915D01*
X13842666Y24711915D02*
X13842666Y25045248D01*
X13842666Y25045248D02*
X13890285Y25235724D01*
X13890285Y25235724D02*
X13985523Y25330962D01*
X13985523Y25330962D02*
X14080761Y25378581D01*
X14890285Y25283343D02*
X14937904Y25330962D01*
X14937904Y25330962D02*
X15033142Y25378581D01*
X15033142Y25378581D02*
X15271237Y25378581D01*
X15271237Y25378581D02*
X15366475Y25330962D01*
X15366475Y25330962D02*
X15414094Y25283343D01*
X15414094Y25283343D02*
X15461713Y25188105D01*
X15461713Y25188105D02*
X15461713Y25092867D01*
X15461713Y25092867D02*
X15414094Y24950010D01*
X15414094Y24950010D02*
X14842666Y24378581D01*
X14842666Y24378581D02*
X15461713Y24378581D01*
X16318856Y25378581D02*
X16128380Y25378581D01*
X16128380Y25378581D02*
X16033142Y25330962D01*
X16033142Y25330962D02*
X15985523Y25283343D01*
X15985523Y25283343D02*
X15890285Y25140486D01*
X15890285Y25140486D02*
X15842666Y24950010D01*
X15842666Y24950010D02*
X15842666Y24569058D01*
X15842666Y24569058D02*
X15890285Y24473820D01*
X15890285Y24473820D02*
X15937904Y24426200D01*
X15937904Y24426200D02*
X16033142Y24378581D01*
X16033142Y24378581D02*
X16223618Y24378581D01*
X16223618Y24378581D02*
X16318856Y24426200D01*
X16318856Y24426200D02*
X16366475Y24473820D01*
X16366475Y24473820D02*
X16414094Y24569058D01*
X16414094Y24569058D02*
X16414094Y24807153D01*
X16414094Y24807153D02*
X16366475Y24902391D01*
X16366475Y24902391D02*
X16318856Y24950010D01*
X16318856Y24950010D02*
X16223618Y24997629D01*
X16223618Y24997629D02*
X16033142Y24997629D01*
X16033142Y24997629D02*
X15937904Y24950010D01*
X15937904Y24950010D02*
X15890285Y24902391D01*
X15890285Y24902391D02*
X15842666Y24807153D01*
X11256285Y45225111D02*
X11589618Y45225111D01*
X11732475Y44701301D02*
X11256285Y44701301D01*
X11256285Y44701301D02*
X11256285Y45701301D01*
X11256285Y45701301D02*
X11732475Y45701301D01*
X12161047Y44701301D02*
X12161047Y45701301D01*
X12161047Y45701301D02*
X12732475Y44701301D01*
X12732475Y44701301D02*
X12732475Y45701301D01*
X13922951Y45748920D02*
X13065809Y44463206D01*
X14827713Y44701301D02*
X14494380Y45177492D01*
X14256285Y44701301D02*
X14256285Y45701301D01*
X14256285Y45701301D02*
X14637237Y45701301D01*
X14637237Y45701301D02*
X14732475Y45653682D01*
X14732475Y45653682D02*
X14780094Y45606063D01*
X14780094Y45606063D02*
X14827713Y45510825D01*
X14827713Y45510825D02*
X14827713Y45367968D01*
X14827713Y45367968D02*
X14780094Y45272730D01*
X14780094Y45272730D02*
X14732475Y45225111D01*
X14732475Y45225111D02*
X14637237Y45177492D01*
X14637237Y45177492D02*
X14256285Y45177492D01*
X15256285Y45225111D02*
X15589618Y45225111D01*
X15732475Y44701301D02*
X15256285Y44701301D01*
X15256285Y44701301D02*
X15256285Y45701301D01*
X15256285Y45701301D02*
X15732475Y45701301D01*
X16113428Y44748920D02*
X16256285Y44701301D01*
X16256285Y44701301D02*
X16494380Y44701301D01*
X16494380Y44701301D02*
X16589618Y44748920D01*
X16589618Y44748920D02*
X16637237Y44796540D01*
X16637237Y44796540D02*
X16684856Y44891778D01*
X16684856Y44891778D02*
X16684856Y44987016D01*
X16684856Y44987016D02*
X16637237Y45082254D01*
X16637237Y45082254D02*
X16589618Y45129873D01*
X16589618Y45129873D02*
X16494380Y45177492D01*
X16494380Y45177492D02*
X16303904Y45225111D01*
X16303904Y45225111D02*
X16208666Y45272730D01*
X16208666Y45272730D02*
X16161047Y45320349D01*
X16161047Y45320349D02*
X16113428Y45415587D01*
X16113428Y45415587D02*
X16113428Y45510825D01*
X16113428Y45510825D02*
X16161047Y45606063D01*
X16161047Y45606063D02*
X16208666Y45653682D01*
X16208666Y45653682D02*
X16303904Y45701301D01*
X16303904Y45701301D02*
X16541999Y45701301D01*
X16541999Y45701301D02*
X16684856Y45653682D01*
X17113428Y45225111D02*
X17446761Y45225111D01*
X17589618Y44701301D02*
X17113428Y44701301D01*
X17113428Y44701301D02*
X17113428Y45701301D01*
X17113428Y45701301D02*
X17589618Y45701301D01*
X17875333Y45701301D02*
X18446761Y45701301D01*
X18161047Y44701301D02*
X18161047Y45701301D01*
X11937904Y12630962D02*
X11842666Y12678581D01*
X11842666Y12678581D02*
X11699809Y12678581D01*
X11699809Y12678581D02*
X11556952Y12630962D01*
X11556952Y12630962D02*
X11461714Y12535724D01*
X11461714Y12535724D02*
X11414095Y12440486D01*
X11414095Y12440486D02*
X11366476Y12250010D01*
X11366476Y12250010D02*
X11366476Y12107153D01*
X11366476Y12107153D02*
X11414095Y11916677D01*
X11414095Y11916677D02*
X11461714Y11821439D01*
X11461714Y11821439D02*
X11556952Y11726200D01*
X11556952Y11726200D02*
X11699809Y11678581D01*
X11699809Y11678581D02*
X11795047Y11678581D01*
X11795047Y11678581D02*
X11937904Y11726200D01*
X11937904Y11726200D02*
X11985523Y11773820D01*
X11985523Y11773820D02*
X11985523Y12107153D01*
X11985523Y12107153D02*
X11795047Y12107153D01*
X12414095Y11678581D02*
X12414095Y12678581D01*
X12414095Y12678581D02*
X12795047Y12678581D01*
X12795047Y12678581D02*
X12890285Y12630962D01*
X12890285Y12630962D02*
X12937904Y12583343D01*
X12937904Y12583343D02*
X12985523Y12488105D01*
X12985523Y12488105D02*
X12985523Y12345248D01*
X12985523Y12345248D02*
X12937904Y12250010D01*
X12937904Y12250010D02*
X12890285Y12202391D01*
X12890285Y12202391D02*
X12795047Y12154772D01*
X12795047Y12154772D02*
X12414095Y12154772D01*
X13414095Y11678581D02*
X13414095Y12678581D01*
X14080761Y12678581D02*
X14271237Y12678581D01*
X14271237Y12678581D02*
X14366475Y12630962D01*
X14366475Y12630962D02*
X14461713Y12535724D01*
X14461713Y12535724D02*
X14509332Y12345248D01*
X14509332Y12345248D02*
X14509332Y12011915D01*
X14509332Y12011915D02*
X14461713Y11821439D01*
X14461713Y11821439D02*
X14366475Y11726200D01*
X14366475Y11726200D02*
X14271237Y11678581D01*
X14271237Y11678581D02*
X14080761Y11678581D01*
X14080761Y11678581D02*
X13985523Y11726200D01*
X13985523Y11726200D02*
X13890285Y11821439D01*
X13890285Y11821439D02*
X13842666Y12011915D01*
X13842666Y12011915D02*
X13842666Y12345248D01*
X13842666Y12345248D02*
X13890285Y12535724D01*
X13890285Y12535724D02*
X13985523Y12630962D01*
X13985523Y12630962D02*
X14080761Y12678581D01*
X15461713Y11678581D02*
X14890285Y11678581D01*
X15175999Y11678581D02*
X15175999Y12678581D01*
X15175999Y12678581D02*
X15080761Y12535724D01*
X15080761Y12535724D02*
X14985523Y12440486D01*
X14985523Y12440486D02*
X14890285Y12392867D01*
X15795047Y12678581D02*
X16414094Y12678581D01*
X16414094Y12678581D02*
X16080761Y12297629D01*
X16080761Y12297629D02*
X16223618Y12297629D01*
X16223618Y12297629D02*
X16318856Y12250010D01*
X16318856Y12250010D02*
X16366475Y12202391D01*
X16366475Y12202391D02*
X16414094Y12107153D01*
X16414094Y12107153D02*
X16414094Y11869058D01*
X16414094Y11869058D02*
X16366475Y11773820D01*
X16366475Y11773820D02*
X16318856Y11726200D01*
X16318856Y11726200D02*
X16223618Y11678581D01*
X16223618Y11678581D02*
X15937904Y11678581D01*
X15937904Y11678581D02*
X15842666Y11726200D01*
X15842666Y11726200D02*
X15795047Y11773820D01*
X17556951Y12726200D02*
X16699809Y11440486D01*
X17890285Y11678581D02*
X17890285Y12678581D01*
X17890285Y12678581D02*
X18223618Y11964296D01*
X18223618Y11964296D02*
X18556951Y12678581D01*
X18556951Y12678581D02*
X18556951Y11678581D01*
X18890285Y12678581D02*
X19461713Y12678581D01*
X19175999Y11678581D02*
X19175999Y12678581D01*
X20366475Y11773820D02*
X20318856Y11726200D01*
X20318856Y11726200D02*
X20175999Y11678581D01*
X20175999Y11678581D02*
X20080761Y11678581D01*
X20080761Y11678581D02*
X19937904Y11726200D01*
X19937904Y11726200D02*
X19842666Y11821439D01*
X19842666Y11821439D02*
X19795047Y11916677D01*
X19795047Y11916677D02*
X19747428Y12107153D01*
X19747428Y12107153D02*
X19747428Y12250010D01*
X19747428Y12250010D02*
X19795047Y12440486D01*
X19795047Y12440486D02*
X19842666Y12535724D01*
X19842666Y12535724D02*
X19937904Y12630962D01*
X19937904Y12630962D02*
X20080761Y12678581D01*
X20080761Y12678581D02*
X20175999Y12678581D01*
X20175999Y12678581D02*
X20318856Y12630962D01*
X20318856Y12630962D02*
X20366475Y12583343D01*
X20795047Y11678581D02*
X20795047Y12678581D01*
X21366475Y11678581D02*
X20937904Y12250010D01*
X21366475Y12678581D02*
X20795047Y12107153D01*
X11937904Y20250962D02*
X11842666Y20298581D01*
X11842666Y20298581D02*
X11699809Y20298581D01*
X11699809Y20298581D02*
X11556952Y20250962D01*
X11556952Y20250962D02*
X11461714Y20155724D01*
X11461714Y20155724D02*
X11414095Y20060486D01*
X11414095Y20060486D02*
X11366476Y19870010D01*
X11366476Y19870010D02*
X11366476Y19727153D01*
X11366476Y19727153D02*
X11414095Y19536677D01*
X11414095Y19536677D02*
X11461714Y19441439D01*
X11461714Y19441439D02*
X11556952Y19346200D01*
X11556952Y19346200D02*
X11699809Y19298581D01*
X11699809Y19298581D02*
X11795047Y19298581D01*
X11795047Y19298581D02*
X11937904Y19346200D01*
X11937904Y19346200D02*
X11985523Y19393820D01*
X11985523Y19393820D02*
X11985523Y19727153D01*
X11985523Y19727153D02*
X11795047Y19727153D01*
X12414095Y19298581D02*
X12414095Y20298581D01*
X12414095Y20298581D02*
X12795047Y20298581D01*
X12795047Y20298581D02*
X12890285Y20250962D01*
X12890285Y20250962D02*
X12937904Y20203343D01*
X12937904Y20203343D02*
X12985523Y20108105D01*
X12985523Y20108105D02*
X12985523Y19965248D01*
X12985523Y19965248D02*
X12937904Y19870010D01*
X12937904Y19870010D02*
X12890285Y19822391D01*
X12890285Y19822391D02*
X12795047Y19774772D01*
X12795047Y19774772D02*
X12414095Y19774772D01*
X13414095Y19298581D02*
X13414095Y20298581D01*
X14080761Y20298581D02*
X14271237Y20298581D01*
X14271237Y20298581D02*
X14366475Y20250962D01*
X14366475Y20250962D02*
X14461713Y20155724D01*
X14461713Y20155724D02*
X14509332Y19965248D01*
X14509332Y19965248D02*
X14509332Y19631915D01*
X14509332Y19631915D02*
X14461713Y19441439D01*
X14461713Y19441439D02*
X14366475Y19346200D01*
X14366475Y19346200D02*
X14271237Y19298581D01*
X14271237Y19298581D02*
X14080761Y19298581D01*
X14080761Y19298581D02*
X13985523Y19346200D01*
X13985523Y19346200D02*
X13890285Y19441439D01*
X13890285Y19441439D02*
X13842666Y19631915D01*
X13842666Y19631915D02*
X13842666Y19965248D01*
X13842666Y19965248D02*
X13890285Y20155724D01*
X13890285Y20155724D02*
X13985523Y20250962D01*
X13985523Y20250962D02*
X14080761Y20298581D01*
X15461713Y19298581D02*
X14890285Y19298581D01*
X15175999Y19298581D02*
X15175999Y20298581D01*
X15175999Y20298581D02*
X15080761Y20155724D01*
X15080761Y20155724D02*
X14985523Y20060486D01*
X14985523Y20060486D02*
X14890285Y20012867D01*
X16318856Y19965248D02*
X16318856Y19298581D01*
X16080761Y20346200D02*
X15842666Y19631915D01*
X15842666Y19631915D02*
X16461713Y19631915D01*
X17556951Y20346200D02*
X16699809Y19060486D01*
X17890285Y19298581D02*
X17890285Y20298581D01*
X17890285Y20298581D02*
X18223618Y19584296D01*
X18223618Y19584296D02*
X18556951Y20298581D01*
X18556951Y20298581D02*
X18556951Y19298581D01*
X18890285Y20298581D02*
X19461713Y20298581D01*
X19175999Y19298581D02*
X19175999Y20298581D01*
X19795047Y19298581D02*
X19795047Y20298581D01*
X19795047Y20298581D02*
X20128380Y19584296D01*
X20128380Y19584296D02*
X20461713Y20298581D01*
X20461713Y20298581D02*
X20461713Y19298581D01*
X20890285Y19346200D02*
X21033142Y19298581D01*
X21033142Y19298581D02*
X21271237Y19298581D01*
X21271237Y19298581D02*
X21366475Y19346200D01*
X21366475Y19346200D02*
X21414094Y19393820D01*
X21414094Y19393820D02*
X21461713Y19489058D01*
X21461713Y19489058D02*
X21461713Y19584296D01*
X21461713Y19584296D02*
X21414094Y19679534D01*
X21414094Y19679534D02*
X21366475Y19727153D01*
X21366475Y19727153D02*
X21271237Y19774772D01*
X21271237Y19774772D02*
X21080761Y19822391D01*
X21080761Y19822391D02*
X20985523Y19870010D01*
X20985523Y19870010D02*
X20937904Y19917629D01*
X20937904Y19917629D02*
X20890285Y20012867D01*
X20890285Y20012867D02*
X20890285Y20108105D01*
X20890285Y20108105D02*
X20937904Y20203343D01*
X20937904Y20203343D02*
X20985523Y20250962D01*
X20985523Y20250962D02*
X21080761Y20298581D01*
X21080761Y20298581D02*
X21318856Y20298581D01*
X21318856Y20298581D02*
X21461713Y20250962D01*
X11937904Y15170962D02*
X11842666Y15218581D01*
X11842666Y15218581D02*
X11699809Y15218581D01*
X11699809Y15218581D02*
X11556952Y15170962D01*
X11556952Y15170962D02*
X11461714Y15075724D01*
X11461714Y15075724D02*
X11414095Y14980486D01*
X11414095Y14980486D02*
X11366476Y14790010D01*
X11366476Y14790010D02*
X11366476Y14647153D01*
X11366476Y14647153D02*
X11414095Y14456677D01*
X11414095Y14456677D02*
X11461714Y14361439D01*
X11461714Y14361439D02*
X11556952Y14266200D01*
X11556952Y14266200D02*
X11699809Y14218581D01*
X11699809Y14218581D02*
X11795047Y14218581D01*
X11795047Y14218581D02*
X11937904Y14266200D01*
X11937904Y14266200D02*
X11985523Y14313820D01*
X11985523Y14313820D02*
X11985523Y14647153D01*
X11985523Y14647153D02*
X11795047Y14647153D01*
X12414095Y14218581D02*
X12414095Y15218581D01*
X12414095Y15218581D02*
X12985523Y14218581D01*
X12985523Y14218581D02*
X12985523Y15218581D01*
X13461714Y14218581D02*
X13461714Y15218581D01*
X13461714Y15218581D02*
X13699809Y15218581D01*
X13699809Y15218581D02*
X13842666Y15170962D01*
X13842666Y15170962D02*
X13937904Y15075724D01*
X13937904Y15075724D02*
X13985523Y14980486D01*
X13985523Y14980486D02*
X14033142Y14790010D01*
X14033142Y14790010D02*
X14033142Y14647153D01*
X14033142Y14647153D02*
X13985523Y14456677D01*
X13985523Y14456677D02*
X13937904Y14361439D01*
X13937904Y14361439D02*
X13842666Y14266200D01*
X13842666Y14266200D02*
X13699809Y14218581D01*
X13699809Y14218581D02*
X13461714Y14218581D01*
X30924714Y4058581D02*
X30924714Y5058581D01*
X30924714Y5058581D02*
X31162809Y5058581D01*
X31162809Y5058581D02*
X31305666Y5010962D01*
X31305666Y5010962D02*
X31400904Y4915724D01*
X31400904Y4915724D02*
X31448523Y4820486D01*
X31448523Y4820486D02*
X31496142Y4630010D01*
X31496142Y4630010D02*
X31496142Y4487153D01*
X31496142Y4487153D02*
X31448523Y4296677D01*
X31448523Y4296677D02*
X31400904Y4201439D01*
X31400904Y4201439D02*
X31305666Y4106200D01*
X31305666Y4106200D02*
X31162809Y4058581D01*
X31162809Y4058581D02*
X30924714Y4058581D01*
X32115190Y5058581D02*
X32210428Y5058581D01*
X32210428Y5058581D02*
X32305666Y5010962D01*
X32305666Y5010962D02*
X32353285Y4963343D01*
X32353285Y4963343D02*
X32400904Y4868105D01*
X32400904Y4868105D02*
X32448523Y4677629D01*
X32448523Y4677629D02*
X32448523Y4439534D01*
X32448523Y4439534D02*
X32400904Y4249058D01*
X32400904Y4249058D02*
X32353285Y4153820D01*
X32353285Y4153820D02*
X32305666Y4106200D01*
X32305666Y4106200D02*
X32210428Y4058581D01*
X32210428Y4058581D02*
X32115190Y4058581D01*
X32115190Y4058581D02*
X32019952Y4106200D01*
X32019952Y4106200D02*
X31972333Y4153820D01*
X31972333Y4153820D02*
X31924714Y4249058D01*
X31924714Y4249058D02*
X31877095Y4439534D01*
X31877095Y4439534D02*
X31877095Y4677629D01*
X31877095Y4677629D02*
X31924714Y4868105D01*
X31924714Y4868105D02*
X31972333Y4963343D01*
X31972333Y4963343D02*
X32019952Y5010962D01*
X32019952Y5010962D02*
X32115190Y5058581D01*
X29051714Y15170962D02*
X28956476Y15218581D01*
X28956476Y15218581D02*
X28813619Y15218581D01*
X28813619Y15218581D02*
X28670762Y15170962D01*
X28670762Y15170962D02*
X28575524Y15075724D01*
X28575524Y15075724D02*
X28527905Y14980486D01*
X28527905Y14980486D02*
X28480286Y14790010D01*
X28480286Y14790010D02*
X28480286Y14647153D01*
X28480286Y14647153D02*
X28527905Y14456677D01*
X28527905Y14456677D02*
X28575524Y14361439D01*
X28575524Y14361439D02*
X28670762Y14266200D01*
X28670762Y14266200D02*
X28813619Y14218581D01*
X28813619Y14218581D02*
X28908857Y14218581D01*
X28908857Y14218581D02*
X29051714Y14266200D01*
X29051714Y14266200D02*
X29099333Y14313820D01*
X29099333Y14313820D02*
X29099333Y14647153D01*
X29099333Y14647153D02*
X28908857Y14647153D01*
X29527905Y14218581D02*
X29527905Y15218581D01*
X29527905Y15218581D02*
X29908857Y15218581D01*
X29908857Y15218581D02*
X30004095Y15170962D01*
X30004095Y15170962D02*
X30051714Y15123343D01*
X30051714Y15123343D02*
X30099333Y15028105D01*
X30099333Y15028105D02*
X30099333Y14885248D01*
X30099333Y14885248D02*
X30051714Y14790010D01*
X30051714Y14790010D02*
X30004095Y14742391D01*
X30004095Y14742391D02*
X29908857Y14694772D01*
X29908857Y14694772D02*
X29527905Y14694772D01*
X30527905Y14218581D02*
X30527905Y15218581D01*
X31194571Y15218581D02*
X31385047Y15218581D01*
X31385047Y15218581D02*
X31480285Y15170962D01*
X31480285Y15170962D02*
X31575523Y15075724D01*
X31575523Y15075724D02*
X31623142Y14885248D01*
X31623142Y14885248D02*
X31623142Y14551915D01*
X31623142Y14551915D02*
X31575523Y14361439D01*
X31575523Y14361439D02*
X31480285Y14266200D01*
X31480285Y14266200D02*
X31385047Y14218581D01*
X31385047Y14218581D02*
X31194571Y14218581D01*
X31194571Y14218581D02*
X31099333Y14266200D01*
X31099333Y14266200D02*
X31004095Y14361439D01*
X31004095Y14361439D02*
X30956476Y14551915D01*
X30956476Y14551915D02*
X30956476Y14885248D01*
X30956476Y14885248D02*
X31004095Y15075724D01*
X31004095Y15075724D02*
X31099333Y15170962D01*
X31099333Y15170962D02*
X31194571Y15218581D01*
X32242190Y15218581D02*
X32337428Y15218581D01*
X32337428Y15218581D02*
X32432666Y15170962D01*
X32432666Y15170962D02*
X32480285Y15123343D01*
X32480285Y15123343D02*
X32527904Y15028105D01*
X32527904Y15028105D02*
X32575523Y14837629D01*
X32575523Y14837629D02*
X32575523Y14599534D01*
X32575523Y14599534D02*
X32527904Y14409058D01*
X32527904Y14409058D02*
X32480285Y14313820D01*
X32480285Y14313820D02*
X32432666Y14266200D01*
X32432666Y14266200D02*
X32337428Y14218581D01*
X32337428Y14218581D02*
X32242190Y14218581D01*
X32242190Y14218581D02*
X32146952Y14266200D01*
X32146952Y14266200D02*
X32099333Y14313820D01*
X32099333Y14313820D02*
X32051714Y14409058D01*
X32051714Y14409058D02*
X32004095Y14599534D01*
X32004095Y14599534D02*
X32004095Y14837629D01*
X32004095Y14837629D02*
X32051714Y15028105D01*
X32051714Y15028105D02*
X32099333Y15123343D01*
X32099333Y15123343D02*
X32146952Y15170962D01*
X32146952Y15170962D02*
X32242190Y15218581D01*
X28607333Y22790962D02*
X28512095Y22838581D01*
X28512095Y22838581D02*
X28369238Y22838581D01*
X28369238Y22838581D02*
X28226381Y22790962D01*
X28226381Y22790962D02*
X28131143Y22695724D01*
X28131143Y22695724D02*
X28083524Y22600486D01*
X28083524Y22600486D02*
X28035905Y22410010D01*
X28035905Y22410010D02*
X28035905Y22267153D01*
X28035905Y22267153D02*
X28083524Y22076677D01*
X28083524Y22076677D02*
X28131143Y21981439D01*
X28131143Y21981439D02*
X28226381Y21886200D01*
X28226381Y21886200D02*
X28369238Y21838581D01*
X28369238Y21838581D02*
X28464476Y21838581D01*
X28464476Y21838581D02*
X28607333Y21886200D01*
X28607333Y21886200D02*
X28654952Y21933820D01*
X28654952Y21933820D02*
X28654952Y22267153D01*
X28654952Y22267153D02*
X28464476Y22267153D01*
X29083524Y21838581D02*
X29083524Y22838581D01*
X29083524Y22838581D02*
X29464476Y22838581D01*
X29464476Y22838581D02*
X29559714Y22790962D01*
X29559714Y22790962D02*
X29607333Y22743343D01*
X29607333Y22743343D02*
X29654952Y22648105D01*
X29654952Y22648105D02*
X29654952Y22505248D01*
X29654952Y22505248D02*
X29607333Y22410010D01*
X29607333Y22410010D02*
X29559714Y22362391D01*
X29559714Y22362391D02*
X29464476Y22314772D01*
X29464476Y22314772D02*
X29083524Y22314772D01*
X30083524Y21838581D02*
X30083524Y22838581D01*
X30750190Y22838581D02*
X30940666Y22838581D01*
X30940666Y22838581D02*
X31035904Y22790962D01*
X31035904Y22790962D02*
X31131142Y22695724D01*
X31131142Y22695724D02*
X31178761Y22505248D01*
X31178761Y22505248D02*
X31178761Y22171915D01*
X31178761Y22171915D02*
X31131142Y21981439D01*
X31131142Y21981439D02*
X31035904Y21886200D01*
X31035904Y21886200D02*
X30940666Y21838581D01*
X30940666Y21838581D02*
X30750190Y21838581D01*
X30750190Y21838581D02*
X30654952Y21886200D01*
X30654952Y21886200D02*
X30559714Y21981439D01*
X30559714Y21981439D02*
X30512095Y22171915D01*
X30512095Y22171915D02*
X30512095Y22505248D01*
X30512095Y22505248D02*
X30559714Y22695724D01*
X30559714Y22695724D02*
X30654952Y22790962D01*
X30654952Y22790962D02*
X30750190Y22838581D01*
X32131142Y21838581D02*
X31559714Y21838581D01*
X31845428Y21838581D02*
X31845428Y22838581D01*
X31845428Y22838581D02*
X31750190Y22695724D01*
X31750190Y22695724D02*
X31654952Y22600486D01*
X31654952Y22600486D02*
X31559714Y22552867D01*
X32464476Y22838581D02*
X33131142Y22838581D01*
X33131142Y22838581D02*
X32702571Y21838581D01*
X12318904Y32950962D02*
X12223666Y32998581D01*
X12223666Y32998581D02*
X12080809Y32998581D01*
X12080809Y32998581D02*
X11937952Y32950962D01*
X11937952Y32950962D02*
X11842714Y32855724D01*
X11842714Y32855724D02*
X11795095Y32760486D01*
X11795095Y32760486D02*
X11747476Y32570010D01*
X11747476Y32570010D02*
X11747476Y32427153D01*
X11747476Y32427153D02*
X11795095Y32236677D01*
X11795095Y32236677D02*
X11842714Y32141439D01*
X11842714Y32141439D02*
X11937952Y32046200D01*
X11937952Y32046200D02*
X12080809Y31998581D01*
X12080809Y31998581D02*
X12176047Y31998581D01*
X12176047Y31998581D02*
X12318904Y32046200D01*
X12318904Y32046200D02*
X12366523Y32093820D01*
X12366523Y32093820D02*
X12366523Y32427153D01*
X12366523Y32427153D02*
X12176047Y32427153D01*
X12795095Y31998581D02*
X12795095Y32998581D01*
X12795095Y32998581D02*
X13176047Y32998581D01*
X13176047Y32998581D02*
X13271285Y32950962D01*
X13271285Y32950962D02*
X13318904Y32903343D01*
X13318904Y32903343D02*
X13366523Y32808105D01*
X13366523Y32808105D02*
X13366523Y32665248D01*
X13366523Y32665248D02*
X13318904Y32570010D01*
X13318904Y32570010D02*
X13271285Y32522391D01*
X13271285Y32522391D02*
X13176047Y32474772D01*
X13176047Y32474772D02*
X12795095Y32474772D01*
X13795095Y31998581D02*
X13795095Y32998581D01*
X14461761Y32998581D02*
X14652237Y32998581D01*
X14652237Y32998581D02*
X14747475Y32950962D01*
X14747475Y32950962D02*
X14842713Y32855724D01*
X14842713Y32855724D02*
X14890332Y32665248D01*
X14890332Y32665248D02*
X14890332Y32331915D01*
X14890332Y32331915D02*
X14842713Y32141439D01*
X14842713Y32141439D02*
X14747475Y32046200D01*
X14747475Y32046200D02*
X14652237Y31998581D01*
X14652237Y31998581D02*
X14461761Y31998581D01*
X14461761Y31998581D02*
X14366523Y32046200D01*
X14366523Y32046200D02*
X14271285Y32141439D01*
X14271285Y32141439D02*
X14223666Y32331915D01*
X14223666Y32331915D02*
X14223666Y32665248D01*
X14223666Y32665248D02*
X14271285Y32855724D01*
X14271285Y32855724D02*
X14366523Y32950962D01*
X14366523Y32950962D02*
X14461761Y32998581D01*
X15223666Y32998581D02*
X15842713Y32998581D01*
X15842713Y32998581D02*
X15509380Y32617629D01*
X15509380Y32617629D02*
X15652237Y32617629D01*
X15652237Y32617629D02*
X15747475Y32570010D01*
X15747475Y32570010D02*
X15795094Y32522391D01*
X15795094Y32522391D02*
X15842713Y32427153D01*
X15842713Y32427153D02*
X15842713Y32189058D01*
X15842713Y32189058D02*
X15795094Y32093820D01*
X15795094Y32093820D02*
X15747475Y32046200D01*
X15747475Y32046200D02*
X15652237Y31998581D01*
X15652237Y31998581D02*
X15366523Y31998581D01*
X15366523Y31998581D02*
X15271285Y32046200D01*
X15271285Y32046200D02*
X15223666Y32093820D01*
X16223666Y32903343D02*
X16271285Y32950962D01*
X16271285Y32950962D02*
X16366523Y32998581D01*
X16366523Y32998581D02*
X16604618Y32998581D01*
X16604618Y32998581D02*
X16699856Y32950962D01*
X16699856Y32950962D02*
X16747475Y32903343D01*
X16747475Y32903343D02*
X16795094Y32808105D01*
X16795094Y32808105D02*
X16795094Y32712867D01*
X16795094Y32712867D02*
X16747475Y32570010D01*
X16747475Y32570010D02*
X16176047Y31998581D01*
X16176047Y31998581D02*
X16795094Y31998581D01*
X11937904Y17710962D02*
X11842666Y17758581D01*
X11842666Y17758581D02*
X11699809Y17758581D01*
X11699809Y17758581D02*
X11556952Y17710962D01*
X11556952Y17710962D02*
X11461714Y17615724D01*
X11461714Y17615724D02*
X11414095Y17520486D01*
X11414095Y17520486D02*
X11366476Y17330010D01*
X11366476Y17330010D02*
X11366476Y17187153D01*
X11366476Y17187153D02*
X11414095Y16996677D01*
X11414095Y16996677D02*
X11461714Y16901439D01*
X11461714Y16901439D02*
X11556952Y16806200D01*
X11556952Y16806200D02*
X11699809Y16758581D01*
X11699809Y16758581D02*
X11795047Y16758581D01*
X11795047Y16758581D02*
X11937904Y16806200D01*
X11937904Y16806200D02*
X11985523Y16853820D01*
X11985523Y16853820D02*
X11985523Y17187153D01*
X11985523Y17187153D02*
X11795047Y17187153D01*
X12414095Y16758581D02*
X12414095Y17758581D01*
X12414095Y17758581D02*
X12795047Y17758581D01*
X12795047Y17758581D02*
X12890285Y17710962D01*
X12890285Y17710962D02*
X12937904Y17663343D01*
X12937904Y17663343D02*
X12985523Y17568105D01*
X12985523Y17568105D02*
X12985523Y17425248D01*
X12985523Y17425248D02*
X12937904Y17330010D01*
X12937904Y17330010D02*
X12890285Y17282391D01*
X12890285Y17282391D02*
X12795047Y17234772D01*
X12795047Y17234772D02*
X12414095Y17234772D01*
X13414095Y16758581D02*
X13414095Y17758581D01*
X14080761Y17758581D02*
X14271237Y17758581D01*
X14271237Y17758581D02*
X14366475Y17710962D01*
X14366475Y17710962D02*
X14461713Y17615724D01*
X14461713Y17615724D02*
X14509332Y17425248D01*
X14509332Y17425248D02*
X14509332Y17091915D01*
X14509332Y17091915D02*
X14461713Y16901439D01*
X14461713Y16901439D02*
X14366475Y16806200D01*
X14366475Y16806200D02*
X14271237Y16758581D01*
X14271237Y16758581D02*
X14080761Y16758581D01*
X14080761Y16758581D02*
X13985523Y16806200D01*
X13985523Y16806200D02*
X13890285Y16901439D01*
X13890285Y16901439D02*
X13842666Y17091915D01*
X13842666Y17091915D02*
X13842666Y17425248D01*
X13842666Y17425248D02*
X13890285Y17615724D01*
X13890285Y17615724D02*
X13985523Y17710962D01*
X13985523Y17710962D02*
X14080761Y17758581D01*
X15461713Y16758581D02*
X14890285Y16758581D01*
X15175999Y16758581D02*
X15175999Y17758581D01*
X15175999Y17758581D02*
X15080761Y17615724D01*
X15080761Y17615724D02*
X14985523Y17520486D01*
X14985523Y17520486D02*
X14890285Y17472867D01*
X15842666Y17663343D02*
X15890285Y17710962D01*
X15890285Y17710962D02*
X15985523Y17758581D01*
X15985523Y17758581D02*
X16223618Y17758581D01*
X16223618Y17758581D02*
X16318856Y17710962D01*
X16318856Y17710962D02*
X16366475Y17663343D01*
X16366475Y17663343D02*
X16414094Y17568105D01*
X16414094Y17568105D02*
X16414094Y17472867D01*
X16414094Y17472867D02*
X16366475Y17330010D01*
X16366475Y17330010D02*
X15795047Y16758581D01*
X15795047Y16758581D02*
X16414094Y16758581D01*
X17556951Y17806200D02*
X16699809Y16520486D01*
X17890285Y16758581D02*
X17890285Y17758581D01*
X17890285Y17758581D02*
X18223618Y17044296D01*
X18223618Y17044296D02*
X18556951Y17758581D01*
X18556951Y17758581D02*
X18556951Y16758581D01*
X18890285Y17758581D02*
X19461713Y17758581D01*
X19175999Y16758581D02*
X19175999Y17758581D01*
X19795047Y16758581D02*
X19795047Y17758581D01*
X19795047Y17758581D02*
X20033142Y17758581D01*
X20033142Y17758581D02*
X20175999Y17710962D01*
X20175999Y17710962D02*
X20271237Y17615724D01*
X20271237Y17615724D02*
X20318856Y17520486D01*
X20318856Y17520486D02*
X20366475Y17330010D01*
X20366475Y17330010D02*
X20366475Y17187153D01*
X20366475Y17187153D02*
X20318856Y16996677D01*
X20318856Y16996677D02*
X20271237Y16901439D01*
X20271237Y16901439D02*
X20175999Y16806200D01*
X20175999Y16806200D02*
X20033142Y16758581D01*
X20033142Y16758581D02*
X19795047Y16758581D01*
X20795047Y16758581D02*
X20795047Y17758581D01*
X29559714Y25330962D02*
X29464476Y25378581D01*
X29464476Y25378581D02*
X29321619Y25378581D01*
X29321619Y25378581D02*
X29178762Y25330962D01*
X29178762Y25330962D02*
X29083524Y25235724D01*
X29083524Y25235724D02*
X29035905Y25140486D01*
X29035905Y25140486D02*
X28988286Y24950010D01*
X28988286Y24950010D02*
X28988286Y24807153D01*
X28988286Y24807153D02*
X29035905Y24616677D01*
X29035905Y24616677D02*
X29083524Y24521439D01*
X29083524Y24521439D02*
X29178762Y24426200D01*
X29178762Y24426200D02*
X29321619Y24378581D01*
X29321619Y24378581D02*
X29416857Y24378581D01*
X29416857Y24378581D02*
X29559714Y24426200D01*
X29559714Y24426200D02*
X29607333Y24473820D01*
X29607333Y24473820D02*
X29607333Y24807153D01*
X29607333Y24807153D02*
X29416857Y24807153D01*
X30035905Y24378581D02*
X30035905Y25378581D01*
X30035905Y25378581D02*
X30416857Y25378581D01*
X30416857Y25378581D02*
X30512095Y25330962D01*
X30512095Y25330962D02*
X30559714Y25283343D01*
X30559714Y25283343D02*
X30607333Y25188105D01*
X30607333Y25188105D02*
X30607333Y25045248D01*
X30607333Y25045248D02*
X30559714Y24950010D01*
X30559714Y24950010D02*
X30512095Y24902391D01*
X30512095Y24902391D02*
X30416857Y24854772D01*
X30416857Y24854772D02*
X30035905Y24854772D01*
X31035905Y24378581D02*
X31035905Y25378581D01*
X31702571Y25378581D02*
X31893047Y25378581D01*
X31893047Y25378581D02*
X31988285Y25330962D01*
X31988285Y25330962D02*
X32083523Y25235724D01*
X32083523Y25235724D02*
X32131142Y25045248D01*
X32131142Y25045248D02*
X32131142Y24711915D01*
X32131142Y24711915D02*
X32083523Y24521439D01*
X32083523Y24521439D02*
X31988285Y24426200D01*
X31988285Y24426200D02*
X31893047Y24378581D01*
X31893047Y24378581D02*
X31702571Y24378581D01*
X31702571Y24378581D02*
X31607333Y24426200D01*
X31607333Y24426200D02*
X31512095Y24521439D01*
X31512095Y24521439D02*
X31464476Y24711915D01*
X31464476Y24711915D02*
X31464476Y25045248D01*
X31464476Y25045248D02*
X31512095Y25235724D01*
X31512095Y25235724D02*
X31607333Y25330962D01*
X31607333Y25330962D02*
X31702571Y25378581D01*
X33035904Y25378581D02*
X32559714Y25378581D01*
X32559714Y25378581D02*
X32512095Y24902391D01*
X32512095Y24902391D02*
X32559714Y24950010D01*
X32559714Y24950010D02*
X32654952Y24997629D01*
X32654952Y24997629D02*
X32893047Y24997629D01*
X32893047Y24997629D02*
X32988285Y24950010D01*
X32988285Y24950010D02*
X33035904Y24902391D01*
X33035904Y24902391D02*
X33083523Y24807153D01*
X33083523Y24807153D02*
X33083523Y24569058D01*
X33083523Y24569058D02*
X33035904Y24473820D01*
X33035904Y24473820D02*
X32988285Y24426200D01*
X32988285Y24426200D02*
X32893047Y24378581D01*
X32893047Y24378581D02*
X32654952Y24378581D01*
X32654952Y24378581D02*
X32559714Y24426200D01*
X32559714Y24426200D02*
X32512095Y24473820D01*
X28607333Y20250962D02*
X28512095Y20298581D01*
X28512095Y20298581D02*
X28369238Y20298581D01*
X28369238Y20298581D02*
X28226381Y20250962D01*
X28226381Y20250962D02*
X28131143Y20155724D01*
X28131143Y20155724D02*
X28083524Y20060486D01*
X28083524Y20060486D02*
X28035905Y19870010D01*
X28035905Y19870010D02*
X28035905Y19727153D01*
X28035905Y19727153D02*
X28083524Y19536677D01*
X28083524Y19536677D02*
X28131143Y19441439D01*
X28131143Y19441439D02*
X28226381Y19346200D01*
X28226381Y19346200D02*
X28369238Y19298581D01*
X28369238Y19298581D02*
X28464476Y19298581D01*
X28464476Y19298581D02*
X28607333Y19346200D01*
X28607333Y19346200D02*
X28654952Y19393820D01*
X28654952Y19393820D02*
X28654952Y19727153D01*
X28654952Y19727153D02*
X28464476Y19727153D01*
X29083524Y19298581D02*
X29083524Y20298581D01*
X29083524Y20298581D02*
X29464476Y20298581D01*
X29464476Y20298581D02*
X29559714Y20250962D01*
X29559714Y20250962D02*
X29607333Y20203343D01*
X29607333Y20203343D02*
X29654952Y20108105D01*
X29654952Y20108105D02*
X29654952Y19965248D01*
X29654952Y19965248D02*
X29607333Y19870010D01*
X29607333Y19870010D02*
X29559714Y19822391D01*
X29559714Y19822391D02*
X29464476Y19774772D01*
X29464476Y19774772D02*
X29083524Y19774772D01*
X30083524Y19298581D02*
X30083524Y20298581D01*
X30750190Y20298581D02*
X30940666Y20298581D01*
X30940666Y20298581D02*
X31035904Y20250962D01*
X31035904Y20250962D02*
X31131142Y20155724D01*
X31131142Y20155724D02*
X31178761Y19965248D01*
X31178761Y19965248D02*
X31178761Y19631915D01*
X31178761Y19631915D02*
X31131142Y19441439D01*
X31131142Y19441439D02*
X31035904Y19346200D01*
X31035904Y19346200D02*
X30940666Y19298581D01*
X30940666Y19298581D02*
X30750190Y19298581D01*
X30750190Y19298581D02*
X30654952Y19346200D01*
X30654952Y19346200D02*
X30559714Y19441439D01*
X30559714Y19441439D02*
X30512095Y19631915D01*
X30512095Y19631915D02*
X30512095Y19965248D01*
X30512095Y19965248D02*
X30559714Y20155724D01*
X30559714Y20155724D02*
X30654952Y20250962D01*
X30654952Y20250962D02*
X30750190Y20298581D01*
X32131142Y19298581D02*
X31559714Y19298581D01*
X31845428Y19298581D02*
X31845428Y20298581D01*
X31845428Y20298581D02*
X31750190Y20155724D01*
X31750190Y20155724D02*
X31654952Y20060486D01*
X31654952Y20060486D02*
X31559714Y20012867D01*
X32988285Y20298581D02*
X32797809Y20298581D01*
X32797809Y20298581D02*
X32702571Y20250962D01*
X32702571Y20250962D02*
X32654952Y20203343D01*
X32654952Y20203343D02*
X32559714Y20060486D01*
X32559714Y20060486D02*
X32512095Y19870010D01*
X32512095Y19870010D02*
X32512095Y19489058D01*
X32512095Y19489058D02*
X32559714Y19393820D01*
X32559714Y19393820D02*
X32607333Y19346200D01*
X32607333Y19346200D02*
X32702571Y19298581D01*
X32702571Y19298581D02*
X32893047Y19298581D01*
X32893047Y19298581D02*
X32988285Y19346200D01*
X32988285Y19346200D02*
X33035904Y19393820D01*
X33035904Y19393820D02*
X33083523Y19489058D01*
X33083523Y19489058D02*
X33083523Y19727153D01*
X33083523Y19727153D02*
X33035904Y19822391D01*
X33035904Y19822391D02*
X32988285Y19870010D01*
X32988285Y19870010D02*
X32893047Y19917629D01*
X32893047Y19917629D02*
X32702571Y19917629D01*
X32702571Y19917629D02*
X32607333Y19870010D01*
X32607333Y19870010D02*
X32559714Y19822391D01*
X32559714Y19822391D02*
X32512095Y19727153D01*
X31178714Y6598581D02*
X31178714Y7598581D01*
X31178714Y7598581D02*
X31416809Y7598581D01*
X31416809Y7598581D02*
X31559666Y7550962D01*
X31559666Y7550962D02*
X31654904Y7455724D01*
X31654904Y7455724D02*
X31702523Y7360486D01*
X31702523Y7360486D02*
X31750142Y7170010D01*
X31750142Y7170010D02*
X31750142Y7027153D01*
X31750142Y7027153D02*
X31702523Y6836677D01*
X31702523Y6836677D02*
X31654904Y6741439D01*
X31654904Y6741439D02*
X31559666Y6646200D01*
X31559666Y6646200D02*
X31416809Y6598581D01*
X31416809Y6598581D02*
X31178714Y6598581D01*
X32702523Y6598581D02*
X32131095Y6598581D01*
X32416809Y6598581D02*
X32416809Y7598581D01*
X32416809Y7598581D02*
X32321571Y7455724D01*
X32321571Y7455724D02*
X32226333Y7360486D01*
X32226333Y7360486D02*
X32131095Y7312867D01*
X30988285Y32950962D02*
X30893047Y32998581D01*
X30893047Y32998581D02*
X30750190Y32998581D01*
X30750190Y32998581D02*
X30607333Y32950962D01*
X30607333Y32950962D02*
X30512095Y32855724D01*
X30512095Y32855724D02*
X30464476Y32760486D01*
X30464476Y32760486D02*
X30416857Y32570010D01*
X30416857Y32570010D02*
X30416857Y32427153D01*
X30416857Y32427153D02*
X30464476Y32236677D01*
X30464476Y32236677D02*
X30512095Y32141439D01*
X30512095Y32141439D02*
X30607333Y32046200D01*
X30607333Y32046200D02*
X30750190Y31998581D01*
X30750190Y31998581D02*
X30845428Y31998581D01*
X30845428Y31998581D02*
X30988285Y32046200D01*
X30988285Y32046200D02*
X31035904Y32093820D01*
X31035904Y32093820D02*
X31035904Y32427153D01*
X31035904Y32427153D02*
X30845428Y32427153D01*
X31464476Y31998581D02*
X31464476Y32998581D01*
X31464476Y32998581D02*
X32035904Y31998581D01*
X32035904Y31998581D02*
X32035904Y32998581D01*
X32512095Y31998581D02*
X32512095Y32998581D01*
X32512095Y32998581D02*
X32750190Y32998581D01*
X32750190Y32998581D02*
X32893047Y32950962D01*
X32893047Y32950962D02*
X32988285Y32855724D01*
X32988285Y32855724D02*
X33035904Y32760486D01*
X33035904Y32760486D02*
X33083523Y32570010D01*
X33083523Y32570010D02*
X33083523Y32427153D01*
X33083523Y32427153D02*
X33035904Y32236677D01*
X33035904Y32236677D02*
X32988285Y32141439D01*
X32988285Y32141439D02*
X32893047Y32046200D01*
X32893047Y32046200D02*
X32750190Y31998581D01*
X32750190Y31998581D02*
X32512095Y31998581D01*
X11414095Y6598581D02*
X11414095Y7598581D01*
X11414095Y7598581D02*
X11652190Y7598581D01*
X11652190Y7598581D02*
X11795047Y7550962D01*
X11795047Y7550962D02*
X11890285Y7455724D01*
X11890285Y7455724D02*
X11937904Y7360486D01*
X11937904Y7360486D02*
X11985523Y7170010D01*
X11985523Y7170010D02*
X11985523Y7027153D01*
X11985523Y7027153D02*
X11937904Y6836677D01*
X11937904Y6836677D02*
X11890285Y6741439D01*
X11890285Y6741439D02*
X11795047Y6646200D01*
X11795047Y6646200D02*
X11652190Y6598581D01*
X11652190Y6598581D02*
X11414095Y6598581D01*
X12318857Y7598581D02*
X12937904Y7598581D01*
X12937904Y7598581D02*
X12604571Y7217629D01*
X12604571Y7217629D02*
X12747428Y7217629D01*
X12747428Y7217629D02*
X12842666Y7170010D01*
X12842666Y7170010D02*
X12890285Y7122391D01*
X12890285Y7122391D02*
X12937904Y7027153D01*
X12937904Y7027153D02*
X12937904Y6789058D01*
X12937904Y6789058D02*
X12890285Y6693820D01*
X12890285Y6693820D02*
X12842666Y6646200D01*
X12842666Y6646200D02*
X12747428Y6598581D01*
X12747428Y6598581D02*
X12461714Y6598581D01*
X12461714Y6598581D02*
X12366476Y6646200D01*
X12366476Y6646200D02*
X12318857Y6693820D01*
X11937904Y30410962D02*
X11842666Y30458581D01*
X11842666Y30458581D02*
X11699809Y30458581D01*
X11699809Y30458581D02*
X11556952Y30410962D01*
X11556952Y30410962D02*
X11461714Y30315724D01*
X11461714Y30315724D02*
X11414095Y30220486D01*
X11414095Y30220486D02*
X11366476Y30030010D01*
X11366476Y30030010D02*
X11366476Y29887153D01*
X11366476Y29887153D02*
X11414095Y29696677D01*
X11414095Y29696677D02*
X11461714Y29601439D01*
X11461714Y29601439D02*
X11556952Y29506200D01*
X11556952Y29506200D02*
X11699809Y29458581D01*
X11699809Y29458581D02*
X11795047Y29458581D01*
X11795047Y29458581D02*
X11937904Y29506200D01*
X11937904Y29506200D02*
X11985523Y29553820D01*
X11985523Y29553820D02*
X11985523Y29887153D01*
X11985523Y29887153D02*
X11795047Y29887153D01*
X12414095Y29458581D02*
X12414095Y30458581D01*
X12414095Y30458581D02*
X12795047Y30458581D01*
X12795047Y30458581D02*
X12890285Y30410962D01*
X12890285Y30410962D02*
X12937904Y30363343D01*
X12937904Y30363343D02*
X12985523Y30268105D01*
X12985523Y30268105D02*
X12985523Y30125248D01*
X12985523Y30125248D02*
X12937904Y30030010D01*
X12937904Y30030010D02*
X12890285Y29982391D01*
X12890285Y29982391D02*
X12795047Y29934772D01*
X12795047Y29934772D02*
X12414095Y29934772D01*
X13414095Y29458581D02*
X13414095Y30458581D01*
X14080761Y30458581D02*
X14271237Y30458581D01*
X14271237Y30458581D02*
X14366475Y30410962D01*
X14366475Y30410962D02*
X14461713Y30315724D01*
X14461713Y30315724D02*
X14509332Y30125248D01*
X14509332Y30125248D02*
X14509332Y29791915D01*
X14509332Y29791915D02*
X14461713Y29601439D01*
X14461713Y29601439D02*
X14366475Y29506200D01*
X14366475Y29506200D02*
X14271237Y29458581D01*
X14271237Y29458581D02*
X14080761Y29458581D01*
X14080761Y29458581D02*
X13985523Y29506200D01*
X13985523Y29506200D02*
X13890285Y29601439D01*
X13890285Y29601439D02*
X13842666Y29791915D01*
X13842666Y29791915D02*
X13842666Y30125248D01*
X13842666Y30125248D02*
X13890285Y30315724D01*
X13890285Y30315724D02*
X13985523Y30410962D01*
X13985523Y30410962D02*
X14080761Y30458581D01*
X14842666Y30458581D02*
X15461713Y30458581D01*
X15461713Y30458581D02*
X15128380Y30077629D01*
X15128380Y30077629D02*
X15271237Y30077629D01*
X15271237Y30077629D02*
X15366475Y30030010D01*
X15366475Y30030010D02*
X15414094Y29982391D01*
X15414094Y29982391D02*
X15461713Y29887153D01*
X15461713Y29887153D02*
X15461713Y29649058D01*
X15461713Y29649058D02*
X15414094Y29553820D01*
X15414094Y29553820D02*
X15366475Y29506200D01*
X15366475Y29506200D02*
X15271237Y29458581D01*
X15271237Y29458581D02*
X14985523Y29458581D01*
X14985523Y29458581D02*
X14890285Y29506200D01*
X14890285Y29506200D02*
X14842666Y29553820D01*
X15795047Y30458581D02*
X16414094Y30458581D01*
X16414094Y30458581D02*
X16080761Y30077629D01*
X16080761Y30077629D02*
X16223618Y30077629D01*
X16223618Y30077629D02*
X16318856Y30030010D01*
X16318856Y30030010D02*
X16366475Y29982391D01*
X16366475Y29982391D02*
X16414094Y29887153D01*
X16414094Y29887153D02*
X16414094Y29649058D01*
X16414094Y29649058D02*
X16366475Y29553820D01*
X16366475Y29553820D02*
X16318856Y29506200D01*
X16318856Y29506200D02*
X16223618Y29458581D01*
X16223618Y29458581D02*
X15937904Y29458581D01*
X15937904Y29458581D02*
X15842666Y29506200D01*
X15842666Y29506200D02*
X15795047Y29553820D01*
X23099333Y10090962D02*
X23004095Y10138581D01*
X23004095Y10138581D02*
X22861238Y10138581D01*
X22861238Y10138581D02*
X22718381Y10090962D01*
X22718381Y10090962D02*
X22623143Y9995724D01*
X22623143Y9995724D02*
X22575524Y9900486D01*
X22575524Y9900486D02*
X22527905Y9710010D01*
X22527905Y9710010D02*
X22527905Y9567153D01*
X22527905Y9567153D02*
X22575524Y9376677D01*
X22575524Y9376677D02*
X22623143Y9281439D01*
X22623143Y9281439D02*
X22718381Y9186200D01*
X22718381Y9186200D02*
X22861238Y9138581D01*
X22861238Y9138581D02*
X22956476Y9138581D01*
X22956476Y9138581D02*
X23099333Y9186200D01*
X23099333Y9186200D02*
X23146952Y9233820D01*
X23146952Y9233820D02*
X23146952Y9567153D01*
X23146952Y9567153D02*
X22956476Y9567153D01*
X23575524Y9138581D02*
X23575524Y10138581D01*
X23575524Y10138581D02*
X23956476Y10138581D01*
X23956476Y10138581D02*
X24051714Y10090962D01*
X24051714Y10090962D02*
X24099333Y10043343D01*
X24099333Y10043343D02*
X24146952Y9948105D01*
X24146952Y9948105D02*
X24146952Y9805248D01*
X24146952Y9805248D02*
X24099333Y9710010D01*
X24099333Y9710010D02*
X24051714Y9662391D01*
X24051714Y9662391D02*
X23956476Y9614772D01*
X23956476Y9614772D02*
X23575524Y9614772D01*
X24575524Y9138581D02*
X24575524Y10138581D01*
X25242190Y10138581D02*
X25432666Y10138581D01*
X25432666Y10138581D02*
X25527904Y10090962D01*
X25527904Y10090962D02*
X25623142Y9995724D01*
X25623142Y9995724D02*
X25670761Y9805248D01*
X25670761Y9805248D02*
X25670761Y9471915D01*
X25670761Y9471915D02*
X25623142Y9281439D01*
X25623142Y9281439D02*
X25527904Y9186200D01*
X25527904Y9186200D02*
X25432666Y9138581D01*
X25432666Y9138581D02*
X25242190Y9138581D01*
X25242190Y9138581D02*
X25146952Y9186200D01*
X25146952Y9186200D02*
X25051714Y9281439D01*
X25051714Y9281439D02*
X25004095Y9471915D01*
X25004095Y9471915D02*
X25004095Y9805248D01*
X25004095Y9805248D02*
X25051714Y9995724D01*
X25051714Y9995724D02*
X25146952Y10090962D01*
X25146952Y10090962D02*
X25242190Y10138581D01*
X26623142Y9138581D02*
X26051714Y9138581D01*
X26337428Y9138581D02*
X26337428Y10138581D01*
X26337428Y10138581D02*
X26242190Y9995724D01*
X26242190Y9995724D02*
X26146952Y9900486D01*
X26146952Y9900486D02*
X26051714Y9852867D01*
X27527904Y10138581D02*
X27051714Y10138581D01*
X27051714Y10138581D02*
X27004095Y9662391D01*
X27004095Y9662391D02*
X27051714Y9710010D01*
X27051714Y9710010D02*
X27146952Y9757629D01*
X27146952Y9757629D02*
X27385047Y9757629D01*
X27385047Y9757629D02*
X27480285Y9710010D01*
X27480285Y9710010D02*
X27527904Y9662391D01*
X27527904Y9662391D02*
X27575523Y9567153D01*
X27575523Y9567153D02*
X27575523Y9329058D01*
X27575523Y9329058D02*
X27527904Y9233820D01*
X27527904Y9233820D02*
X27480285Y9186200D01*
X27480285Y9186200D02*
X27385047Y9138581D01*
X27385047Y9138581D02*
X27146952Y9138581D01*
X27146952Y9138581D02*
X27051714Y9186200D01*
X27051714Y9186200D02*
X27004095Y9233820D01*
X28718380Y10186200D02*
X27861238Y8900486D01*
X29051714Y9138581D02*
X29051714Y10138581D01*
X29051714Y10138581D02*
X29385047Y9424296D01*
X29385047Y9424296D02*
X29718380Y10138581D01*
X29718380Y10138581D02*
X29718380Y9138581D01*
X30051714Y10138581D02*
X30623142Y10138581D01*
X30337428Y9138581D02*
X30337428Y10138581D01*
X30956476Y9138581D02*
X30956476Y10138581D01*
X30956476Y10138581D02*
X31194571Y10138581D01*
X31194571Y10138581D02*
X31337428Y10090962D01*
X31337428Y10090962D02*
X31432666Y9995724D01*
X31432666Y9995724D02*
X31480285Y9900486D01*
X31480285Y9900486D02*
X31527904Y9710010D01*
X31527904Y9710010D02*
X31527904Y9567153D01*
X31527904Y9567153D02*
X31480285Y9376677D01*
X31480285Y9376677D02*
X31432666Y9281439D01*
X31432666Y9281439D02*
X31337428Y9186200D01*
X31337428Y9186200D02*
X31194571Y9138581D01*
X31194571Y9138581D02*
X30956476Y9138581D01*
X32146952Y10138581D02*
X32337428Y10138581D01*
X32337428Y10138581D02*
X32432666Y10090962D01*
X32432666Y10090962D02*
X32527904Y9995724D01*
X32527904Y9995724D02*
X32575523Y9805248D01*
X32575523Y9805248D02*
X32575523Y9471915D01*
X32575523Y9471915D02*
X32527904Y9281439D01*
X32527904Y9281439D02*
X32432666Y9186200D01*
X32432666Y9186200D02*
X32337428Y9138581D01*
X32337428Y9138581D02*
X32146952Y9138581D01*
X32146952Y9138581D02*
X32051714Y9186200D01*
X32051714Y9186200D02*
X31956476Y9281439D01*
X31956476Y9281439D02*
X31908857Y9471915D01*
X31908857Y9471915D02*
X31908857Y9805248D01*
X31908857Y9805248D02*
X31956476Y9995724D01*
X31956476Y9995724D02*
X32051714Y10090962D01*
X32051714Y10090962D02*
X32146952Y10138581D01*
X30988285Y48190962D02*
X30893047Y48238581D01*
X30893047Y48238581D02*
X30750190Y48238581D01*
X30750190Y48238581D02*
X30607333Y48190962D01*
X30607333Y48190962D02*
X30512095Y48095724D01*
X30512095Y48095724D02*
X30464476Y48000486D01*
X30464476Y48000486D02*
X30416857Y47810010D01*
X30416857Y47810010D02*
X30416857Y47667153D01*
X30416857Y47667153D02*
X30464476Y47476677D01*
X30464476Y47476677D02*
X30512095Y47381439D01*
X30512095Y47381439D02*
X30607333Y47286200D01*
X30607333Y47286200D02*
X30750190Y47238581D01*
X30750190Y47238581D02*
X30845428Y47238581D01*
X30845428Y47238581D02*
X30988285Y47286200D01*
X30988285Y47286200D02*
X31035904Y47333820D01*
X31035904Y47333820D02*
X31035904Y47667153D01*
X31035904Y47667153D02*
X30845428Y47667153D01*
X31464476Y47238581D02*
X31464476Y48238581D01*
X31464476Y48238581D02*
X32035904Y47238581D01*
X32035904Y47238581D02*
X32035904Y48238581D01*
X32512095Y47238581D02*
X32512095Y48238581D01*
X32512095Y48238581D02*
X32750190Y48238581D01*
X32750190Y48238581D02*
X32893047Y48190962D01*
X32893047Y48190962D02*
X32988285Y48095724D01*
X32988285Y48095724D02*
X33035904Y48000486D01*
X33035904Y48000486D02*
X33083523Y47810010D01*
X33083523Y47810010D02*
X33083523Y47667153D01*
X33083523Y47667153D02*
X33035904Y47476677D01*
X33035904Y47476677D02*
X32988285Y47381439D01*
X32988285Y47381439D02*
X32893047Y47286200D01*
X32893047Y47286200D02*
X32750190Y47238581D01*
X32750190Y47238581D02*
X32512095Y47238581D01*
X23559714Y38030962D02*
X23464476Y38078581D01*
X23464476Y38078581D02*
X23321619Y38078581D01*
X23321619Y38078581D02*
X23178762Y38030962D01*
X23178762Y38030962D02*
X23083524Y37935724D01*
X23083524Y37935724D02*
X23035905Y37840486D01*
X23035905Y37840486D02*
X22988286Y37650010D01*
X22988286Y37650010D02*
X22988286Y37507153D01*
X22988286Y37507153D02*
X23035905Y37316677D01*
X23035905Y37316677D02*
X23083524Y37221439D01*
X23083524Y37221439D02*
X23178762Y37126200D01*
X23178762Y37126200D02*
X23321619Y37078581D01*
X23321619Y37078581D02*
X23416857Y37078581D01*
X23416857Y37078581D02*
X23559714Y37126200D01*
X23559714Y37126200D02*
X23607333Y37173820D01*
X23607333Y37173820D02*
X23607333Y37507153D01*
X23607333Y37507153D02*
X23416857Y37507153D01*
X24035905Y37078581D02*
X24035905Y38078581D01*
X24035905Y38078581D02*
X24416857Y38078581D01*
X24416857Y38078581D02*
X24512095Y38030962D01*
X24512095Y38030962D02*
X24559714Y37983343D01*
X24559714Y37983343D02*
X24607333Y37888105D01*
X24607333Y37888105D02*
X24607333Y37745248D01*
X24607333Y37745248D02*
X24559714Y37650010D01*
X24559714Y37650010D02*
X24512095Y37602391D01*
X24512095Y37602391D02*
X24416857Y37554772D01*
X24416857Y37554772D02*
X24035905Y37554772D01*
X25035905Y37078581D02*
X25035905Y38078581D01*
X25702571Y38078581D02*
X25893047Y38078581D01*
X25893047Y38078581D02*
X25988285Y38030962D01*
X25988285Y38030962D02*
X26083523Y37935724D01*
X26083523Y37935724D02*
X26131142Y37745248D01*
X26131142Y37745248D02*
X26131142Y37411915D01*
X26131142Y37411915D02*
X26083523Y37221439D01*
X26083523Y37221439D02*
X25988285Y37126200D01*
X25988285Y37126200D02*
X25893047Y37078581D01*
X25893047Y37078581D02*
X25702571Y37078581D01*
X25702571Y37078581D02*
X25607333Y37126200D01*
X25607333Y37126200D02*
X25512095Y37221439D01*
X25512095Y37221439D02*
X25464476Y37411915D01*
X25464476Y37411915D02*
X25464476Y37745248D01*
X25464476Y37745248D02*
X25512095Y37935724D01*
X25512095Y37935724D02*
X25607333Y38030962D01*
X25607333Y38030962D02*
X25702571Y38078581D01*
X26464476Y38078581D02*
X27083523Y38078581D01*
X27083523Y38078581D02*
X26750190Y37697629D01*
X26750190Y37697629D02*
X26893047Y37697629D01*
X26893047Y37697629D02*
X26988285Y37650010D01*
X26988285Y37650010D02*
X27035904Y37602391D01*
X27035904Y37602391D02*
X27083523Y37507153D01*
X27083523Y37507153D02*
X27083523Y37269058D01*
X27083523Y37269058D02*
X27035904Y37173820D01*
X27035904Y37173820D02*
X26988285Y37126200D01*
X26988285Y37126200D02*
X26893047Y37078581D01*
X26893047Y37078581D02*
X26607333Y37078581D01*
X26607333Y37078581D02*
X26512095Y37126200D01*
X26512095Y37126200D02*
X26464476Y37173820D01*
X28226380Y38126200D02*
X27369238Y36840486D01*
X28559714Y38078581D02*
X28559714Y37269058D01*
X28559714Y37269058D02*
X28607333Y37173820D01*
X28607333Y37173820D02*
X28654952Y37126200D01*
X28654952Y37126200D02*
X28750190Y37078581D01*
X28750190Y37078581D02*
X28940666Y37078581D01*
X28940666Y37078581D02*
X29035904Y37126200D01*
X29035904Y37126200D02*
X29083523Y37173820D01*
X29083523Y37173820D02*
X29131142Y37269058D01*
X29131142Y37269058D02*
X29131142Y38078581D01*
X29797809Y38078581D02*
X29893047Y38078581D01*
X29893047Y38078581D02*
X29988285Y38030962D01*
X29988285Y38030962D02*
X30035904Y37983343D01*
X30035904Y37983343D02*
X30083523Y37888105D01*
X30083523Y37888105D02*
X30131142Y37697629D01*
X30131142Y37697629D02*
X30131142Y37459534D01*
X30131142Y37459534D02*
X30083523Y37269058D01*
X30083523Y37269058D02*
X30035904Y37173820D01*
X30035904Y37173820D02*
X29988285Y37126200D01*
X29988285Y37126200D02*
X29893047Y37078581D01*
X29893047Y37078581D02*
X29797809Y37078581D01*
X29797809Y37078581D02*
X29702571Y37126200D01*
X29702571Y37126200D02*
X29654952Y37173820D01*
X29654952Y37173820D02*
X29607333Y37269058D01*
X29607333Y37269058D02*
X29559714Y37459534D01*
X29559714Y37459534D02*
X29559714Y37697629D01*
X29559714Y37697629D02*
X29607333Y37888105D01*
X29607333Y37888105D02*
X29654952Y37983343D01*
X29654952Y37983343D02*
X29702571Y38030962D01*
X29702571Y38030962D02*
X29797809Y38078581D01*
X31131142Y37078581D02*
X30797809Y37554772D01*
X30559714Y37078581D02*
X30559714Y38078581D01*
X30559714Y38078581D02*
X30940666Y38078581D01*
X30940666Y38078581D02*
X31035904Y38030962D01*
X31035904Y38030962D02*
X31083523Y37983343D01*
X31083523Y37983343D02*
X31131142Y37888105D01*
X31131142Y37888105D02*
X31131142Y37745248D01*
X31131142Y37745248D02*
X31083523Y37650010D01*
X31083523Y37650010D02*
X31035904Y37602391D01*
X31035904Y37602391D02*
X30940666Y37554772D01*
X30940666Y37554772D02*
X30559714Y37554772D01*
X31464476Y38078581D02*
X32131142Y37078581D01*
X32131142Y38078581D02*
X31464476Y37078581D01*
X32512095Y37078581D02*
X32512095Y38078581D01*
X32512095Y38078581D02*
X32750190Y38078581D01*
X32750190Y38078581D02*
X32893047Y38030962D01*
X32893047Y38030962D02*
X32988285Y37935724D01*
X32988285Y37935724D02*
X33035904Y37840486D01*
X33035904Y37840486D02*
X33083523Y37650010D01*
X33083523Y37650010D02*
X33083523Y37507153D01*
X33083523Y37507153D02*
X33035904Y37316677D01*
X33035904Y37316677D02*
X32988285Y37221439D01*
X32988285Y37221439D02*
X32893047Y37126200D01*
X32893047Y37126200D02*
X32750190Y37078581D01*
X32750190Y37078581D02*
X32512095Y37078581D01*
X23797809Y40570962D02*
X23702571Y40618581D01*
X23702571Y40618581D02*
X23559714Y40618581D01*
X23559714Y40618581D02*
X23416857Y40570962D01*
X23416857Y40570962D02*
X23321619Y40475724D01*
X23321619Y40475724D02*
X23274000Y40380486D01*
X23274000Y40380486D02*
X23226381Y40190010D01*
X23226381Y40190010D02*
X23226381Y40047153D01*
X23226381Y40047153D02*
X23274000Y39856677D01*
X23274000Y39856677D02*
X23321619Y39761439D01*
X23321619Y39761439D02*
X23416857Y39666200D01*
X23416857Y39666200D02*
X23559714Y39618581D01*
X23559714Y39618581D02*
X23654952Y39618581D01*
X23654952Y39618581D02*
X23797809Y39666200D01*
X23797809Y39666200D02*
X23845428Y39713820D01*
X23845428Y39713820D02*
X23845428Y40047153D01*
X23845428Y40047153D02*
X23654952Y40047153D01*
X24274000Y39618581D02*
X24274000Y40618581D01*
X24274000Y40618581D02*
X24654952Y40618581D01*
X24654952Y40618581D02*
X24750190Y40570962D01*
X24750190Y40570962D02*
X24797809Y40523343D01*
X24797809Y40523343D02*
X24845428Y40428105D01*
X24845428Y40428105D02*
X24845428Y40285248D01*
X24845428Y40285248D02*
X24797809Y40190010D01*
X24797809Y40190010D02*
X24750190Y40142391D01*
X24750190Y40142391D02*
X24654952Y40094772D01*
X24654952Y40094772D02*
X24274000Y40094772D01*
X25274000Y39618581D02*
X25274000Y40618581D01*
X25940666Y40618581D02*
X26131142Y40618581D01*
X26131142Y40618581D02*
X26226380Y40570962D01*
X26226380Y40570962D02*
X26321618Y40475724D01*
X26321618Y40475724D02*
X26369237Y40285248D01*
X26369237Y40285248D02*
X26369237Y39951915D01*
X26369237Y39951915D02*
X26321618Y39761439D01*
X26321618Y39761439D02*
X26226380Y39666200D01*
X26226380Y39666200D02*
X26131142Y39618581D01*
X26131142Y39618581D02*
X25940666Y39618581D01*
X25940666Y39618581D02*
X25845428Y39666200D01*
X25845428Y39666200D02*
X25750190Y39761439D01*
X25750190Y39761439D02*
X25702571Y39951915D01*
X25702571Y39951915D02*
X25702571Y40285248D01*
X25702571Y40285248D02*
X25750190Y40475724D01*
X25750190Y40475724D02*
X25845428Y40570962D01*
X25845428Y40570962D02*
X25940666Y40618581D01*
X27321618Y39618581D02*
X26750190Y39618581D01*
X27035904Y39618581D02*
X27035904Y40618581D01*
X27035904Y40618581D02*
X26940666Y40475724D01*
X26940666Y40475724D02*
X26845428Y40380486D01*
X26845428Y40380486D02*
X26750190Y40332867D01*
X28464475Y40666200D02*
X27607333Y39380486D01*
X28797809Y40618581D02*
X28797809Y39809058D01*
X28797809Y39809058D02*
X28845428Y39713820D01*
X28845428Y39713820D02*
X28893047Y39666200D01*
X28893047Y39666200D02*
X28988285Y39618581D01*
X28988285Y39618581D02*
X29178761Y39618581D01*
X29178761Y39618581D02*
X29273999Y39666200D01*
X29273999Y39666200D02*
X29321618Y39713820D01*
X29321618Y39713820D02*
X29369237Y39809058D01*
X29369237Y39809058D02*
X29369237Y40618581D01*
X30035904Y40618581D02*
X30131142Y40618581D01*
X30131142Y40618581D02*
X30226380Y40570962D01*
X30226380Y40570962D02*
X30273999Y40523343D01*
X30273999Y40523343D02*
X30321618Y40428105D01*
X30321618Y40428105D02*
X30369237Y40237629D01*
X30369237Y40237629D02*
X30369237Y39999534D01*
X30369237Y39999534D02*
X30321618Y39809058D01*
X30321618Y39809058D02*
X30273999Y39713820D01*
X30273999Y39713820D02*
X30226380Y39666200D01*
X30226380Y39666200D02*
X30131142Y39618581D01*
X30131142Y39618581D02*
X30035904Y39618581D01*
X30035904Y39618581D02*
X29940666Y39666200D01*
X29940666Y39666200D02*
X29893047Y39713820D01*
X29893047Y39713820D02*
X29845428Y39809058D01*
X29845428Y39809058D02*
X29797809Y39999534D01*
X29797809Y39999534D02*
X29797809Y40237629D01*
X29797809Y40237629D02*
X29845428Y40428105D01*
X29845428Y40428105D02*
X29893047Y40523343D01*
X29893047Y40523343D02*
X29940666Y40570962D01*
X29940666Y40570962D02*
X30035904Y40618581D01*
X30654952Y40618581D02*
X31226380Y40618581D01*
X30940666Y39618581D02*
X30940666Y40618581D01*
X31464476Y40618581D02*
X32131142Y39618581D01*
X32131142Y40618581D02*
X31464476Y39618581D01*
X32512095Y39618581D02*
X32512095Y40618581D01*
X32512095Y40618581D02*
X32750190Y40618581D01*
X32750190Y40618581D02*
X32893047Y40570962D01*
X32893047Y40570962D02*
X32988285Y40475724D01*
X32988285Y40475724D02*
X33035904Y40380486D01*
X33035904Y40380486D02*
X33083523Y40190010D01*
X33083523Y40190010D02*
X33083523Y40047153D01*
X33083523Y40047153D02*
X33035904Y39856677D01*
X33035904Y39856677D02*
X32988285Y39761439D01*
X32988285Y39761439D02*
X32893047Y39666200D01*
X32893047Y39666200D02*
X32750190Y39618581D01*
X32750190Y39618581D02*
X32512095Y39618581D01*
X28607333Y43110962D02*
X28512095Y43158581D01*
X28512095Y43158581D02*
X28369238Y43158581D01*
X28369238Y43158581D02*
X28226381Y43110962D01*
X28226381Y43110962D02*
X28131143Y43015724D01*
X28131143Y43015724D02*
X28083524Y42920486D01*
X28083524Y42920486D02*
X28035905Y42730010D01*
X28035905Y42730010D02*
X28035905Y42587153D01*
X28035905Y42587153D02*
X28083524Y42396677D01*
X28083524Y42396677D02*
X28131143Y42301439D01*
X28131143Y42301439D02*
X28226381Y42206200D01*
X28226381Y42206200D02*
X28369238Y42158581D01*
X28369238Y42158581D02*
X28464476Y42158581D01*
X28464476Y42158581D02*
X28607333Y42206200D01*
X28607333Y42206200D02*
X28654952Y42253820D01*
X28654952Y42253820D02*
X28654952Y42587153D01*
X28654952Y42587153D02*
X28464476Y42587153D01*
X29083524Y42158581D02*
X29083524Y43158581D01*
X29083524Y43158581D02*
X29464476Y43158581D01*
X29464476Y43158581D02*
X29559714Y43110962D01*
X29559714Y43110962D02*
X29607333Y43063343D01*
X29607333Y43063343D02*
X29654952Y42968105D01*
X29654952Y42968105D02*
X29654952Y42825248D01*
X29654952Y42825248D02*
X29607333Y42730010D01*
X29607333Y42730010D02*
X29559714Y42682391D01*
X29559714Y42682391D02*
X29464476Y42634772D01*
X29464476Y42634772D02*
X29083524Y42634772D01*
X30083524Y42158581D02*
X30083524Y43158581D01*
X30750190Y43158581D02*
X30940666Y43158581D01*
X30940666Y43158581D02*
X31035904Y43110962D01*
X31035904Y43110962D02*
X31131142Y43015724D01*
X31131142Y43015724D02*
X31178761Y42825248D01*
X31178761Y42825248D02*
X31178761Y42491915D01*
X31178761Y42491915D02*
X31131142Y42301439D01*
X31131142Y42301439D02*
X31035904Y42206200D01*
X31035904Y42206200D02*
X30940666Y42158581D01*
X30940666Y42158581D02*
X30750190Y42158581D01*
X30750190Y42158581D02*
X30654952Y42206200D01*
X30654952Y42206200D02*
X30559714Y42301439D01*
X30559714Y42301439D02*
X30512095Y42491915D01*
X30512095Y42491915D02*
X30512095Y42825248D01*
X30512095Y42825248D02*
X30559714Y43015724D01*
X30559714Y43015724D02*
X30654952Y43110962D01*
X30654952Y43110962D02*
X30750190Y43158581D01*
X31559714Y43063343D02*
X31607333Y43110962D01*
X31607333Y43110962D02*
X31702571Y43158581D01*
X31702571Y43158581D02*
X31940666Y43158581D01*
X31940666Y43158581D02*
X32035904Y43110962D01*
X32035904Y43110962D02*
X32083523Y43063343D01*
X32083523Y43063343D02*
X32131142Y42968105D01*
X32131142Y42968105D02*
X32131142Y42872867D01*
X32131142Y42872867D02*
X32083523Y42730010D01*
X32083523Y42730010D02*
X31512095Y42158581D01*
X31512095Y42158581D02*
X32131142Y42158581D01*
X32512095Y43063343D02*
X32559714Y43110962D01*
X32559714Y43110962D02*
X32654952Y43158581D01*
X32654952Y43158581D02*
X32893047Y43158581D01*
X32893047Y43158581D02*
X32988285Y43110962D01*
X32988285Y43110962D02*
X33035904Y43063343D01*
X33035904Y43063343D02*
X33083523Y42968105D01*
X33083523Y42968105D02*
X33083523Y42872867D01*
X33083523Y42872867D02*
X33035904Y42730010D01*
X33035904Y42730010D02*
X32464476Y42158581D01*
X32464476Y42158581D02*
X33083523Y42158581D01*
X30765999Y1613820D02*
X30718380Y1566200D01*
X30718380Y1566200D02*
X30575523Y1518581D01*
X30575523Y1518581D02*
X30480285Y1518581D01*
X30480285Y1518581D02*
X30337428Y1566200D01*
X30337428Y1566200D02*
X30242190Y1661439D01*
X30242190Y1661439D02*
X30194571Y1756677D01*
X30194571Y1756677D02*
X30146952Y1947153D01*
X30146952Y1947153D02*
X30146952Y2090010D01*
X30146952Y2090010D02*
X30194571Y2280486D01*
X30194571Y2280486D02*
X30242190Y2375724D01*
X30242190Y2375724D02*
X30337428Y2470962D01*
X30337428Y2470962D02*
X30480285Y2518581D01*
X30480285Y2518581D02*
X30575523Y2518581D01*
X30575523Y2518581D02*
X30718380Y2470962D01*
X30718380Y2470962D02*
X30765999Y2423343D01*
X31670761Y1518581D02*
X31194571Y1518581D01*
X31194571Y1518581D02*
X31194571Y2518581D01*
X32004095Y1518581D02*
X32004095Y2518581D01*
X32575523Y1518581D02*
X32146952Y2090010D01*
X32575523Y2518581D02*
X32004095Y1947153D01*
X28924714Y12630962D02*
X28829476Y12678581D01*
X28829476Y12678581D02*
X28686619Y12678581D01*
X28686619Y12678581D02*
X28543762Y12630962D01*
X28543762Y12630962D02*
X28448524Y12535724D01*
X28448524Y12535724D02*
X28400905Y12440486D01*
X28400905Y12440486D02*
X28353286Y12250010D01*
X28353286Y12250010D02*
X28353286Y12107153D01*
X28353286Y12107153D02*
X28400905Y11916677D01*
X28400905Y11916677D02*
X28448524Y11821439D01*
X28448524Y11821439D02*
X28543762Y11726200D01*
X28543762Y11726200D02*
X28686619Y11678581D01*
X28686619Y11678581D02*
X28781857Y11678581D01*
X28781857Y11678581D02*
X28924714Y11726200D01*
X28924714Y11726200D02*
X28972333Y11773820D01*
X28972333Y11773820D02*
X28972333Y12107153D01*
X28972333Y12107153D02*
X28781857Y12107153D01*
X29400905Y11678581D02*
X29400905Y12678581D01*
X29400905Y12678581D02*
X29781857Y12678581D01*
X29781857Y12678581D02*
X29877095Y12630962D01*
X29877095Y12630962D02*
X29924714Y12583343D01*
X29924714Y12583343D02*
X29972333Y12488105D01*
X29972333Y12488105D02*
X29972333Y12345248D01*
X29972333Y12345248D02*
X29924714Y12250010D01*
X29924714Y12250010D02*
X29877095Y12202391D01*
X29877095Y12202391D02*
X29781857Y12154772D01*
X29781857Y12154772D02*
X29400905Y12154772D01*
X30400905Y11678581D02*
X30400905Y12678581D01*
X31067571Y12678581D02*
X31258047Y12678581D01*
X31258047Y12678581D02*
X31353285Y12630962D01*
X31353285Y12630962D02*
X31448523Y12535724D01*
X31448523Y12535724D02*
X31496142Y12345248D01*
X31496142Y12345248D02*
X31496142Y12011915D01*
X31496142Y12011915D02*
X31448523Y11821439D01*
X31448523Y11821439D02*
X31353285Y11726200D01*
X31353285Y11726200D02*
X31258047Y11678581D01*
X31258047Y11678581D02*
X31067571Y11678581D01*
X31067571Y11678581D02*
X30972333Y11726200D01*
X30972333Y11726200D02*
X30877095Y11821439D01*
X30877095Y11821439D02*
X30829476Y12011915D01*
X30829476Y12011915D02*
X30829476Y12345248D01*
X30829476Y12345248D02*
X30877095Y12535724D01*
X30877095Y12535724D02*
X30972333Y12630962D01*
X30972333Y12630962D02*
X31067571Y12678581D01*
X31877095Y12583343D02*
X31924714Y12630962D01*
X31924714Y12630962D02*
X32019952Y12678581D01*
X32019952Y12678581D02*
X32258047Y12678581D01*
X32258047Y12678581D02*
X32353285Y12630962D01*
X32353285Y12630962D02*
X32400904Y12583343D01*
X32400904Y12583343D02*
X32448523Y12488105D01*
X32448523Y12488105D02*
X32448523Y12392867D01*
X32448523Y12392867D02*
X32400904Y12250010D01*
X32400904Y12250010D02*
X31829476Y11678581D01*
X31829476Y11678581D02*
X32448523Y11678581D01*
X11937904Y27870962D02*
X11842666Y27918581D01*
X11842666Y27918581D02*
X11699809Y27918581D01*
X11699809Y27918581D02*
X11556952Y27870962D01*
X11556952Y27870962D02*
X11461714Y27775724D01*
X11461714Y27775724D02*
X11414095Y27680486D01*
X11414095Y27680486D02*
X11366476Y27490010D01*
X11366476Y27490010D02*
X11366476Y27347153D01*
X11366476Y27347153D02*
X11414095Y27156677D01*
X11414095Y27156677D02*
X11461714Y27061439D01*
X11461714Y27061439D02*
X11556952Y26966200D01*
X11556952Y26966200D02*
X11699809Y26918581D01*
X11699809Y26918581D02*
X11795047Y26918581D01*
X11795047Y26918581D02*
X11937904Y26966200D01*
X11937904Y26966200D02*
X11985523Y27013820D01*
X11985523Y27013820D02*
X11985523Y27347153D01*
X11985523Y27347153D02*
X11795047Y27347153D01*
X12414095Y26918581D02*
X12414095Y27918581D01*
X12414095Y27918581D02*
X12795047Y27918581D01*
X12795047Y27918581D02*
X12890285Y27870962D01*
X12890285Y27870962D02*
X12937904Y27823343D01*
X12937904Y27823343D02*
X12985523Y27728105D01*
X12985523Y27728105D02*
X12985523Y27585248D01*
X12985523Y27585248D02*
X12937904Y27490010D01*
X12937904Y27490010D02*
X12890285Y27442391D01*
X12890285Y27442391D02*
X12795047Y27394772D01*
X12795047Y27394772D02*
X12414095Y27394772D01*
X13414095Y26918581D02*
X13414095Y27918581D01*
X14080761Y27918581D02*
X14271237Y27918581D01*
X14271237Y27918581D02*
X14366475Y27870962D01*
X14366475Y27870962D02*
X14461713Y27775724D01*
X14461713Y27775724D02*
X14509332Y27585248D01*
X14509332Y27585248D02*
X14509332Y27251915D01*
X14509332Y27251915D02*
X14461713Y27061439D01*
X14461713Y27061439D02*
X14366475Y26966200D01*
X14366475Y26966200D02*
X14271237Y26918581D01*
X14271237Y26918581D02*
X14080761Y26918581D01*
X14080761Y26918581D02*
X13985523Y26966200D01*
X13985523Y26966200D02*
X13890285Y27061439D01*
X13890285Y27061439D02*
X13842666Y27251915D01*
X13842666Y27251915D02*
X13842666Y27585248D01*
X13842666Y27585248D02*
X13890285Y27775724D01*
X13890285Y27775724D02*
X13985523Y27870962D01*
X13985523Y27870962D02*
X14080761Y27918581D01*
X14890285Y27823343D02*
X14937904Y27870962D01*
X14937904Y27870962D02*
X15033142Y27918581D01*
X15033142Y27918581D02*
X15271237Y27918581D01*
X15271237Y27918581D02*
X15366475Y27870962D01*
X15366475Y27870962D02*
X15414094Y27823343D01*
X15414094Y27823343D02*
X15461713Y27728105D01*
X15461713Y27728105D02*
X15461713Y27632867D01*
X15461713Y27632867D02*
X15414094Y27490010D01*
X15414094Y27490010D02*
X14842666Y26918581D01*
X14842666Y26918581D02*
X15461713Y26918581D01*
X16366475Y27918581D02*
X15890285Y27918581D01*
X15890285Y27918581D02*
X15842666Y27442391D01*
X15842666Y27442391D02*
X15890285Y27490010D01*
X15890285Y27490010D02*
X15985523Y27537629D01*
X15985523Y27537629D02*
X16223618Y27537629D01*
X16223618Y27537629D02*
X16318856Y27490010D01*
X16318856Y27490010D02*
X16366475Y27442391D01*
X16366475Y27442391D02*
X16414094Y27347153D01*
X16414094Y27347153D02*
X16414094Y27109058D01*
X16414094Y27109058D02*
X16366475Y27013820D01*
X16366475Y27013820D02*
X16318856Y26966200D01*
X16318856Y26966200D02*
X16223618Y26918581D01*
X16223618Y26918581D02*
X15985523Y26918581D01*
X15985523Y26918581D02*
X15890285Y26966200D01*
X15890285Y26966200D02*
X15842666Y27013820D01*
X28607333Y45650962D02*
X28512095Y45698581D01*
X28512095Y45698581D02*
X28369238Y45698581D01*
X28369238Y45698581D02*
X28226381Y45650962D01*
X28226381Y45650962D02*
X28131143Y45555724D01*
X28131143Y45555724D02*
X28083524Y45460486D01*
X28083524Y45460486D02*
X28035905Y45270010D01*
X28035905Y45270010D02*
X28035905Y45127153D01*
X28035905Y45127153D02*
X28083524Y44936677D01*
X28083524Y44936677D02*
X28131143Y44841439D01*
X28131143Y44841439D02*
X28226381Y44746200D01*
X28226381Y44746200D02*
X28369238Y44698581D01*
X28369238Y44698581D02*
X28464476Y44698581D01*
X28464476Y44698581D02*
X28607333Y44746200D01*
X28607333Y44746200D02*
X28654952Y44793820D01*
X28654952Y44793820D02*
X28654952Y45127153D01*
X28654952Y45127153D02*
X28464476Y45127153D01*
X29083524Y44698581D02*
X29083524Y45698581D01*
X29083524Y45698581D02*
X29464476Y45698581D01*
X29464476Y45698581D02*
X29559714Y45650962D01*
X29559714Y45650962D02*
X29607333Y45603343D01*
X29607333Y45603343D02*
X29654952Y45508105D01*
X29654952Y45508105D02*
X29654952Y45365248D01*
X29654952Y45365248D02*
X29607333Y45270010D01*
X29607333Y45270010D02*
X29559714Y45222391D01*
X29559714Y45222391D02*
X29464476Y45174772D01*
X29464476Y45174772D02*
X29083524Y45174772D01*
X30083524Y44698581D02*
X30083524Y45698581D01*
X30750190Y45698581D02*
X30940666Y45698581D01*
X30940666Y45698581D02*
X31035904Y45650962D01*
X31035904Y45650962D02*
X31131142Y45555724D01*
X31131142Y45555724D02*
X31178761Y45365248D01*
X31178761Y45365248D02*
X31178761Y45031915D01*
X31178761Y45031915D02*
X31131142Y44841439D01*
X31131142Y44841439D02*
X31035904Y44746200D01*
X31035904Y44746200D02*
X30940666Y44698581D01*
X30940666Y44698581D02*
X30750190Y44698581D01*
X30750190Y44698581D02*
X30654952Y44746200D01*
X30654952Y44746200D02*
X30559714Y44841439D01*
X30559714Y44841439D02*
X30512095Y45031915D01*
X30512095Y45031915D02*
X30512095Y45365248D01*
X30512095Y45365248D02*
X30559714Y45555724D01*
X30559714Y45555724D02*
X30654952Y45650962D01*
X30654952Y45650962D02*
X30750190Y45698581D01*
X31559714Y45603343D02*
X31607333Y45650962D01*
X31607333Y45650962D02*
X31702571Y45698581D01*
X31702571Y45698581D02*
X31940666Y45698581D01*
X31940666Y45698581D02*
X32035904Y45650962D01*
X32035904Y45650962D02*
X32083523Y45603343D01*
X32083523Y45603343D02*
X32131142Y45508105D01*
X32131142Y45508105D02*
X32131142Y45412867D01*
X32131142Y45412867D02*
X32083523Y45270010D01*
X32083523Y45270010D02*
X31512095Y44698581D01*
X31512095Y44698581D02*
X32131142Y44698581D01*
X32464476Y45698581D02*
X33083523Y45698581D01*
X33083523Y45698581D02*
X32750190Y45317629D01*
X32750190Y45317629D02*
X32893047Y45317629D01*
X32893047Y45317629D02*
X32988285Y45270010D01*
X32988285Y45270010D02*
X33035904Y45222391D01*
X33035904Y45222391D02*
X33083523Y45127153D01*
X33083523Y45127153D02*
X33083523Y44889058D01*
X33083523Y44889058D02*
X33035904Y44793820D01*
X33035904Y44793820D02*
X32988285Y44746200D01*
X32988285Y44746200D02*
X32893047Y44698581D01*
X32893047Y44698581D02*
X32607333Y44698581D01*
X32607333Y44698581D02*
X32512095Y44746200D01*
X32512095Y44746200D02*
X32464476Y44793820D01*
X11271238Y43158581D02*
X11604571Y42158581D01*
X11604571Y42158581D02*
X11937904Y43158581D01*
X12271238Y42158581D02*
X12271238Y43158581D01*
X12271238Y43158581D02*
X12652190Y43158581D01*
X12652190Y43158581D02*
X12747428Y43110962D01*
X12747428Y43110962D02*
X12795047Y43063343D01*
X12795047Y43063343D02*
X12842666Y42968105D01*
X12842666Y42968105D02*
X12842666Y42825248D01*
X12842666Y42825248D02*
X12795047Y42730010D01*
X12795047Y42730010D02*
X12747428Y42682391D01*
X12747428Y42682391D02*
X12652190Y42634772D01*
X12652190Y42634772D02*
X12271238Y42634772D01*
X13985523Y43206200D02*
X13128381Y41920486D01*
X14842666Y43110962D02*
X14747428Y43158581D01*
X14747428Y43158581D02*
X14604571Y43158581D01*
X14604571Y43158581D02*
X14461714Y43110962D01*
X14461714Y43110962D02*
X14366476Y43015724D01*
X14366476Y43015724D02*
X14318857Y42920486D01*
X14318857Y42920486D02*
X14271238Y42730010D01*
X14271238Y42730010D02*
X14271238Y42587153D01*
X14271238Y42587153D02*
X14318857Y42396677D01*
X14318857Y42396677D02*
X14366476Y42301439D01*
X14366476Y42301439D02*
X14461714Y42206200D01*
X14461714Y42206200D02*
X14604571Y42158581D01*
X14604571Y42158581D02*
X14699809Y42158581D01*
X14699809Y42158581D02*
X14842666Y42206200D01*
X14842666Y42206200D02*
X14890285Y42253820D01*
X14890285Y42253820D02*
X14890285Y42587153D01*
X14890285Y42587153D02*
X14699809Y42587153D01*
X15318857Y42158581D02*
X15318857Y43158581D01*
X15318857Y43158581D02*
X15699809Y43158581D01*
X15699809Y43158581D02*
X15795047Y43110962D01*
X15795047Y43110962D02*
X15842666Y43063343D01*
X15842666Y43063343D02*
X15890285Y42968105D01*
X15890285Y42968105D02*
X15890285Y42825248D01*
X15890285Y42825248D02*
X15842666Y42730010D01*
X15842666Y42730010D02*
X15795047Y42682391D01*
X15795047Y42682391D02*
X15699809Y42634772D01*
X15699809Y42634772D02*
X15318857Y42634772D01*
X16318857Y42158581D02*
X16318857Y43158581D01*
X16985523Y43158581D02*
X17175999Y43158581D01*
X17175999Y43158581D02*
X17271237Y43110962D01*
X17271237Y43110962D02*
X17366475Y43015724D01*
X17366475Y43015724D02*
X17414094Y42825248D01*
X17414094Y42825248D02*
X17414094Y42491915D01*
X17414094Y42491915D02*
X17366475Y42301439D01*
X17366475Y42301439D02*
X17271237Y42206200D01*
X17271237Y42206200D02*
X17175999Y42158581D01*
X17175999Y42158581D02*
X16985523Y42158581D01*
X16985523Y42158581D02*
X16890285Y42206200D01*
X16890285Y42206200D02*
X16795047Y42301439D01*
X16795047Y42301439D02*
X16747428Y42491915D01*
X16747428Y42491915D02*
X16747428Y42825248D01*
X16747428Y42825248D02*
X16795047Y43015724D01*
X16795047Y43015724D02*
X16890285Y43110962D01*
X16890285Y43110962D02*
X16985523Y43158581D01*
X17747428Y43158581D02*
X18366475Y43158581D01*
X18366475Y43158581D02*
X18033142Y42777629D01*
X18033142Y42777629D02*
X18175999Y42777629D01*
X18175999Y42777629D02*
X18271237Y42730010D01*
X18271237Y42730010D02*
X18318856Y42682391D01*
X18318856Y42682391D02*
X18366475Y42587153D01*
X18366475Y42587153D02*
X18366475Y42349058D01*
X18366475Y42349058D02*
X18318856Y42253820D01*
X18318856Y42253820D02*
X18271237Y42206200D01*
X18271237Y42206200D02*
X18175999Y42158581D01*
X18175999Y42158581D02*
X17890285Y42158581D01*
X17890285Y42158581D02*
X17795047Y42206200D01*
X17795047Y42206200D02*
X17747428Y42253820D01*
X19223618Y43158581D02*
X19033142Y43158581D01*
X19033142Y43158581D02*
X18937904Y43110962D01*
X18937904Y43110962D02*
X18890285Y43063343D01*
X18890285Y43063343D02*
X18795047Y42920486D01*
X18795047Y42920486D02*
X18747428Y42730010D01*
X18747428Y42730010D02*
X18747428Y42349058D01*
X18747428Y42349058D02*
X18795047Y42253820D01*
X18795047Y42253820D02*
X18842666Y42206200D01*
X18842666Y42206200D02*
X18937904Y42158581D01*
X18937904Y42158581D02*
X19128380Y42158581D01*
X19128380Y42158581D02*
X19223618Y42206200D01*
X19223618Y42206200D02*
X19271237Y42253820D01*
X19271237Y42253820D02*
X19318856Y42349058D01*
X19318856Y42349058D02*
X19318856Y42587153D01*
X19318856Y42587153D02*
X19271237Y42682391D01*
X19271237Y42682391D02*
X19223618Y42730010D01*
X19223618Y42730010D02*
X19128380Y42777629D01*
X19128380Y42777629D02*
X18937904Y42777629D01*
X18937904Y42777629D02*
X18842666Y42730010D01*
X18842666Y42730010D02*
X18795047Y42682391D01*
X18795047Y42682391D02*
X18747428Y42587153D01*
X28607333Y35490962D02*
X28512095Y35538581D01*
X28512095Y35538581D02*
X28369238Y35538581D01*
X28369238Y35538581D02*
X28226381Y35490962D01*
X28226381Y35490962D02*
X28131143Y35395724D01*
X28131143Y35395724D02*
X28083524Y35300486D01*
X28083524Y35300486D02*
X28035905Y35110010D01*
X28035905Y35110010D02*
X28035905Y34967153D01*
X28035905Y34967153D02*
X28083524Y34776677D01*
X28083524Y34776677D02*
X28131143Y34681439D01*
X28131143Y34681439D02*
X28226381Y34586200D01*
X28226381Y34586200D02*
X28369238Y34538581D01*
X28369238Y34538581D02*
X28464476Y34538581D01*
X28464476Y34538581D02*
X28607333Y34586200D01*
X28607333Y34586200D02*
X28654952Y34633820D01*
X28654952Y34633820D02*
X28654952Y34967153D01*
X28654952Y34967153D02*
X28464476Y34967153D01*
X29083524Y34538581D02*
X29083524Y35538581D01*
X29083524Y35538581D02*
X29464476Y35538581D01*
X29464476Y35538581D02*
X29559714Y35490962D01*
X29559714Y35490962D02*
X29607333Y35443343D01*
X29607333Y35443343D02*
X29654952Y35348105D01*
X29654952Y35348105D02*
X29654952Y35205248D01*
X29654952Y35205248D02*
X29607333Y35110010D01*
X29607333Y35110010D02*
X29559714Y35062391D01*
X29559714Y35062391D02*
X29464476Y35014772D01*
X29464476Y35014772D02*
X29083524Y35014772D01*
X30083524Y34538581D02*
X30083524Y35538581D01*
X30750190Y35538581D02*
X30940666Y35538581D01*
X30940666Y35538581D02*
X31035904Y35490962D01*
X31035904Y35490962D02*
X31131142Y35395724D01*
X31131142Y35395724D02*
X31178761Y35205248D01*
X31178761Y35205248D02*
X31178761Y34871915D01*
X31178761Y34871915D02*
X31131142Y34681439D01*
X31131142Y34681439D02*
X31035904Y34586200D01*
X31035904Y34586200D02*
X30940666Y34538581D01*
X30940666Y34538581D02*
X30750190Y34538581D01*
X30750190Y34538581D02*
X30654952Y34586200D01*
X30654952Y34586200D02*
X30559714Y34681439D01*
X30559714Y34681439D02*
X30512095Y34871915D01*
X30512095Y34871915D02*
X30512095Y35205248D01*
X30512095Y35205248D02*
X30559714Y35395724D01*
X30559714Y35395724D02*
X30654952Y35490962D01*
X30654952Y35490962D02*
X30750190Y35538581D01*
X31559714Y35443343D02*
X31607333Y35490962D01*
X31607333Y35490962D02*
X31702571Y35538581D01*
X31702571Y35538581D02*
X31940666Y35538581D01*
X31940666Y35538581D02*
X32035904Y35490962D01*
X32035904Y35490962D02*
X32083523Y35443343D01*
X32083523Y35443343D02*
X32131142Y35348105D01*
X32131142Y35348105D02*
X32131142Y35252867D01*
X32131142Y35252867D02*
X32083523Y35110010D01*
X32083523Y35110010D02*
X31512095Y34538581D01*
X31512095Y34538581D02*
X32131142Y34538581D01*
X33083523Y34538581D02*
X32512095Y34538581D01*
X32797809Y34538581D02*
X32797809Y35538581D01*
X32797809Y35538581D02*
X32702571Y35395724D01*
X32702571Y35395724D02*
X32607333Y35300486D01*
X32607333Y35300486D02*
X32512095Y35252867D01*
X11271238Y40618581D02*
X11604571Y39618581D01*
X11604571Y39618581D02*
X11937904Y40618581D01*
X12271238Y39618581D02*
X12271238Y40618581D01*
X12271238Y40618581D02*
X12842666Y39618581D01*
X12842666Y39618581D02*
X12842666Y40618581D01*
X14033142Y40666200D02*
X13176000Y39380486D01*
X14890285Y40570962D02*
X14795047Y40618581D01*
X14795047Y40618581D02*
X14652190Y40618581D01*
X14652190Y40618581D02*
X14509333Y40570962D01*
X14509333Y40570962D02*
X14414095Y40475724D01*
X14414095Y40475724D02*
X14366476Y40380486D01*
X14366476Y40380486D02*
X14318857Y40190010D01*
X14318857Y40190010D02*
X14318857Y40047153D01*
X14318857Y40047153D02*
X14366476Y39856677D01*
X14366476Y39856677D02*
X14414095Y39761439D01*
X14414095Y39761439D02*
X14509333Y39666200D01*
X14509333Y39666200D02*
X14652190Y39618581D01*
X14652190Y39618581D02*
X14747428Y39618581D01*
X14747428Y39618581D02*
X14890285Y39666200D01*
X14890285Y39666200D02*
X14937904Y39713820D01*
X14937904Y39713820D02*
X14937904Y40047153D01*
X14937904Y40047153D02*
X14747428Y40047153D01*
X15366476Y39618581D02*
X15366476Y40618581D01*
X15366476Y40618581D02*
X15747428Y40618581D01*
X15747428Y40618581D02*
X15842666Y40570962D01*
X15842666Y40570962D02*
X15890285Y40523343D01*
X15890285Y40523343D02*
X15937904Y40428105D01*
X15937904Y40428105D02*
X15937904Y40285248D01*
X15937904Y40285248D02*
X15890285Y40190010D01*
X15890285Y40190010D02*
X15842666Y40142391D01*
X15842666Y40142391D02*
X15747428Y40094772D01*
X15747428Y40094772D02*
X15366476Y40094772D01*
X16366476Y39618581D02*
X16366476Y40618581D01*
X17033142Y40618581D02*
X17223618Y40618581D01*
X17223618Y40618581D02*
X17318856Y40570962D01*
X17318856Y40570962D02*
X17414094Y40475724D01*
X17414094Y40475724D02*
X17461713Y40285248D01*
X17461713Y40285248D02*
X17461713Y39951915D01*
X17461713Y39951915D02*
X17414094Y39761439D01*
X17414094Y39761439D02*
X17318856Y39666200D01*
X17318856Y39666200D02*
X17223618Y39618581D01*
X17223618Y39618581D02*
X17033142Y39618581D01*
X17033142Y39618581D02*
X16937904Y39666200D01*
X16937904Y39666200D02*
X16842666Y39761439D01*
X16842666Y39761439D02*
X16795047Y39951915D01*
X16795047Y39951915D02*
X16795047Y40285248D01*
X16795047Y40285248D02*
X16842666Y40475724D01*
X16842666Y40475724D02*
X16937904Y40570962D01*
X16937904Y40570962D02*
X17033142Y40618581D01*
X17795047Y40618581D02*
X18414094Y40618581D01*
X18414094Y40618581D02*
X18080761Y40237629D01*
X18080761Y40237629D02*
X18223618Y40237629D01*
X18223618Y40237629D02*
X18318856Y40190010D01*
X18318856Y40190010D02*
X18366475Y40142391D01*
X18366475Y40142391D02*
X18414094Y40047153D01*
X18414094Y40047153D02*
X18414094Y39809058D01*
X18414094Y39809058D02*
X18366475Y39713820D01*
X18366475Y39713820D02*
X18318856Y39666200D01*
X18318856Y39666200D02*
X18223618Y39618581D01*
X18223618Y39618581D02*
X17937904Y39618581D01*
X17937904Y39618581D02*
X17842666Y39666200D01*
X17842666Y39666200D02*
X17795047Y39713820D01*
X18890285Y39618581D02*
X19080761Y39618581D01*
X19080761Y39618581D02*
X19175999Y39666200D01*
X19175999Y39666200D02*
X19223618Y39713820D01*
X19223618Y39713820D02*
X19318856Y39856677D01*
X19318856Y39856677D02*
X19366475Y40047153D01*
X19366475Y40047153D02*
X19366475Y40428105D01*
X19366475Y40428105D02*
X19318856Y40523343D01*
X19318856Y40523343D02*
X19271237Y40570962D01*
X19271237Y40570962D02*
X19175999Y40618581D01*
X19175999Y40618581D02*
X18985523Y40618581D01*
X18985523Y40618581D02*
X18890285Y40570962D01*
X18890285Y40570962D02*
X18842666Y40523343D01*
X18842666Y40523343D02*
X18795047Y40428105D01*
X18795047Y40428105D02*
X18795047Y40190010D01*
X18795047Y40190010D02*
X18842666Y40094772D01*
X18842666Y40094772D02*
X18890285Y40047153D01*
X18890285Y40047153D02*
X18985523Y39999534D01*
X18985523Y39999534D02*
X19175999Y39999534D01*
X19175999Y39999534D02*
X19271237Y40047153D01*
X19271237Y40047153D02*
X19318856Y40094772D01*
X19318856Y40094772D02*
X19366475Y40190010D01*
X28226333Y30410962D02*
X28131095Y30458581D01*
X28131095Y30458581D02*
X27988238Y30458581D01*
X27988238Y30458581D02*
X27845381Y30410962D01*
X27845381Y30410962D02*
X27750143Y30315724D01*
X27750143Y30315724D02*
X27702524Y30220486D01*
X27702524Y30220486D02*
X27654905Y30030010D01*
X27654905Y30030010D02*
X27654905Y29887153D01*
X27654905Y29887153D02*
X27702524Y29696677D01*
X27702524Y29696677D02*
X27750143Y29601439D01*
X27750143Y29601439D02*
X27845381Y29506200D01*
X27845381Y29506200D02*
X27988238Y29458581D01*
X27988238Y29458581D02*
X28083476Y29458581D01*
X28083476Y29458581D02*
X28226333Y29506200D01*
X28226333Y29506200D02*
X28273952Y29553820D01*
X28273952Y29553820D02*
X28273952Y29887153D01*
X28273952Y29887153D02*
X28083476Y29887153D01*
X28702524Y29458581D02*
X28702524Y30458581D01*
X28702524Y30458581D02*
X29083476Y30458581D01*
X29083476Y30458581D02*
X29178714Y30410962D01*
X29178714Y30410962D02*
X29226333Y30363343D01*
X29226333Y30363343D02*
X29273952Y30268105D01*
X29273952Y30268105D02*
X29273952Y30125248D01*
X29273952Y30125248D02*
X29226333Y30030010D01*
X29226333Y30030010D02*
X29178714Y29982391D01*
X29178714Y29982391D02*
X29083476Y29934772D01*
X29083476Y29934772D02*
X28702524Y29934772D01*
X29702524Y29458581D02*
X29702524Y30458581D01*
X30369190Y30458581D02*
X30559666Y30458581D01*
X30559666Y30458581D02*
X30654904Y30410962D01*
X30654904Y30410962D02*
X30750142Y30315724D01*
X30750142Y30315724D02*
X30797761Y30125248D01*
X30797761Y30125248D02*
X30797761Y29791915D01*
X30797761Y29791915D02*
X30750142Y29601439D01*
X30750142Y29601439D02*
X30654904Y29506200D01*
X30654904Y29506200D02*
X30559666Y29458581D01*
X30559666Y29458581D02*
X30369190Y29458581D01*
X30369190Y29458581D02*
X30273952Y29506200D01*
X30273952Y29506200D02*
X30178714Y29601439D01*
X30178714Y29601439D02*
X30131095Y29791915D01*
X30131095Y29791915D02*
X30131095Y30125248D01*
X30131095Y30125248D02*
X30178714Y30315724D01*
X30178714Y30315724D02*
X30273952Y30410962D01*
X30273952Y30410962D02*
X30369190Y30458581D01*
X31750142Y29458581D02*
X31178714Y29458581D01*
X31464428Y29458581D02*
X31464428Y30458581D01*
X31464428Y30458581D02*
X31369190Y30315724D01*
X31369190Y30315724D02*
X31273952Y30220486D01*
X31273952Y30220486D02*
X31178714Y30172867D01*
X32226333Y29458581D02*
X32416809Y29458581D01*
X32416809Y29458581D02*
X32512047Y29506200D01*
X32512047Y29506200D02*
X32559666Y29553820D01*
X32559666Y29553820D02*
X32654904Y29696677D01*
X32654904Y29696677D02*
X32702523Y29887153D01*
X32702523Y29887153D02*
X32702523Y30268105D01*
X32702523Y30268105D02*
X32654904Y30363343D01*
X32654904Y30363343D02*
X32607285Y30410962D01*
X32607285Y30410962D02*
X32512047Y30458581D01*
X32512047Y30458581D02*
X32321571Y30458581D01*
X32321571Y30458581D02*
X32226333Y30410962D01*
X32226333Y30410962D02*
X32178714Y30363343D01*
X32178714Y30363343D02*
X32131095Y30268105D01*
X32131095Y30268105D02*
X32131095Y30030010D01*
X32131095Y30030010D02*
X32178714Y29934772D01*
X32178714Y29934772D02*
X32226333Y29887153D01*
X32226333Y29887153D02*
X32321571Y29839534D01*
X32321571Y29839534D02*
X32512047Y29839534D01*
X32512047Y29839534D02*
X32607285Y29887153D01*
X32607285Y29887153D02*
X32654904Y29934772D01*
X32654904Y29934772D02*
X32702523Y30030010D01*
X11985523Y4153820D02*
X11937904Y4106200D01*
X11937904Y4106200D02*
X11795047Y4058581D01*
X11795047Y4058581D02*
X11699809Y4058581D01*
X11699809Y4058581D02*
X11556952Y4106200D01*
X11556952Y4106200D02*
X11461714Y4201439D01*
X11461714Y4201439D02*
X11414095Y4296677D01*
X11414095Y4296677D02*
X11366476Y4487153D01*
X11366476Y4487153D02*
X11366476Y4630010D01*
X11366476Y4630010D02*
X11414095Y4820486D01*
X11414095Y4820486D02*
X11461714Y4915724D01*
X11461714Y4915724D02*
X11556952Y5010962D01*
X11556952Y5010962D02*
X11699809Y5058581D01*
X11699809Y5058581D02*
X11795047Y5058581D01*
X11795047Y5058581D02*
X11937904Y5010962D01*
X11937904Y5010962D02*
X11985523Y4963343D01*
X12414095Y4058581D02*
X12414095Y5058581D01*
X12414095Y5058581D02*
X12747428Y4344296D01*
X12747428Y4344296D02*
X13080761Y5058581D01*
X13080761Y5058581D02*
X13080761Y4058581D01*
X13556952Y4058581D02*
X13556952Y5058581D01*
X13556952Y5058581D02*
X13795047Y5058581D01*
X13795047Y5058581D02*
X13937904Y5010962D01*
X13937904Y5010962D02*
X14033142Y4915724D01*
X14033142Y4915724D02*
X14080761Y4820486D01*
X14080761Y4820486D02*
X14128380Y4630010D01*
X14128380Y4630010D02*
X14128380Y4487153D01*
X14128380Y4487153D02*
X14080761Y4296677D01*
X14080761Y4296677D02*
X14033142Y4201439D01*
X14033142Y4201439D02*
X13937904Y4106200D01*
X13937904Y4106200D02*
X13795047Y4058581D01*
X13795047Y4058581D02*
X13556952Y4058581D01*
X11890285Y2391581D02*
X11414095Y2391581D01*
X11414095Y2391581D02*
X11366476Y1915391D01*
X11366476Y1915391D02*
X11414095Y1963010D01*
X11414095Y1963010D02*
X11509333Y2010629D01*
X11509333Y2010629D02*
X11747428Y2010629D01*
X11747428Y2010629D02*
X11842666Y1963010D01*
X11842666Y1963010D02*
X11890285Y1915391D01*
X11890285Y1915391D02*
X11937904Y1820153D01*
X11937904Y1820153D02*
X11937904Y1582058D01*
X11937904Y1582058D02*
X11890285Y1486820D01*
X11890285Y1486820D02*
X11842666Y1439200D01*
X11842666Y1439200D02*
X11747428Y1391581D01*
X11747428Y1391581D02*
X11509333Y1391581D01*
X11509333Y1391581D02*
X11414095Y1439200D01*
X11414095Y1439200D02*
X11366476Y1486820D01*
X12223619Y2391581D02*
X12556952Y1391581D01*
X12556952Y1391581D02*
X12890285Y2391581D01*
%TO.C,U7*%
X83312095Y8360581D02*
X83312095Y7551058D01*
X83312095Y7551058D02*
X83359714Y7455820D01*
X83359714Y7455820D02*
X83407333Y7408200D01*
X83407333Y7408200D02*
X83502571Y7360581D01*
X83502571Y7360581D02*
X83693047Y7360581D01*
X83693047Y7360581D02*
X83788285Y7408200D01*
X83788285Y7408200D02*
X83835904Y7455820D01*
X83835904Y7455820D02*
X83883523Y7551058D01*
X83883523Y7551058D02*
X83883523Y8360581D01*
X84264476Y8360581D02*
X84931142Y8360581D01*
X84931142Y8360581D02*
X84502571Y7360581D01*
%TO.C,F1*%
X1462809Y5792867D02*
X1462809Y5459534D01*
X1986619Y5459534D02*
X986619Y5459534D01*
X986619Y5459534D02*
X986619Y5935724D01*
X1986619Y6840486D02*
X1986619Y6269058D01*
X1986619Y6554772D02*
X986619Y6554772D01*
X986619Y6554772D02*
X1129476Y6459534D01*
X1129476Y6459534D02*
X1224714Y6364296D01*
X1224714Y6364296D02*
X1272333Y6269058D01*
%TO.C,C3*%
X2272380Y42454534D02*
X2320000Y42406915D01*
X2320000Y42406915D02*
X2367619Y42264058D01*
X2367619Y42264058D02*
X2367619Y42168820D01*
X2367619Y42168820D02*
X2320000Y42025963D01*
X2320000Y42025963D02*
X2224761Y41930725D01*
X2224761Y41930725D02*
X2129523Y41883106D01*
X2129523Y41883106D02*
X1939047Y41835487D01*
X1939047Y41835487D02*
X1796190Y41835487D01*
X1796190Y41835487D02*
X1605714Y41883106D01*
X1605714Y41883106D02*
X1510476Y41930725D01*
X1510476Y41930725D02*
X1415238Y42025963D01*
X1415238Y42025963D02*
X1367619Y42168820D01*
X1367619Y42168820D02*
X1367619Y42264058D01*
X1367619Y42264058D02*
X1415238Y42406915D01*
X1415238Y42406915D02*
X1462857Y42454534D01*
X1367619Y42787868D02*
X1367619Y43406915D01*
X1367619Y43406915D02*
X1748571Y43073582D01*
X1748571Y43073582D02*
X1748571Y43216439D01*
X1748571Y43216439D02*
X1796190Y43311677D01*
X1796190Y43311677D02*
X1843809Y43359296D01*
X1843809Y43359296D02*
X1939047Y43406915D01*
X1939047Y43406915D02*
X2177142Y43406915D01*
X2177142Y43406915D02*
X2272380Y43359296D01*
X2272380Y43359296D02*
X2320000Y43311677D01*
X2320000Y43311677D02*
X2367619Y43216439D01*
X2367619Y43216439D02*
X2367619Y42930725D01*
X2367619Y42930725D02*
X2320000Y42835487D01*
X2320000Y42835487D02*
X2272380Y42787868D01*
%TO.C,LS1*%
X58666142Y24124581D02*
X58189952Y24124581D01*
X58189952Y24124581D02*
X58189952Y25124581D01*
X58951857Y24172200D02*
X59094714Y24124581D01*
X59094714Y24124581D02*
X59332809Y24124581D01*
X59332809Y24124581D02*
X59428047Y24172200D01*
X59428047Y24172200D02*
X59475666Y24219820D01*
X59475666Y24219820D02*
X59523285Y24315058D01*
X59523285Y24315058D02*
X59523285Y24410296D01*
X59523285Y24410296D02*
X59475666Y24505534D01*
X59475666Y24505534D02*
X59428047Y24553153D01*
X59428047Y24553153D02*
X59332809Y24600772D01*
X59332809Y24600772D02*
X59142333Y24648391D01*
X59142333Y24648391D02*
X59047095Y24696010D01*
X59047095Y24696010D02*
X58999476Y24743629D01*
X58999476Y24743629D02*
X58951857Y24838867D01*
X58951857Y24838867D02*
X58951857Y24934105D01*
X58951857Y24934105D02*
X58999476Y25029343D01*
X58999476Y25029343D02*
X59047095Y25076962D01*
X59047095Y25076962D02*
X59142333Y25124581D01*
X59142333Y25124581D02*
X59380428Y25124581D01*
X59380428Y25124581D02*
X59523285Y25076962D01*
X60475666Y24124581D02*
X59904238Y24124581D01*
X60189952Y24124581D02*
X60189952Y25124581D01*
X60189952Y25124581D02*
X60094714Y24981724D01*
X60094714Y24981724D02*
X59999476Y24886486D01*
X59999476Y24886486D02*
X59904238Y24838867D01*
%TO.C,R1*%
X90003333Y26156581D02*
X89670000Y26632772D01*
X89431905Y26156581D02*
X89431905Y27156581D01*
X89431905Y27156581D02*
X89812857Y27156581D01*
X89812857Y27156581D02*
X89908095Y27108962D01*
X89908095Y27108962D02*
X89955714Y27061343D01*
X89955714Y27061343D02*
X90003333Y26966105D01*
X90003333Y26966105D02*
X90003333Y26823248D01*
X90003333Y26823248D02*
X89955714Y26728010D01*
X89955714Y26728010D02*
X89908095Y26680391D01*
X89908095Y26680391D02*
X89812857Y26632772D01*
X89812857Y26632772D02*
X89431905Y26632772D01*
X90955714Y26156581D02*
X90384286Y26156581D01*
X90670000Y26156581D02*
X90670000Y27156581D01*
X90670000Y27156581D02*
X90574762Y27013724D01*
X90574762Y27013724D02*
X90479524Y26918486D01*
X90479524Y26918486D02*
X90384286Y26870867D01*
%TO.C,SW2*%
X54800667Y7916200D02*
X54943524Y7868581D01*
X54943524Y7868581D02*
X55181619Y7868581D01*
X55181619Y7868581D02*
X55276857Y7916200D01*
X55276857Y7916200D02*
X55324476Y7963820D01*
X55324476Y7963820D02*
X55372095Y8059058D01*
X55372095Y8059058D02*
X55372095Y8154296D01*
X55372095Y8154296D02*
X55324476Y8249534D01*
X55324476Y8249534D02*
X55276857Y8297153D01*
X55276857Y8297153D02*
X55181619Y8344772D01*
X55181619Y8344772D02*
X54991143Y8392391D01*
X54991143Y8392391D02*
X54895905Y8440010D01*
X54895905Y8440010D02*
X54848286Y8487629D01*
X54848286Y8487629D02*
X54800667Y8582867D01*
X54800667Y8582867D02*
X54800667Y8678105D01*
X54800667Y8678105D02*
X54848286Y8773343D01*
X54848286Y8773343D02*
X54895905Y8820962D01*
X54895905Y8820962D02*
X54991143Y8868581D01*
X54991143Y8868581D02*
X55229238Y8868581D01*
X55229238Y8868581D02*
X55372095Y8820962D01*
X55705429Y8868581D02*
X55943524Y7868581D01*
X55943524Y7868581D02*
X56134000Y8582867D01*
X56134000Y8582867D02*
X56324476Y7868581D01*
X56324476Y7868581D02*
X56562572Y8868581D01*
X56895905Y8773343D02*
X56943524Y8820962D01*
X56943524Y8820962D02*
X57038762Y8868581D01*
X57038762Y8868581D02*
X57276857Y8868581D01*
X57276857Y8868581D02*
X57372095Y8820962D01*
X57372095Y8820962D02*
X57419714Y8773343D01*
X57419714Y8773343D02*
X57467333Y8678105D01*
X57467333Y8678105D02*
X57467333Y8582867D01*
X57467333Y8582867D02*
X57419714Y8440010D01*
X57419714Y8440010D02*
X56848286Y7868581D01*
X56848286Y7868581D02*
X57467333Y7868581D01*
%TO.C,R3*%
X90003333Y30939581D02*
X89670000Y31415772D01*
X89431905Y30939581D02*
X89431905Y31939581D01*
X89431905Y31939581D02*
X89812857Y31939581D01*
X89812857Y31939581D02*
X89908095Y31891962D01*
X89908095Y31891962D02*
X89955714Y31844343D01*
X89955714Y31844343D02*
X90003333Y31749105D01*
X90003333Y31749105D02*
X90003333Y31606248D01*
X90003333Y31606248D02*
X89955714Y31511010D01*
X89955714Y31511010D02*
X89908095Y31463391D01*
X89908095Y31463391D02*
X89812857Y31415772D01*
X89812857Y31415772D02*
X89431905Y31415772D01*
X90336667Y31939581D02*
X90955714Y31939581D01*
X90955714Y31939581D02*
X90622381Y31558629D01*
X90622381Y31558629D02*
X90765238Y31558629D01*
X90765238Y31558629D02*
X90860476Y31511010D01*
X90860476Y31511010D02*
X90908095Y31463391D01*
X90908095Y31463391D02*
X90955714Y31368153D01*
X90955714Y31368153D02*
X90955714Y31130058D01*
X90955714Y31130058D02*
X90908095Y31034820D01*
X90908095Y31034820D02*
X90860476Y30987200D01*
X90860476Y30987200D02*
X90765238Y30939581D01*
X90765238Y30939581D02*
X90479524Y30939581D01*
X90479524Y30939581D02*
X90384286Y30987200D01*
X90384286Y30987200D02*
X90336667Y31034820D01*
%TO.C,C2*%
X47077333Y16472820D02*
X47029714Y16425200D01*
X47029714Y16425200D02*
X46886857Y16377581D01*
X46886857Y16377581D02*
X46791619Y16377581D01*
X46791619Y16377581D02*
X46648762Y16425200D01*
X46648762Y16425200D02*
X46553524Y16520439D01*
X46553524Y16520439D02*
X46505905Y16615677D01*
X46505905Y16615677D02*
X46458286Y16806153D01*
X46458286Y16806153D02*
X46458286Y16949010D01*
X46458286Y16949010D02*
X46505905Y17139486D01*
X46505905Y17139486D02*
X46553524Y17234724D01*
X46553524Y17234724D02*
X46648762Y17329962D01*
X46648762Y17329962D02*
X46791619Y17377581D01*
X46791619Y17377581D02*
X46886857Y17377581D01*
X46886857Y17377581D02*
X47029714Y17329962D01*
X47029714Y17329962D02*
X47077333Y17282343D01*
X47458286Y17282343D02*
X47505905Y17329962D01*
X47505905Y17329962D02*
X47601143Y17377581D01*
X47601143Y17377581D02*
X47839238Y17377581D01*
X47839238Y17377581D02*
X47934476Y17329962D01*
X47934476Y17329962D02*
X47982095Y17282343D01*
X47982095Y17282343D02*
X48029714Y17187105D01*
X48029714Y17187105D02*
X48029714Y17091867D01*
X48029714Y17091867D02*
X47982095Y16949010D01*
X47982095Y16949010D02*
X47410667Y16377581D01*
X47410667Y16377581D02*
X48029714Y16377581D01*
%TO.C,R8*%
X3172619Y17689534D02*
X2696428Y17356201D01*
X3172619Y17118106D02*
X2172619Y17118106D01*
X2172619Y17118106D02*
X2172619Y17499058D01*
X2172619Y17499058D02*
X2220238Y17594296D01*
X2220238Y17594296D02*
X2267857Y17641915D01*
X2267857Y17641915D02*
X2363095Y17689534D01*
X2363095Y17689534D02*
X2505952Y17689534D01*
X2505952Y17689534D02*
X2601190Y17641915D01*
X2601190Y17641915D02*
X2648809Y17594296D01*
X2648809Y17594296D02*
X2696428Y17499058D01*
X2696428Y17499058D02*
X2696428Y17118106D01*
X2601190Y18260963D02*
X2553571Y18165725D01*
X2553571Y18165725D02*
X2505952Y18118106D01*
X2505952Y18118106D02*
X2410714Y18070487D01*
X2410714Y18070487D02*
X2363095Y18070487D01*
X2363095Y18070487D02*
X2267857Y18118106D01*
X2267857Y18118106D02*
X2220238Y18165725D01*
X2220238Y18165725D02*
X2172619Y18260963D01*
X2172619Y18260963D02*
X2172619Y18451439D01*
X2172619Y18451439D02*
X2220238Y18546677D01*
X2220238Y18546677D02*
X2267857Y18594296D01*
X2267857Y18594296D02*
X2363095Y18641915D01*
X2363095Y18641915D02*
X2410714Y18641915D01*
X2410714Y18641915D02*
X2505952Y18594296D01*
X2505952Y18594296D02*
X2553571Y18546677D01*
X2553571Y18546677D02*
X2601190Y18451439D01*
X2601190Y18451439D02*
X2601190Y18260963D01*
X2601190Y18260963D02*
X2648809Y18165725D01*
X2648809Y18165725D02*
X2696428Y18118106D01*
X2696428Y18118106D02*
X2791666Y18070487D01*
X2791666Y18070487D02*
X2982142Y18070487D01*
X2982142Y18070487D02*
X3077380Y18118106D01*
X3077380Y18118106D02*
X3125000Y18165725D01*
X3125000Y18165725D02*
X3172619Y18260963D01*
X3172619Y18260963D02*
X3172619Y18451439D01*
X3172619Y18451439D02*
X3125000Y18546677D01*
X3125000Y18546677D02*
X3077380Y18594296D01*
X3077380Y18594296D02*
X2982142Y18641915D01*
X2982142Y18641915D02*
X2791666Y18641915D01*
X2791666Y18641915D02*
X2696428Y18594296D01*
X2696428Y18594296D02*
X2648809Y18546677D01*
X2648809Y18546677D02*
X2601190Y18451439D01*
D12*
%TO.C,R9*%
X60857000Y35509200D02*
X61627000Y35509200D01*
X68937000Y35509200D02*
X68167000Y35509200D01*
X68167000Y34139200D02*
X68167000Y36879200D01*
X61627000Y36879200D02*
X61627000Y34139200D01*
X68167000Y36879200D02*
X61627000Y36879200D01*
X61627000Y34139200D02*
X68167000Y34139200D01*
%TO.C,R2*%
X39648000Y13411200D02*
X40418000Y13411200D01*
X40418000Y14781200D02*
X40418000Y12041200D01*
X40418000Y12041200D02*
X46958000Y12041200D01*
X46958000Y14781200D02*
X40418000Y14781200D01*
X46958000Y12041200D02*
X46958000Y14781200D01*
X47728000Y13411200D02*
X46958000Y13411200D01*
%TO.C,C8*%
X92610000Y51578200D02*
X95350000Y51578200D01*
X92610000Y51578200D02*
X92610000Y56818200D01*
X95350000Y51578200D02*
X95350000Y56818200D01*
X92610000Y56818200D02*
X95350000Y56818200D01*
%TO.C,RV1*%
X86490000Y16323200D02*
X86490000Y9483200D01*
X86490000Y16323200D02*
X89520000Y16323200D01*
X86490000Y9483200D02*
X89520000Y9483200D01*
X90820000Y16323200D02*
X93730000Y16323200D01*
X90820000Y9483200D02*
X93730000Y9483200D01*
X93730000Y16323200D02*
X93730000Y9483200D01*
%TO.C,C9*%
X96639698Y41068200D02*
X95839698Y41068200D01*
X96239698Y40668200D02*
X96239698Y41468200D01*
X92230000Y39303200D02*
X92230000Y47463200D01*
X92190000Y39303200D02*
X92190000Y47463200D01*
X92150000Y39303200D02*
X92150000Y47463200D01*
X92110000Y39304200D02*
X92110000Y47462200D01*
X92070000Y39306200D02*
X92070000Y47460200D01*
X92030000Y39307200D02*
X92030000Y47459200D01*
X91990000Y39309200D02*
X91990000Y47457200D01*
X91950000Y39312200D02*
X91950000Y47454200D01*
X91910000Y39315200D02*
X91910000Y47451200D01*
X91870000Y39318200D02*
X91870000Y47448200D01*
X91830000Y39322200D02*
X91830000Y47444200D01*
X91790000Y39326200D02*
X91790000Y47440200D01*
X91750000Y39331200D02*
X91750000Y47435200D01*
X91710000Y39335200D02*
X91710000Y47431200D01*
X91670000Y39341200D02*
X91670000Y47425200D01*
X91630000Y39346200D02*
X91630000Y47420200D01*
X91590000Y39353200D02*
X91590000Y47413200D01*
X91550000Y39359200D02*
X91550000Y47407200D01*
X91509000Y39366200D02*
X91509000Y42343200D01*
X91509000Y44423200D02*
X91509000Y47400200D01*
X91469000Y39373200D02*
X91469000Y42343200D01*
X91469000Y44423200D02*
X91469000Y47393200D01*
X91429000Y39381200D02*
X91429000Y42343200D01*
X91429000Y44423200D02*
X91429000Y47385200D01*
X91389000Y39389200D02*
X91389000Y42343200D01*
X91389000Y44423200D02*
X91389000Y47377200D01*
X91349000Y39398200D02*
X91349000Y42343200D01*
X91349000Y44423200D02*
X91349000Y47368200D01*
X91309000Y39407200D02*
X91309000Y42343200D01*
X91309000Y44423200D02*
X91309000Y47359200D01*
X91269000Y39416200D02*
X91269000Y42343200D01*
X91269000Y44423200D02*
X91269000Y47350200D01*
X91229000Y39426200D02*
X91229000Y42343200D01*
X91229000Y44423200D02*
X91229000Y47340200D01*
X91189000Y39436200D02*
X91189000Y42343200D01*
X91189000Y44423200D02*
X91189000Y47330200D01*
X91149000Y39447200D02*
X91149000Y42343200D01*
X91149000Y44423200D02*
X91149000Y47319200D01*
X91109000Y39458200D02*
X91109000Y42343200D01*
X91109000Y44423200D02*
X91109000Y47308200D01*
X91069000Y39469200D02*
X91069000Y42343200D01*
X91069000Y44423200D02*
X91069000Y47297200D01*
X91029000Y39481200D02*
X91029000Y42343200D01*
X91029000Y44423200D02*
X91029000Y47285200D01*
X90989000Y39494200D02*
X90989000Y42343200D01*
X90989000Y44423200D02*
X90989000Y47272200D01*
X90949000Y39506200D02*
X90949000Y42343200D01*
X90949000Y44423200D02*
X90949000Y47260200D01*
X90909000Y39520200D02*
X90909000Y42343200D01*
X90909000Y44423200D02*
X90909000Y47246200D01*
X90869000Y39533200D02*
X90869000Y42343200D01*
X90869000Y44423200D02*
X90869000Y47233200D01*
X90829000Y39548200D02*
X90829000Y42343200D01*
X90829000Y44423200D02*
X90829000Y47218200D01*
X90789000Y39562200D02*
X90789000Y42343200D01*
X90789000Y44423200D02*
X90789000Y47204200D01*
X90749000Y39578200D02*
X90749000Y42343200D01*
X90749000Y44423200D02*
X90749000Y47188200D01*
X90709000Y39593200D02*
X90709000Y42343200D01*
X90709000Y44423200D02*
X90709000Y47173200D01*
X90669000Y39609200D02*
X90669000Y42343200D01*
X90669000Y44423200D02*
X90669000Y47157200D01*
X90629000Y39626200D02*
X90629000Y42343200D01*
X90629000Y44423200D02*
X90629000Y47140200D01*
X90589000Y39643200D02*
X90589000Y42343200D01*
X90589000Y44423200D02*
X90589000Y47123200D01*
X90549000Y39661200D02*
X90549000Y42343200D01*
X90549000Y44423200D02*
X90549000Y47105200D01*
X90509000Y39679200D02*
X90509000Y42343200D01*
X90509000Y44423200D02*
X90509000Y47087200D01*
X90469000Y39697200D02*
X90469000Y42343200D01*
X90469000Y44423200D02*
X90469000Y47069200D01*
X90429000Y39717200D02*
X90429000Y42343200D01*
X90429000Y44423200D02*
X90429000Y47049200D01*
X90389000Y39736200D02*
X90389000Y42343200D01*
X90389000Y44423200D02*
X90389000Y47030200D01*
X90349000Y39756200D02*
X90349000Y42343200D01*
X90349000Y44423200D02*
X90349000Y47010200D01*
X90309000Y39777200D02*
X90309000Y42343200D01*
X90309000Y44423200D02*
X90309000Y46989200D01*
X90269000Y39799200D02*
X90269000Y42343200D01*
X90269000Y44423200D02*
X90269000Y46967200D01*
X90229000Y39821200D02*
X90229000Y42343200D01*
X90229000Y44423200D02*
X90229000Y46945200D01*
X90189000Y39843200D02*
X90189000Y42343200D01*
X90189000Y44423200D02*
X90189000Y46923200D01*
X90149000Y39866200D02*
X90149000Y42343200D01*
X90149000Y44423200D02*
X90149000Y46900200D01*
X90109000Y39890200D02*
X90109000Y42343200D01*
X90109000Y44423200D02*
X90109000Y46876200D01*
X90069000Y39914200D02*
X90069000Y42343200D01*
X90069000Y44423200D02*
X90069000Y46852200D01*
X90029000Y39939200D02*
X90029000Y42343200D01*
X90029000Y44423200D02*
X90029000Y46827200D01*
X89989000Y39965200D02*
X89989000Y42343200D01*
X89989000Y44423200D02*
X89989000Y46801200D01*
X89949000Y39991200D02*
X89949000Y42343200D01*
X89949000Y44423200D02*
X89949000Y46775200D01*
X89909000Y40018200D02*
X89909000Y42343200D01*
X89909000Y44423200D02*
X89909000Y46748200D01*
X89869000Y40045200D02*
X89869000Y42343200D01*
X89869000Y44423200D02*
X89869000Y46721200D01*
X89829000Y40074200D02*
X89829000Y42343200D01*
X89829000Y44423200D02*
X89829000Y46692200D01*
X89789000Y40103200D02*
X89789000Y42343200D01*
X89789000Y44423200D02*
X89789000Y46663200D01*
X89749000Y40133200D02*
X89749000Y42343200D01*
X89749000Y44423200D02*
X89749000Y46633200D01*
X89709000Y40163200D02*
X89709000Y42343200D01*
X89709000Y44423200D02*
X89709000Y46603200D01*
X89669000Y40194200D02*
X89669000Y42343200D01*
X89669000Y44423200D02*
X89669000Y46572200D01*
X89629000Y40227200D02*
X89629000Y42343200D01*
X89629000Y44423200D02*
X89629000Y46539200D01*
X89589000Y40259200D02*
X89589000Y42343200D01*
X89589000Y44423200D02*
X89589000Y46507200D01*
X89549000Y40293200D02*
X89549000Y42343200D01*
X89549000Y44423200D02*
X89549000Y46473200D01*
X89509000Y40328200D02*
X89509000Y42343200D01*
X89509000Y44423200D02*
X89509000Y46438200D01*
X89469000Y40364200D02*
X89469000Y42343200D01*
X89469000Y44423200D02*
X89469000Y46402200D01*
X89429000Y40400200D02*
X89429000Y46366200D01*
X89389000Y40438200D02*
X89389000Y46328200D01*
X89349000Y40476200D02*
X89349000Y46290200D01*
X89309000Y40516200D02*
X89309000Y46250200D01*
X89269000Y40557200D02*
X89269000Y46209200D01*
X89229000Y40599200D02*
X89229000Y46167200D01*
X89189000Y40642200D02*
X89189000Y46124200D01*
X89149000Y40686200D02*
X89149000Y46080200D01*
X89109000Y40732200D02*
X89109000Y46034200D01*
X89069000Y40779200D02*
X89069000Y45987200D01*
X89029000Y40827200D02*
X89029000Y45939200D01*
X88989000Y40878200D02*
X88989000Y45888200D01*
X88949000Y40929200D02*
X88949000Y45837200D01*
X88909000Y40983200D02*
X88909000Y45783200D01*
X88869000Y41038200D02*
X88869000Y45728200D01*
X88829000Y41096200D02*
X88829000Y45670200D01*
X88789000Y41155200D02*
X88789000Y45611200D01*
X88749000Y41217200D02*
X88749000Y45549200D01*
X88709000Y41281200D02*
X88709000Y45485200D01*
X88669000Y41349200D02*
X88669000Y45417200D01*
X88629000Y41419200D02*
X88629000Y45347200D01*
X88589000Y41493200D02*
X88589000Y45273200D01*
X88549000Y41570200D02*
X88549000Y45196200D01*
X88509000Y41652200D02*
X88509000Y45114200D01*
X88469000Y41738200D02*
X88469000Y45028200D01*
X88429000Y41831200D02*
X88429000Y44935200D01*
X88389000Y41930200D02*
X88389000Y44836200D01*
X88349000Y42037200D02*
X88349000Y44729200D01*
X88309000Y42154200D02*
X88309000Y44612200D01*
X88269000Y42285200D02*
X88269000Y44481200D01*
X88229000Y42435200D02*
X88229000Y44331200D01*
X88189000Y42615200D02*
X88189000Y44151200D01*
X88149000Y42850200D02*
X88149000Y43916200D01*
X96350000Y43383200D02*
G75*
G03*
X96350000Y43383200I-4120000J0D01*
G01*
D11*
%TO.C,U5*%
X95250000Y68756200D02*
X3810000Y68756200D01*
X3810000Y64946200D02*
X95250000Y64946200D01*
D12*
%TO.C,U4*%
X37980000Y48801200D02*
X61080000Y48801200D01*
X61080000Y48801200D02*
X61080000Y59301200D01*
X38040000Y51801200D02*
X61020000Y51801200D01*
X61020000Y51801200D02*
X61020000Y56301200D01*
X38040000Y53051200D02*
X38040000Y51801200D01*
X38040000Y56301200D02*
X38040000Y55051200D01*
X61020000Y56301200D02*
X38040000Y56301200D01*
X37980000Y59301200D02*
X37980000Y48801200D01*
X61080000Y59301200D02*
X37980000Y59301200D01*
X38040000Y53051200D02*
G75*
G03*
X38040000Y55051200I0J1000000D01*
G01*
%TO.C,R4*%
X83415000Y12903200D02*
X82645000Y12903200D01*
X82645000Y11533200D02*
X82645000Y14273200D01*
X82645000Y14273200D02*
X76105000Y14273200D01*
X76105000Y11533200D02*
X82645000Y11533200D01*
X76105000Y14273200D02*
X76105000Y11533200D01*
X75335000Y12903200D02*
X76105000Y12903200D01*
%TO.C,C7*%
X62130000Y51578200D02*
X64870000Y51578200D01*
X62130000Y51578200D02*
X62130000Y56818200D01*
X64870000Y51578200D02*
X64870000Y56818200D01*
X62130000Y56818200D02*
X64870000Y56818200D01*
%TO.C,R5*%
X3580000Y62306200D02*
X4350000Y62306200D01*
X4350000Y63676200D02*
X4350000Y60936200D01*
X4350000Y60936200D02*
X10890000Y60936200D01*
X10890000Y63676200D02*
X4350000Y63676200D01*
X10890000Y60936200D02*
X10890000Y63676200D01*
X11660000Y62306200D02*
X10890000Y62306200D01*
%TO.C,L1*%
X81864000Y32461200D02*
G75*
G03*
X81864000Y32461200I-5370000J0D01*
G01*
%TO.C,U6*%
X68460000Y48801200D02*
X91560000Y48801200D01*
X91560000Y48801200D02*
X91560000Y59301200D01*
X68520000Y51801200D02*
X91500000Y51801200D01*
X91500000Y51801200D02*
X91500000Y56301200D01*
X68520000Y53051200D02*
X68520000Y51801200D01*
X68520000Y56301200D02*
X68520000Y55051200D01*
X91500000Y56301200D02*
X68520000Y56301200D01*
X68460000Y59301200D02*
X68460000Y48801200D01*
X91560000Y59301200D02*
X68460000Y59301200D01*
X68520000Y53051200D02*
G75*
G03*
X68520000Y55051200I0J1000000D01*
G01*
%TO.C,SW3*%
X72095000Y2456200D02*
X72095000Y6356200D01*
X72095000Y2456200D02*
X64375000Y2456200D01*
X72095000Y8956200D02*
X72095000Y9466200D01*
X72095000Y9466200D02*
X71575000Y9466200D01*
X71575000Y6126200D02*
X71575000Y6356200D01*
X71575000Y6126200D02*
X71035000Y6126200D01*
X71575000Y8956200D02*
X71575000Y9466200D01*
X69935000Y6126200D02*
X66535000Y6126200D01*
X65435000Y6126200D02*
X64895000Y6126200D01*
X64895000Y6126200D02*
X64895000Y6356200D01*
X64895000Y8956200D02*
X64895000Y9466200D01*
X64895000Y9466200D02*
X64375000Y9466200D01*
X64375000Y2456200D02*
X64375000Y6356200D01*
X64375000Y8956200D02*
X64375000Y9466200D01*
%TO.C,SW1*%
X47965000Y2456200D02*
X47965000Y6356200D01*
X47965000Y2456200D02*
X40245000Y2456200D01*
X47965000Y8956200D02*
X47965000Y9466200D01*
X47965000Y9466200D02*
X47445000Y9466200D01*
X47445000Y6126200D02*
X47445000Y6356200D01*
X47445000Y6126200D02*
X46905000Y6126200D01*
X47445000Y8956200D02*
X47445000Y9466200D01*
X45805000Y6126200D02*
X42405000Y6126200D01*
X41305000Y6126200D02*
X40765000Y6126200D01*
X40765000Y6126200D02*
X40765000Y6356200D01*
X40765000Y8956200D02*
X40765000Y9466200D01*
X40765000Y9466200D02*
X40245000Y9466200D01*
X40245000Y2456200D02*
X40245000Y6356200D01*
X40245000Y8956200D02*
X40245000Y9466200D01*
%TO.C,R7*%
X5080000Y27151200D02*
X5080000Y27921200D01*
X3710000Y27921200D02*
X6450000Y27921200D01*
X6450000Y27921200D02*
X6450000Y34461200D01*
X3710000Y34461200D02*
X3710000Y27921200D01*
X6450000Y34461200D02*
X3710000Y34461200D01*
X5080000Y35231200D02*
X5080000Y34461200D01*
%TO.C,C1*%
X67244000Y32591820D02*
X67244000Y31961820D01*
X67559000Y32276820D02*
X66929000Y32276820D01*
X68635000Y29091579D02*
X62175000Y29091579D01*
X68635000Y29051579D02*
X62175000Y29051579D01*
X68635000Y29011579D02*
X62175000Y29011579D01*
X68633000Y28971579D02*
X62177000Y28971579D01*
X68632000Y28931579D02*
X62178000Y28931579D01*
X68629000Y28891579D02*
X62181000Y28891579D01*
X68627000Y28851579D02*
X66445000Y28851579D01*
X64365000Y28851579D02*
X62183000Y28851579D01*
X68623000Y28811579D02*
X66445000Y28811579D01*
X64365000Y28811579D02*
X62187000Y28811579D01*
X68620000Y28771579D02*
X66445000Y28771579D01*
X64365000Y28771579D02*
X62190000Y28771579D01*
X68616000Y28731579D02*
X66445000Y28731579D01*
X64365000Y28731579D02*
X62194000Y28731579D01*
X68611000Y28691579D02*
X66445000Y28691579D01*
X64365000Y28691579D02*
X62199000Y28691579D01*
X68606000Y28651579D02*
X66445000Y28651579D01*
X64365000Y28651579D02*
X62204000Y28651579D01*
X68600000Y28611579D02*
X66445000Y28611579D01*
X64365000Y28611579D02*
X62210000Y28611579D01*
X68594000Y28571579D02*
X66445000Y28571579D01*
X64365000Y28571579D02*
X62216000Y28571579D01*
X68587000Y28531579D02*
X66445000Y28531579D01*
X64365000Y28531579D02*
X62223000Y28531579D01*
X68580000Y28491579D02*
X66445000Y28491579D01*
X64365000Y28491579D02*
X62230000Y28491579D01*
X68572000Y28451579D02*
X66445000Y28451579D01*
X64365000Y28451579D02*
X62238000Y28451579D01*
X68564000Y28411579D02*
X66445000Y28411579D01*
X64365000Y28411579D02*
X62246000Y28411579D01*
X68555000Y28370579D02*
X66445000Y28370579D01*
X64365000Y28370579D02*
X62255000Y28370579D01*
X68546000Y28330579D02*
X66445000Y28330579D01*
X64365000Y28330579D02*
X62264000Y28330579D01*
X68536000Y28290579D02*
X66445000Y28290579D01*
X64365000Y28290579D02*
X62274000Y28290579D01*
X68526000Y28250579D02*
X66445000Y28250579D01*
X64365000Y28250579D02*
X62284000Y28250579D01*
X68515000Y28210579D02*
X66445000Y28210579D01*
X64365000Y28210579D02*
X62295000Y28210579D01*
X68503000Y28170579D02*
X66445000Y28170579D01*
X64365000Y28170579D02*
X62307000Y28170579D01*
X68491000Y28130579D02*
X66445000Y28130579D01*
X64365000Y28130579D02*
X62319000Y28130579D01*
X68479000Y28090579D02*
X66445000Y28090579D01*
X64365000Y28090579D02*
X62331000Y28090579D01*
X68466000Y28050579D02*
X66445000Y28050579D01*
X64365000Y28050579D02*
X62344000Y28050579D01*
X68452000Y28010579D02*
X66445000Y28010579D01*
X64365000Y28010579D02*
X62358000Y28010579D01*
X68438000Y27970579D02*
X66445000Y27970579D01*
X64365000Y27970579D02*
X62372000Y27970579D01*
X68423000Y27930579D02*
X66445000Y27930579D01*
X64365000Y27930579D02*
X62387000Y27930579D01*
X68407000Y27890579D02*
X66445000Y27890579D01*
X64365000Y27890579D02*
X62403000Y27890579D01*
X68391000Y27850579D02*
X66445000Y27850579D01*
X64365000Y27850579D02*
X62419000Y27850579D01*
X68375000Y27810579D02*
X66445000Y27810579D01*
X64365000Y27810579D02*
X62435000Y27810579D01*
X68357000Y27770579D02*
X66445000Y27770579D01*
X64365000Y27770579D02*
X62453000Y27770579D01*
X68339000Y27730579D02*
X66445000Y27730579D01*
X64365000Y27730579D02*
X62471000Y27730579D01*
X68321000Y27690579D02*
X66445000Y27690579D01*
X64365000Y27690579D02*
X62489000Y27690579D01*
X68301000Y27650579D02*
X66445000Y27650579D01*
X64365000Y27650579D02*
X62509000Y27650579D01*
X68281000Y27610579D02*
X66445000Y27610579D01*
X64365000Y27610579D02*
X62529000Y27610579D01*
X68261000Y27570579D02*
X66445000Y27570579D01*
X64365000Y27570579D02*
X62549000Y27570579D01*
X68239000Y27530579D02*
X66445000Y27530579D01*
X64365000Y27530579D02*
X62571000Y27530579D01*
X68217000Y27490579D02*
X66445000Y27490579D01*
X64365000Y27490579D02*
X62593000Y27490579D01*
X68195000Y27450579D02*
X66445000Y27450579D01*
X64365000Y27450579D02*
X62615000Y27450579D01*
X68171000Y27410579D02*
X66445000Y27410579D01*
X64365000Y27410579D02*
X62639000Y27410579D01*
X68147000Y27370579D02*
X66445000Y27370579D01*
X64365000Y27370579D02*
X62663000Y27370579D01*
X68121000Y27330579D02*
X66445000Y27330579D01*
X64365000Y27330579D02*
X62689000Y27330579D01*
X68095000Y27290579D02*
X66445000Y27290579D01*
X64365000Y27290579D02*
X62715000Y27290579D01*
X68069000Y27250579D02*
X66445000Y27250579D01*
X64365000Y27250579D02*
X62741000Y27250579D01*
X68041000Y27210579D02*
X66445000Y27210579D01*
X64365000Y27210579D02*
X62769000Y27210579D01*
X68012000Y27170579D02*
X66445000Y27170579D01*
X64365000Y27170579D02*
X62798000Y27170579D01*
X67983000Y27130579D02*
X66445000Y27130579D01*
X64365000Y27130579D02*
X62827000Y27130579D01*
X67953000Y27090579D02*
X66445000Y27090579D01*
X64365000Y27090579D02*
X62857000Y27090579D01*
X67921000Y27050579D02*
X66445000Y27050579D01*
X64365000Y27050579D02*
X62889000Y27050579D01*
X67889000Y27010579D02*
X66445000Y27010579D01*
X64365000Y27010579D02*
X62921000Y27010579D01*
X67855000Y26970579D02*
X66445000Y26970579D01*
X64365000Y26970579D02*
X62955000Y26970579D01*
X67821000Y26930579D02*
X66445000Y26930579D01*
X64365000Y26930579D02*
X62989000Y26930579D01*
X67785000Y26890579D02*
X66445000Y26890579D01*
X64365000Y26890579D02*
X63025000Y26890579D01*
X67748000Y26850579D02*
X66445000Y26850579D01*
X64365000Y26850579D02*
X63062000Y26850579D01*
X67710000Y26810579D02*
X66445000Y26810579D01*
X64365000Y26810579D02*
X63100000Y26810579D01*
X67670000Y26770579D02*
X63140000Y26770579D01*
X67629000Y26730579D02*
X63181000Y26730579D01*
X67587000Y26690579D02*
X63223000Y26690579D01*
X67542000Y26650579D02*
X63268000Y26650579D01*
X67497000Y26610579D02*
X63313000Y26610579D01*
X67449000Y26570579D02*
X63361000Y26570579D01*
X67400000Y26530579D02*
X63410000Y26530579D01*
X67349000Y26490579D02*
X63461000Y26490579D01*
X67295000Y26450579D02*
X63515000Y26450579D01*
X67239000Y26410579D02*
X63571000Y26410579D01*
X67181000Y26370579D02*
X63629000Y26370579D01*
X67119000Y26330579D02*
X63691000Y26330579D01*
X67055000Y26290579D02*
X63755000Y26290579D01*
X66986000Y26250579D02*
X63824000Y26250579D01*
X66914000Y26210579D02*
X63896000Y26210579D01*
X66837000Y26170579D02*
X63973000Y26170579D01*
X66755000Y26130579D02*
X64055000Y26130579D01*
X66667000Y26090579D02*
X64143000Y26090579D01*
X66570000Y26050579D02*
X64240000Y26050579D01*
X66464000Y26010579D02*
X64346000Y26010579D01*
X66345000Y25970579D02*
X64465000Y25970579D01*
X66207000Y25930579D02*
X64603000Y25930579D01*
X66038000Y25890579D02*
X64772000Y25890579D01*
X65807000Y25850579D02*
X65003000Y25850579D01*
X68675000Y29091579D02*
G75*
G03*
X68675000Y29091579I-3270000J0D01*
G01*
%TO.C,C5*%
X74576000Y2536200D02*
X77316000Y2536200D01*
X74576000Y2536200D02*
X74576000Y7776200D01*
X77316000Y2536200D02*
X77316000Y7776200D01*
X74576000Y7776200D02*
X77316000Y7776200D01*
%TO.C,U1*%
X72855000Y25723200D02*
X72855000Y15323200D01*
X72855000Y15323200D02*
X83355000Y15323200D01*
X75855000Y25663200D02*
X75855000Y15383200D01*
X75855000Y15383200D02*
X80355000Y15383200D01*
X77105000Y25663200D02*
X75855000Y25663200D01*
X80355000Y25663200D02*
X79105000Y25663200D01*
X80355000Y15383200D02*
X80355000Y25663200D01*
X83355000Y25723200D02*
X72855000Y25723200D01*
X83355000Y15323200D02*
X83355000Y25723200D01*
X77105000Y25663200D02*
G75*
G03*
X79105000Y25663200I1000000J0D01*
G01*
%TO.C,C4*%
X83847000Y20623200D02*
X83847000Y17883200D01*
X83847000Y20623200D02*
X89087000Y20623200D01*
X83847000Y17883200D02*
X89087000Y17883200D01*
X89087000Y20623200D02*
X89087000Y17883200D01*
%TO.C,U3*%
X54526000Y21292200D02*
X54526000Y41852200D01*
X54526000Y41852200D02*
X44026000Y41852200D01*
X51526000Y21352200D02*
X51526000Y41792200D01*
X51526000Y41792200D02*
X47026000Y41792200D01*
X50276000Y21352200D02*
X51526000Y21352200D01*
X47026000Y21352200D02*
X48276000Y21352200D01*
X47026000Y41792200D02*
X47026000Y21352200D01*
X44026000Y21292200D02*
X54526000Y21292200D01*
X44026000Y41852200D02*
X44026000Y21292200D01*
X50276000Y21352200D02*
G75*
G03*
X48276000Y21352200I-1000000J0D01*
G01*
%TO.C,R6*%
X5080000Y49376200D02*
X5080000Y50146200D01*
X3710000Y50146200D02*
X6450000Y50146200D01*
X6450000Y50146200D02*
X6450000Y56686200D01*
X3710000Y56686200D02*
X3710000Y50146200D01*
X6450000Y56686200D02*
X3710000Y56686200D01*
X5080000Y57456200D02*
X5080000Y56686200D01*
%TO.C,Q1*%
X51386000Y17383200D02*
X51386000Y13533200D01*
X55685999Y15443200D02*
G75*
G03*
X54184807Y17799599I-2599999J0D01*
G01*
X51963955Y17765831D02*
G75*
G03*
X51386000Y17383200I1122045J-2322631D01*
G01*
X54184807Y13086800D02*
G75*
G03*
X55686000Y15443200I-1098807J2356400D01*
G01*
X51386001Y13533201D02*
G75*
G03*
X51973736Y13140818I1699999J1909999D01*
G01*
%TO.C,C6*%
X72063000Y19023200D02*
X72048000Y19023200D01*
X72063000Y19023200D02*
X72063000Y14483200D01*
X69938000Y19023200D02*
X69923000Y19023200D01*
X69923000Y19023200D02*
X69923000Y14483200D01*
X72063000Y14483200D02*
X72048000Y14483200D01*
X69938000Y14483200D02*
X69923000Y14483200D01*
%TO.C,D1*%
X92820000Y32827200D02*
X84980000Y32827200D01*
X92820000Y33307200D02*
X92820000Y32827200D01*
X92820000Y36187200D02*
X92820000Y36667200D01*
X92820000Y36667200D02*
X84980000Y36667200D01*
X91680000Y32827200D02*
X91680000Y36667200D01*
X91560000Y32827200D02*
X91560000Y36667200D01*
X91440000Y32827200D02*
X91440000Y36667200D01*
X84980000Y32827200D02*
X84980000Y33307200D01*
X84980000Y36667200D02*
X84980000Y36187200D01*
%TO.C,U2*%
X8025000Y881200D02*
X36424999Y881200D01*
X8025001Y48801200D02*
X8025000Y881200D01*
X13255120Y54714320D02*
X31238320Y54714320D01*
X13255120Y48821520D02*
X13255120Y54714320D01*
X31238320Y54714320D02*
X31238320Y48821520D01*
X36424999Y881200D02*
X36425000Y48801200D01*
X36425000Y48801200D02*
X8025001Y48801200D01*
%TO.C,U7*%
X78045000Y726200D02*
X80045000Y726200D01*
X78045000Y726200D02*
X78045000Y2336200D01*
X90585000Y1006200D02*
X78335000Y1006200D01*
X78325000Y1016200D02*
X78325000Y6756200D01*
X78325000Y6766200D02*
X90585000Y6766200D01*
X90585000Y6766200D02*
X90585000Y1006200D01*
%TO.C,F1*%
X7750000Y8329952D02*
X7750000Y3922448D01*
X2410000Y8329952D02*
X2410000Y3922448D01*
%TO.C,C3*%
X7401000Y46531200D02*
X2759000Y46531200D01*
X7401000Y46531200D02*
X7401000Y38791200D01*
X2759000Y46531200D02*
X2759000Y38791200D01*
X7401000Y38791200D02*
X2759000Y38791200D01*
%TO.C,LS1*%
X64365000Y24343200D02*
G75*
G03*
X61365001Y24343200I-1500000J-6400000D01*
G01*
X69095000Y17943200D02*
G75*
G03*
X69095000Y17943200I-6230000J0D01*
G01*
%TO.C,R1*%
X94210000Y24333200D02*
X93440000Y24333200D01*
X93440000Y22963200D02*
X93440000Y25703200D01*
X93440000Y25703200D02*
X86900000Y25703200D01*
X86900000Y22963200D02*
X93440000Y22963200D01*
X86900000Y25703200D02*
X86900000Y22963200D01*
X86130000Y24333200D02*
X86900000Y24333200D01*
%TO.C,SW2*%
X60030000Y2456200D02*
X60030000Y6356200D01*
X60030000Y2456200D02*
X52310000Y2456200D01*
X60030000Y8956200D02*
X60030000Y9466200D01*
X60030000Y9466200D02*
X59510000Y9466200D01*
X59510000Y6126200D02*
X59510000Y6356200D01*
X59510000Y6126200D02*
X58970000Y6126200D01*
X59510000Y8956200D02*
X59510000Y9466200D01*
X57870000Y6126200D02*
X54470000Y6126200D01*
X53370000Y6126200D02*
X52830000Y6126200D01*
X52830000Y6126200D02*
X52830000Y6356200D01*
X52830000Y8956200D02*
X52830000Y9466200D01*
X52830000Y9466200D02*
X52310000Y9466200D01*
X52310000Y2456200D02*
X52310000Y6356200D01*
X52310000Y8956200D02*
X52310000Y9466200D01*
%TO.C,R3*%
X86130000Y29032200D02*
X86900000Y29032200D01*
X86900000Y30402200D02*
X86900000Y27662200D01*
X86900000Y27662200D02*
X93440000Y27662200D01*
X93440000Y30402200D02*
X86900000Y30402200D01*
X93440000Y27662200D02*
X93440000Y30402200D01*
X94210000Y29032200D02*
X93440000Y29032200D01*
%TO.C,C2*%
X44116000Y20496200D02*
X44116000Y17756200D01*
X44116000Y20496200D02*
X49356000Y20496200D01*
X44116000Y17756200D02*
X49356000Y17756200D01*
X49356000Y20496200D02*
X49356000Y17756200D01*
%TO.C,R8*%
X5080000Y13816200D02*
X5080000Y14586200D01*
X3710000Y14586200D02*
X6450000Y14586200D01*
X6450000Y14586200D02*
X6450000Y21126200D01*
X3710000Y21126200D02*
X3710000Y14586200D01*
X6450000Y21126200D02*
X3710000Y21126200D01*
X5080000Y21896200D02*
X5080000Y21126200D01*
%TD*%
M02*
