%TF.GenerationSoftware,KiCad,Pcbnew,7.0.2*%
%TF.CreationDate,2023-09-30T04:37:45+09:00*%
%TF.ProjectId,VFD_NTP_CLOCK_V2.0,5646445f-4e54-4505-9f43-4c4f434b5f56,rev?*%
%TF.SameCoordinates,PX5e78920PY6f7ffe8*%
%TF.FileFunction,Soldermask,Bot*%
%TF.FilePolarity,Negative*%
%FSLAX46Y46*%
G04 Gerber Fmt 4.6, Leading zero omitted, Abs format (unit mm)*
G04 Created by KiCad (PCBNEW 7.0.2) date 2023-09-30 04:37:45*
%MOMM*%
%LPD*%
G01*
G04 APERTURE LIST*
%ADD10C,1.600000*%
%ADD11O,1.600000X1.600000*%
%ADD12C,1.440000*%
%ADD13R,1.600000X1.600000*%
%ADD14C,2.032000*%
%ADD15R,1.600000X2.400000*%
%ADD16O,1.600000X2.400000*%
%ADD17C,2.600000*%
%ADD18C,2.100000*%
%ADD19C,1.750000*%
%ADD20R,2.400000X1.600000*%
%ADD21O,2.400000X1.600000*%
%ADD22R,1.500000X1.500000*%
%ADD23C,1.500000*%
%ADD24R,2.400000X2.400000*%
%ADD25O,2.400000X2.400000*%
%ADD26R,2.000000X1.200000*%
%ADD27O,2.000000X1.200000*%
%ADD28R,2.000000X2.000000*%
%ADD29C,2.000000*%
G04 APERTURE END LIST*
D10*
%TO.C,R9*%
X69977000Y35509200D03*
D11*
X59817000Y35509200D03*
%TD*%
D10*
%TO.C,R2*%
X38608000Y13411200D03*
D11*
X48768000Y13411200D03*
%TD*%
D10*
%TO.C,C8*%
X93980000Y52948200D03*
X93980000Y55448200D03*
%TD*%
D12*
%TO.C,RV1*%
X90170000Y10363200D03*
X92710000Y12903200D03*
X90170000Y15443200D03*
%TD*%
D13*
%TO.C,C9*%
X93980000Y43383200D03*
D10*
X90480000Y43383200D03*
%TD*%
D14*
%TO.C,U5*%
X90170000Y67486200D03*
X85090000Y67486200D03*
X82550000Y67486200D03*
X80010000Y67486200D03*
X77470000Y67486200D03*
X74930000Y67486200D03*
X72390000Y67486200D03*
X69850000Y67486200D03*
X67310000Y67486200D03*
X62230000Y67486200D03*
X59690000Y67486200D03*
X39370000Y67486200D03*
X36830000Y67486200D03*
X31750000Y67486200D03*
X29210000Y67486200D03*
X26670000Y67486200D03*
X24130000Y67486200D03*
X21590000Y67486200D03*
X19050000Y67486200D03*
X16510000Y67486200D03*
X13970000Y67486200D03*
X8890000Y67486200D03*
%TD*%
D15*
%TO.C,U4*%
X39370000Y50241200D03*
D16*
X41910000Y50241200D03*
X44450000Y50241200D03*
X46990000Y50241200D03*
X49530000Y50241200D03*
X52070000Y50241200D03*
X54610000Y50241200D03*
X57150000Y50241200D03*
X59690000Y50241200D03*
X59690000Y57861200D03*
X57150000Y57861200D03*
X54610000Y57861200D03*
X52070000Y57861200D03*
X49530000Y57861200D03*
X46990000Y57861200D03*
X44450000Y57861200D03*
X41910000Y57861200D03*
X39370000Y57861200D03*
%TD*%
D10*
%TO.C,R4*%
X84455000Y12903200D03*
D11*
X74295000Y12903200D03*
%TD*%
D10*
%TO.C,C7*%
X63500000Y52948200D03*
X63500000Y55448200D03*
%TD*%
%TO.C,R5*%
X2540000Y62306200D03*
D11*
X12700000Y62306200D03*
%TD*%
D17*
%TO.C,L1*%
X73994000Y32461200D03*
X78994000Y32461200D03*
%TD*%
D15*
%TO.C,U6*%
X69850000Y50241200D03*
D16*
X72390000Y50241200D03*
X74930000Y50241200D03*
X77470000Y50241200D03*
X80010000Y50241200D03*
X82550000Y50241200D03*
X85090000Y50241200D03*
X87630000Y50241200D03*
X90170000Y50241200D03*
X90170000Y57861200D03*
X87630000Y57861200D03*
X85090000Y57861200D03*
X82550000Y57861200D03*
X80010000Y57861200D03*
X77470000Y57861200D03*
X74930000Y57861200D03*
X72390000Y57861200D03*
X69850000Y57861200D03*
%TD*%
D18*
%TO.C,SW3*%
X71735000Y7646200D03*
X64725000Y7646200D03*
D19*
X70485000Y5156200D03*
X65985000Y5156200D03*
%TD*%
D18*
%TO.C,SW1*%
X47605000Y7646200D03*
X40595000Y7646200D03*
D19*
X46355000Y5156200D03*
X41855000Y5156200D03*
%TD*%
D10*
%TO.C,R7*%
X5080000Y26111200D03*
D11*
X5080000Y36271200D03*
%TD*%
D13*
%TO.C,C1*%
X65405000Y30341579D03*
D10*
X65405000Y27841579D03*
%TD*%
%TO.C,C5*%
X75946000Y3906200D03*
X75946000Y6406200D03*
%TD*%
D20*
%TO.C,U1*%
X74295000Y24333200D03*
D21*
X74295000Y21793200D03*
X74295000Y19253200D03*
X74295000Y16713200D03*
X81915000Y16713200D03*
X81915000Y19253200D03*
X81915000Y21793200D03*
X81915000Y24333200D03*
%TD*%
D10*
%TO.C,C4*%
X85217000Y19253200D03*
X87717000Y19253200D03*
%TD*%
D20*
%TO.C,U3*%
X53086000Y22682200D03*
D21*
X53086000Y25222200D03*
X53086000Y27762200D03*
X53086000Y30302200D03*
X53086000Y32842200D03*
X53086000Y35382200D03*
X53086000Y37922200D03*
X53086000Y40462200D03*
X45466000Y40462200D03*
X45466000Y37922200D03*
X45466000Y35382200D03*
X45466000Y32842200D03*
X45466000Y30302200D03*
X45466000Y27762200D03*
X45466000Y25222200D03*
X45466000Y22682200D03*
%TD*%
D10*
%TO.C,R6*%
X5080000Y48336200D03*
D11*
X5080000Y58496200D03*
%TD*%
D22*
%TO.C,Q1*%
X53086000Y17983200D03*
D23*
X53086000Y15443200D03*
X53086000Y12903200D03*
%TD*%
D10*
%TO.C,C6*%
X70993000Y19253200D03*
X70993000Y14253200D03*
%TD*%
D24*
%TO.C,D1*%
X93980000Y34747200D03*
D25*
X83820000Y34747200D03*
%TD*%
D26*
%TO.C,U2*%
X9525000Y47701200D03*
D27*
X9525000Y45161200D03*
X9525000Y42621200D03*
X9525000Y40081200D03*
X9525000Y37541200D03*
X9525000Y35001200D03*
X9525000Y32461200D03*
X9525000Y29921200D03*
X9525000Y27381200D03*
X9525000Y24841200D03*
X9525000Y22301200D03*
X9525000Y19761200D03*
X9525000Y17221200D03*
X9525000Y14681200D03*
X9525000Y12141200D03*
X9525000Y9601200D03*
X9525000Y7061200D03*
X9525000Y4521200D03*
X9525000Y1981200D03*
X34921320Y1983920D03*
X34921320Y4523920D03*
X34925000Y7061200D03*
X34925000Y9601200D03*
X34925000Y12141200D03*
X34925000Y14681200D03*
X34925000Y17221200D03*
X34925000Y19761200D03*
X34925000Y22301200D03*
X34925000Y24841200D03*
X34925000Y27381200D03*
X34925000Y29921200D03*
X34925000Y32461200D03*
X34925000Y35001200D03*
X34925000Y37541200D03*
X34925000Y40081200D03*
X34925000Y42621200D03*
X34925000Y45161200D03*
X34925000Y47701200D03*
%TD*%
D22*
%TO.C,U7*%
X80645000Y3886200D03*
D23*
X83185000Y3886200D03*
X85725000Y3886200D03*
X88265000Y3886200D03*
%TD*%
D10*
%TO.C,C3*%
X5080000Y45161200D03*
X5080000Y40161200D03*
%TD*%
D28*
%TO.C,LS1*%
X62865000Y20443200D03*
D29*
X62865000Y15443200D03*
%TD*%
D10*
%TO.C,R1*%
X95250000Y24333200D03*
D11*
X85090000Y24333200D03*
%TD*%
D18*
%TO.C,SW2*%
X59670000Y7646200D03*
X52660000Y7646200D03*
D19*
X58420000Y5156200D03*
X53920000Y5156200D03*
%TD*%
D10*
%TO.C,R3*%
X85090000Y29032200D03*
D11*
X95250000Y29032200D03*
%TD*%
D10*
%TO.C,C2*%
X45486000Y19126200D03*
X47986000Y19126200D03*
%TD*%
%TO.C,R8*%
X5080000Y12776200D03*
D11*
X5080000Y22936200D03*
%TD*%
M02*
