%TF.GenerationSoftware,KiCad,Pcbnew,7.0.2*%
%TF.CreationDate,2023-09-30T04:37:45+09:00*%
%TF.ProjectId,VFD_NTP_CLOCK_V2.0,5646445f-4e54-4505-9f43-4c4f434b5f56,rev?*%
%TF.SameCoordinates,PX5e78920PY6f7ffe8*%
%TF.FileFunction,Profile,NP*%
%FSLAX46Y46*%
G04 Gerber Fmt 4.6, Leading zero omitted, Abs format (unit mm)*
G04 Created by KiCad (PCBNEW 7.0.2) date 2023-09-30 04:37:45*
%MOMM*%
%LPD*%
G01*
G04 APERTURE LIST*
%TA.AperFunction,Profile*%
%ADD10C,0.100000*%
%TD*%
G04 APERTURE END LIST*
D10*
X99060000Y71196200D02*
X99060000Y65481200D01*
X96520000Y0D02*
X2540000Y0D01*
X57785000Y75006200D02*
X88265000Y75006200D01*
X10795000Y75006200D02*
G75*
G03*
X10160000Y74371200I0J-635000D01*
G01*
X25400Y2616200D02*
X25400Y71120000D01*
X10160000Y71831200D02*
X10160000Y74371200D01*
X635005Y71831165D02*
G75*
G03*
X25278Y71119999I100895J-703465D01*
G01*
X88900000Y71831200D02*
X88900000Y74371200D01*
X99060000Y2616200D02*
X96520000Y0D01*
X99060000Y58496200D02*
X99060000Y4445000D01*
X41910000Y71831200D02*
X57150000Y71831200D01*
X99060000Y65481200D02*
X99060000Y58496200D01*
X99060000Y58496200D02*
X99060000Y58496200D01*
X88900000Y74371200D02*
G75*
G03*
X88265000Y75006200I-635000J0D01*
G01*
X41910000Y71831200D02*
X41910000Y74371200D01*
X57150000Y71831200D02*
X57150000Y74371200D01*
X57785000Y75006200D02*
G75*
G03*
X57150000Y74371200I0J-635000D01*
G01*
X99060000Y71196200D02*
G75*
G03*
X98425000Y71831200I-635000J0D01*
G01*
X10795000Y75006200D02*
X41275000Y75006200D01*
X25400Y2616200D02*
X2540000Y0D01*
X99060000Y2616200D02*
X99060000Y4445000D01*
X41910000Y74371200D02*
G75*
G03*
X41275000Y75006200I-635000J0D01*
G01*
X98425000Y71831200D02*
X88900000Y71831200D01*
X635000Y71831200D02*
X10160000Y71831200D01*
M02*
